<svg width="101" height="94" viewBox="0 0 101 94" fill="none" xmlns="http://www.w3.org/2000/svg">
<path d="M87.3986 36.26C89.2803 36.7955 91.7946 38.9091 92.66 40.5508C93.884 42.8729 95.7308 52.9596 93.1428 57.3734C90.9616 61.0933 87.649 62.3166 85.7243 62.7603C83.308 63.3174 81.5736 63.4507 79.7204 63.7387C78.0866 63.9926 76.3605 64.3669 73.9931 65.2577C73.5945 65.4077 73.1777 65.5724 72.74 65.7536C72.0114 66.0553 71.3309 66.2317 70.7813 66.4838C69.6667 66.9217 68.6218 67.6615 67.8482 68.2601C67.0746 68.8588 65.7054 70.8101 65.7054 70.8101L57.261 56.6067C57.261 56.6067 60.5557 53.4128 62.8009 49.6613C64.1861 47.3468 65.7865 45.2596 67.59 43.4136C69.5201 41.438 71.683 39.7387 74.0639 38.3327C75.0951 37.7237 75.8155 37.3887 76.9805 37.033C78.0809 36.6972 80.173 36.0798 82.0001 35.9113C83.3397 35.7877 85.9852 35.8579 87.3986 36.26Z" fill="#F1F1F1"/>
<path d="M67.8482 68.2601C67.0746 68.8588 65.7054 70.8101 65.7054 70.8101L57.261 56.6067C57.261 56.6067 60.5557 53.4128 62.8009 49.6613C64.1861 47.3468 65.7865 45.2596 67.59 43.4136M67.8482 68.2601C68.6218 67.6615 69.6667 66.9217 70.7813 66.4838M67.8482 68.2601L66.6238 66.2444L66.2057 54.5447C66.2057 54.5447 68.1846 57.0886 69.0435 58.9459C70.311 61.6869 70.7813 66.4838 70.7813 66.4838M86.8885 61.8792C86.8885 61.8792 87.4167 57.8919 87.453 53.7828C87.4891 49.7114 87.2399 49.5833 86.4743 45.5826C86.2332 44.3229 84.7517 40.7367 84.1809 39.5889C83.5734 38.3673 82.0001 35.9113 82.0001 35.9113M82.0001 35.9113C80.173 36.0798 78.0809 36.6972 76.9805 37.033C75.8155 37.3887 75.0951 37.7237 74.0638 38.3327M82.0001 35.9113C83.3397 35.7877 85.9852 35.8579 87.3986 36.26C89.2803 36.7955 91.7946 38.9091 92.66 40.5508C93.884 42.8729 95.7308 52.9596 93.1428 57.3734C90.9616 61.0933 87.649 62.3166 85.7243 62.7603C83.308 63.3174 81.5736 63.4507 79.7204 63.7387M79.7204 63.7387C79.7204 63.7387 80.6217 58.4215 80.394 54.7973C80.2577 52.6285 79.3375 46.9324 78.013 44.4692C76.9183 42.4334 74.0638 38.3327 74.0638 38.3327M79.7204 63.7387C78.0866 63.9926 76.3605 64.3669 73.9931 65.2577M74.0638 38.3327C71.683 39.7387 69.5201 41.438 67.59 43.4136M67.59 43.4136C67.59 43.4136 69.4341 46.1407 70.4471 47.8986C71.4601 49.6566 71.8595 52.0157 72.4326 53.8751C73.0058 55.7345 73.59 58.571 74.1094 61.1484C74.4854 63.0143 73.9931 65.2577 73.9931 65.2577M73.9931 65.2577C73.5945 65.4077 73.1777 65.5724 72.74 65.7536C72.0114 66.0553 71.3309 66.2317 70.7813 66.4838" stroke="#AAAAAA" stroke-width="1.92941" stroke-linecap="round"/>
<g opacity="0.5">
<path d="M66.4162 23.5657C65.2595 26.4803 61.6927 28.1663 61.6927 28.1663L50.5942 16.2051C50.5942 16.2051 53.1824 13.156 55.8723 12.2459C58.0673 11.5033 61.707 10.9006 65.066 14.5815C68.4249 18.2623 67.069 21.9206 66.4162 23.5657Z" fill="#F1F1F1" stroke="#5F5F5F" stroke-width="1.92941" stroke-linecap="round"/>
<path d="M56.6765 14.5043C54.2485 15.0591 51.5399 17.8375 51.5399 17.8375L62.1667 26.1132C62.1667 26.1132 64.353 24.0371 64.6251 21.8291L64.6259 21.8232C64.7888 20.5016 65.0851 18.0977 62.8094 16.1286C60.5303 14.1566 58.9291 13.9896 56.6765 14.5043Z" fill="#737373"/>
<ellipse cx="58.2829" cy="24.7475" rx="12.2191" ry="5.25513" transform="rotate(45.3747 58.2829 24.7475)" fill="#FEFEFE"/>
</g>
<g opacity="0.5">
<path d="M19.5326 25.3174C20.8624 28.1571 24.5241 29.6257 24.5241 29.6257L34.8836 17.0189C34.8836 17.0189 32.1167 14.131 29.3771 13.3843C27.1414 12.7749 23.472 12.392 20.3404 16.2681C17.2088 20.1442 18.782 23.7144 19.5326 25.3174Z" fill="#F1F1F1" stroke="#5F5F5F" stroke-width="1.92941" stroke-linecap="round"/>
<path d="M28.7107 15.6881C31.1677 16.0959 34.0384 18.7065 34.0384 18.7065L23.9282 27.6059C23.9282 27.6059 21.6211 25.665 21.2168 23.4774L21.2157 23.4715C20.9736 22.1621 20.5334 19.7803 22.6866 17.6781C24.8431 15.5727 26.4313 15.3097 28.7107 15.6881Z" fill="#737373"/>
<ellipse cx="12.2191" cy="5.25513" rx="12.2191" ry="5.25513" transform="matrix(-0.658418 0.752652 0.752652 0.658418 31.8145 13.3516)" fill="#FEFEFE"/>
</g>
<path d="M23.6269 73.5559C24.2832 75.5093 25.6724 79.6938 26.5037 81.7316L26.5102 81.7476C27.7476 84.7808 28.1083 85.6648 31.7161 85.5563C35.171 85.4524 35.8419 80.5879 35.8419 80.5879C35.8419 80.5879 41.3124 81.2862 45.232 81.1683C52.4604 80.9508 53.8037 80.074 53.8037 80.074C53.8037 80.074 54.8971 85.2642 58.086 85.1683C61.155 85.076 62.1525 85.3881 63.3938 82.9724C64.635 80.5567 63.8683 81.1093 64.8112 76.0989C66.0872 69.3189 67.8766 62.8522 68.3994 58.7257C68.9222 54.5992 69.9021 45.7737 69.5938 39.0522C69.1946 30.3447 62.9333 13.6715 43.2194 14.2645C21.8425 14.9075 18.5338 32.6674 17.9292 36.5224C16.9483 42.7778 17.7707 49.6285 18.8164 55.8697C19.6818 61.0349 22.3691 69.8118 23.6269 73.5559Z" fill="#F1F1F1" stroke="#AAAAAA" stroke-width="1.92941" stroke-linecap="round" stroke-linejoin="round"/>
<path opacity="0.5" d="M27.1592 24.7775C25.609 26.1856 23.5037 29.4153 22.6334 31.8199C21.763 34.2244 21.5956 38.256 22.8824 40.0963C24.6375 42.6065 27.2365 43.2839 30.0094 43.6661C32.3996 43.9955 34.8944 42.6866 36.5623 41.2441C38.5121 39.5577 36.3759 37.9668 38.4617 36.4394C42.0406 33.8186 45.4236 34.768 47.7529 36.3614C50.0821 37.9547 48.5728 39.3974 50.0308 41.1309C51.489 42.8645 54.4034 42.9932 56.5752 42.867C60.0886 42.6628 62.2599 41.2907 63.7531 38.7182C64.6721 37.1349 64.7619 34.0057 63.5086 30.5903C62.2552 27.1749 57.812 22.9858 56.3114 22.1284C54.8107 21.2709 50.9401 18.7707 43.8773 18.6983C36.8145 18.6259 32.4841 19.9408 27.1592 24.7775Z" fill="#B3B3B3"/>
<path opacity="0.5" d="M58.7005 63.3499C57.6712 70.8874 53.1183 75.464 44.9506 75.7097C36.783 75.9554 31.2915 72.9199 28.8736 65.3408C27.9336 61.4227 29.2352 54.3416 32.3031 51.1883C35.3343 48.0729 40.0417 46.9174 44.0809 46.7959C48.6857 47.1622 51.2658 48.0941 54.5714 50.5185C57.7626 52.8589 59.2721 59.1646 58.7005 63.3499Z" fill="#E6E6E6"/>
<g opacity="0.5">
<g filter="url(#filter0_f_916_5539)">
<path d="M64.3802 49.7718C64.6287 51.1816 63.9306 54.2332 63.9306 54.2332C63.9306 54.2332 61.7959 55.1745 59.6889 55.1111C58.2759 55.0686 56.6986 54.825 55.5334 53.9744C54.3707 53.1256 53.0947 50.6405 53.0947 50.6405C53.0947 50.6405 54.2156 49.5227 54.8097 48.9255C56.3468 47.3804 57.4672 46.3341 59.3117 46.1386C60.6411 45.9976 61.8441 46.2257 62.895 47.0918C63.7922 47.8313 64.1681 48.5681 64.3802 49.7718Z" fill="#D2D2D2"/>
</g>
<path d="M64.0117 53.6685C64.0117 53.6685 64.6667 50.923 64.3995 49.6468C64.1713 48.5572 63.7861 47.8869 62.8805 47.2071C61.8198 46.4108 60.689 46.1033 59.364 46.2124C57.5257 46.3637 56.4704 47.405 54.9574 48.7789C54.3726 49.31 53.2322 50.6347 53.2322 50.6347" stroke="#5F5F5F" stroke-width="1.71503" stroke-linecap="round"/>
<path d="M79.0357 62.8606L79.2501 60.5024L79.4644 57.0722L79.4644 53.8564L78.8212 49.9977L77.7493 46.1388L76.8918 44.2095L75.6056 42.2801L73.8905 39.4932L70.2461 41.9025L70.4605 46.1388L72.3899 50.6409L74.5337 59.0016L75.1768 63.9323L79.0357 62.8606Z" fill="#919191"/>
</g>
<path opacity="0.5" d="M86.7547 43.3515C85.8575 40.6027 83.5391 36.7058 83.5391 36.7058C83.5391 36.7058 85.6286 36.4762 87.3979 37.1346C88.3472 37.4879 90.3992 39.0639 91.2567 39.9214C92.2273 40.8921 93.2351 45.1508 93.4005 46.1384C94.143 50.5722 93.6149 54.928 92.3286 57.0717C90.8488 59.5381 87.9443 61.1449 87.9443 61.1449C87.9443 61.1449 88.4431 55.8097 88.2554 51.9266C88.0931 48.5684 87.798 46.5477 86.7547 43.3515Z" fill="#919191"/>
<path d="M70.6757 66.0764L69.3894 59.002L67.0312 68.2202L70.6757 66.0764Z" fill="#4B3F70"/>
<path opacity="0.5" d="M37.4381 33.4142C37.3201 30.3746 35.015 27.7574 31.1928 27.8937C28.4584 27.9912 25.3309 30.8021 25.4489 33.8417C25.5669 36.8813 28.2308 38.6299 31.5744 38.5001C34.918 38.3703 37.5561 36.4539 37.4381 33.4142Z" fill="#585858"/>
<path opacity="0.5" d="M59.6125 33.712C59.7947 30.6811 57.6042 27.8448 53.5186 27.587C50.5957 27.4027 46.9793 29.8726 46.797 32.9035C46.6148 35.9345 49.2755 37.945 52.8506 38.1599C56.4257 38.3749 59.4302 36.7429 59.6125 33.712Z" fill="#585858"/>
<ellipse cx="41.4939" cy="38.7807" rx="8.32633" ry="7.36812" transform="rotate(9.20256 41.4939 38.7807)" fill="#D1D1D1"/>
<path d="M45.1038 36.3748C45.0977 38.047 43.6018 39.3971 41.8127 39.3906C40.3218 39.3852 38.5376 38.0232 38.5437 36.351C38.5498 34.6788 40.0232 33.3286 41.8347 33.3352C43.6463 33.3418 45.1099 34.7027 45.1038 36.3748Z" fill="#939393"/>
<path d="M34.8606 43.5313C34.1968 42.3188 33.683 41.5099 33.5167 40.0456C33.3504 38.5813 33.6001 37.1011 34.2398 35.7652C34.8797 34.4292 35.8864 33.2867 37.1536 32.465C38.421 31.6432 39.8994 31.1746 41.4276 31.1131C42.9559 31.0515 44.472 31.3996 45.8101 32.1177C47.1481 32.8356 48.2549 33.8948 49.0128 35.1765C49.7706 36.458 50.1514 37.914 50.1163 39.3861C50.0813 40.8581 49.891 42.3299 49.237 43.6478" stroke="#939393" stroke-width="1.92941" stroke-linecap="round" stroke-linejoin="round"/>
<path d="M74.1395 2.66335L73.4618 2.44936C72.6653 2.19782 71.8037 2.55616 71.4211 3.29875L69.4658 7.09423L67.7264 10.4707C67.3233 11.2531 67.8859 12.1852 68.766 12.1943C69.0964 12.1977 69.4115 12.0645 69.6379 11.824L74.4325 6.72948C74.5868 6.56554 74.7369 6.40953 74.8826 6.26119C75.9153 5.20961 75.545 3.10717 74.1395 2.66335Z" fill="#AAAAAA"/>
<path d="M75.9988 12.3862C76.0552 12.3573 76.111 12.3291 76.1659 12.3016C77.2312 11.7682 77.5647 10.0857 76.6538 9.31789C76.1036 8.85418 75.2939 8.87516 74.769 9.36729L72.6662 11.3386L70.6055 13.2706C70.1546 13.6934 70.2908 14.4406 70.8619 14.6772C71.0922 14.7726 71.3516 14.7628 71.5736 14.6493L75.9988 12.3862Z" fill="#AAAAAA"/>
<ellipse cx="55.9135" cy="30.1973" rx="1.10816" ry="0.747806" transform="rotate(25.9442 55.9135 30.1973)" fill="#EDE9E9"/>
<ellipse cx="32.9818" cy="30.1981" rx="1.10816" ry="0.747806" transform="rotate(21.386 32.9818 30.1981)" fill="#EDE9E9"/>
<rect y="52.8398" width="101" height="40.5591" fill="#FEFEFE"/>
<g filter="url(#filter1_f_916_5539)">
<path d="M33.394 56.9929C34.1166 55.7835 34.5293 52.6816 34.5293 52.6816C34.5293 52.6816 32.2526 50.463 30.2674 49.9574C28.7678 49.5755 27.4794 49.3659 25.9959 49.8366C24.8805 50.1905 22.9484 51.6392 22.9484 51.6392C22.9484 51.6392 23.7188 53.4157 24.0643 54.202C24.9582 56.2361 25.7916 57.5892 27.442 58.4928C28.6316 59.1441 29.7958 59.2863 31.0766 58.8951C32.1701 58.5612 32.777 58.0255 33.394 56.9929Z" fill="#D2D2D2"/>
</g>
<path d="M34.4589 53.2868C34.4589 53.2868 34.055 56.0803 33.3358 57.1679C32.7218 58.0965 32.1164 58.5774 31.024 58.8752C29.7443 59.2241 28.5798 59.0927 27.3885 58.5026C25.7357 57.6838 25.139 56.3266 24.2395 54.4915C23.8918 53.7821 23.3205 52.1301 23.3205 52.1301" stroke="#AAAAAA" stroke-width="1.71503" stroke-linecap="round"/>
<defs>
<filter id="filter0_f_916_5539" x="52.2362" y="45.2421" width="13.0549" height="10.7297" filterUnits="userSpaceOnUse" color-interpolation-filters="sRGB">
<feFlood flood-opacity="0" result="BackgroundImageFix"/>
<feBlend mode="normal" in="SourceGraphic" in2="BackgroundImageFix" result="shape"/>
<feGaussianBlur stdDeviation="0.428757" result="effect1_foregroundBlur_916_5539"/>
</filter>
<filter id="filter1_f_916_5539" x="22.0917" y="48.7079" width="13.2951" height="11.2609" filterUnits="userSpaceOnUse" color-interpolation-filters="sRGB">
<feFlood flood-opacity="0" result="BackgroundImageFix"/>
<feBlend mode="normal" in="SourceGraphic" in2="BackgroundImageFix" result="shape"/>
<feGaussianBlur stdDeviation="0.428757" result="effect1_foregroundBlur_916_5539"/>
</filter>
</defs>
</svg>
