<svg width="30" height="31" viewBox="0 0 30 31" fill="none" xmlns="http://www.w3.org/2000/svg">
<path d="M14.8701 3.7002C15.2555 3.56987 15.7893 3.44499 16.3848 3.52539C16.9882 3.607 17.6312 3.89678 18.2324 4.55566C18.8406 5.22231 19.0334 5.90398 19.0332 6.50098C19.0329 7.08688 18.8459 7.57341 18.7363 7.84961C18.6601 8.04146 18.5563 8.21591 18.4404 8.375C19.3553 9.91785 19.7504 11.5971 19.8066 12.8232C19.8092 12.8782 19.8095 12.9336 19.8115 12.9893C20.128 12.7505 20.4581 12.5291 20.8018 12.3262C21.1602 12.1145 21.4212 11.9936 21.832 11.8682C22.1927 11.7581 22.9112 11.5443 23.5498 11.4854C23.7896 11.4633 24.1339 11.4598 24.4756 11.4775C24.8137 11.4951 25.1775 11.5352 25.4453 11.6113C25.8137 11.7163 26.2151 11.9641 26.5527 12.2422C26.8906 12.5204 27.2034 12.8619 27.373 13.1836C27.4941 13.4133 27.616 13.7985 27.7178 14.2461C27.8213 14.7019 27.9107 15.2488 27.96 15.8174C28.0091 16.3855 28.0183 16.9831 27.959 17.5371C27.9001 18.0868 27.7706 18.6177 27.5254 19.0361C26.7452 20.3666 25.5575 20.8042 24.8779 20.9609C24.0676 21.1477 23.462 21.1972 22.877 21.2881C22.3565 21.369 21.8083 21.4868 21.0518 21.7715C20.924 21.8196 20.7903 21.8733 20.6494 21.9316C20.5189 21.9857 20.3926 22.0279 20.2861 22.0645C20.1751 22.1026 20.0876 22.1331 20.0137 22.167L20.0059 22.1709L19.9971 22.1738C19.6741 22.3008 19.3599 22.5217 19.1104 22.7148C19.0195 22.7852 18.8652 22.9631 18.7168 23.1533C18.6731 23.2093 18.6323 23.2631 18.5967 23.3105C18.468 23.8929 18.3404 24.4953 18.2256 25.1055C18.2224 25.1222 18.2198 25.1389 18.2168 25.1553C18.1607 25.4956 18.1219 25.7608 18.0859 25.999C18.0583 26.2339 18.0475 26.3946 18.0332 26.5332C18.0186 26.6745 17.9992 26.8023 17.9512 26.9521C17.9046 27.0974 17.8345 27.2536 17.7295 27.458C17.5053 27.8943 17.2651 28.1531 16.8887 28.2656C16.7195 28.3162 16.5381 28.3325 16.3525 28.3398C16.1808 28.3466 15.9358 28.3476 15.707 28.3545C14.9832 28.3763 14.5459 27.7963 14.3154 27.3555C14.2041 27.1425 14.1243 26.931 14.0703 26.7656C14.0017 26.7833 13.9222 26.8037 13.8291 26.8223C13.3977 26.908 12.6717 26.999 11.4697 27.0352C10.8052 27.0551 10.0168 27.0061 9.40137 26.9531C9.09243 26.9265 8.82393 26.8991 8.63281 26.8779C8.62696 26.8773 8.62094 26.8766 8.61523 26.876C8.57277 27.0382 8.50499 27.2532 8.39844 27.4717C8.18162 27.916 7.76215 28.46 7.01562 28.4824C6.93699 28.4848 6.86119 28.4849 6.78809 28.4844C6.28799 28.4837 5.9161 28.412 5.63184 28.1621C5.47722 28.0261 5.36889 27.8547 5.27637 27.6699C5.25765 27.6325 5.24125 27.5924 5.22266 27.5518C5.14927 27.3963 5.0742 27.2208 4.99609 27.0293L4.99414 27.0234C4.71526 26.3398 4.25216 24.9477 4.03809 24.3105C3.62326 23.0758 2.7312 20.1619 2.44141 18.4326C2.09621 16.3722 1.81663 14.07 2.14844 11.9541C2.22579 11.461 2.43571 10.282 3.06641 8.99512C2.92688 8.8324 2.80099 8.64902 2.70508 8.44434C2.57906 8.17522 2.36264 7.70104 2.32715 7.11621C2.29109 6.52031 2.44272 5.82797 3.00977 5.12598C3.5704 4.43211 4.19549 4.104 4.79297 3.98633C5.38224 3.87044 5.92204 3.96344 6.31445 4.07031C6.82901 4.21056 7.3249 4.54271 7.67578 4.81934C7.6953 4.83472 7.71363 4.85105 7.73242 4.86621C8.60862 4.57204 9.62008 4.38576 10.7871 4.35059C11.773 4.32093 12.6621 4.41903 13.4619 4.61719C13.4925 4.58891 13.5238 4.55953 13.5566 4.53027C13.8903 4.23305 14.3649 3.87112 14.8701 3.7002Z" fill="#745CC1"/>
</svg>
