<svg width="224" height="58" viewBox="0 0 224 58" fill="none" xmlns="http://www.w3.org/2000/svg">
<mask id="path-1-outside-1_386_921" maskUnits="userSpaceOnUse" x="0" y="0" width="224" height="58" fill="black">
<rect fill="white" width="224" height="58"/>
<path d="M4.64653 41.288C1.86253 39.752 0.974528 37.472 1.98253 34.448L11.9185 11.48C13.4065 8.216 15.5905 5.648 18.4705 3.776C21.3985 1.856 24.6145 0.895997 28.1185 0.895997C31.6705 0.895997 34.8865 1.856 37.7665 3.776C40.6945 5.648 42.8785 8.216 44.3185 11.48L54.3265 34.448C55.3345 37.472 54.4465 39.752 51.6625 41.288C50.9905 41.576 50.2945 41.72 49.5745 41.72C47.5585 41.72 45.9745 40.688 44.8225 38.624L34.8145 15.656C33.2785 12.728 31.0465 11.264 28.1185 11.264C25.2385 11.264 23.0305 12.728 21.4945 15.656L11.4865 38.624C9.95053 41.408 7.67053 42.296 4.64653 41.288ZM51.2305 47.912C52.5265 47.912 53.6305 48.368 54.5425 49.28C55.4545 50.192 55.9105 51.272 55.9105 52.52C55.9105 53.816 55.4545 54.92 54.5425 55.832C53.6305 56.744 52.5265 57.2 51.2305 57.2H5.07853C3.78253 57.2 2.67853 56.744 1.76653 55.832C0.854528 54.92 0.398528 53.816 0.398528 52.52C0.398528 51.272 0.854528 50.192 1.76653 49.28C2.67853 48.368 3.78253 47.912 5.07853 47.912H51.2305ZM62.3292 57.2C61.0332 57.2 59.9292 56.744 59.0172 55.832C58.1052 54.92 57.6492 53.816 57.6492 52.52C57.6492 51.272 58.1052 50.192 59.0172 49.28C59.9292 48.368 61.0332 47.912 62.3292 47.912H80.1852V41.072H65.2092C63.9132 41.072 62.7852 40.616 61.8252 39.704C60.9132 38.744 60.4572 37.592 60.4572 36.248V27.248C60.4572 23.6 61.7292 20.48 64.2732 17.888C66.8652 15.296 69.9852 14 73.6332 14H105.745C107.041 14 108.145 14.456 109.057 15.368C109.969 16.28 110.425 17.384 110.425 18.68C110.425 19.976 109.969 21.08 109.057 21.992C108.145 22.856 107.041 23.288 105.745 23.288H75.6492C74.3052 23.288 73.1532 23.768 72.1932 24.728C71.2812 25.64 70.8252 26.768 70.8252 28.112V31.784H105.745C107.041 31.784 108.145 32.24 109.057 33.152C109.969 34.064 110.425 35.144 110.425 36.392C110.425 37.688 109.969 38.792 109.057 39.704C108.145 40.616 107.041 41.072 105.745 41.072H90.6252V47.912H108.481C109.777 47.912 110.881 48.368 111.793 49.28C112.705 50.192 113.161 51.272 113.161 52.52C113.161 53.816 112.705 54.92 111.793 55.832C110.881 56.744 109.777 57.2 108.481 57.2H62.3292ZM64.6332 2.048H105.817C107.065 2.048 108.145 2.504 109.057 3.416C109.969 4.328 110.425 5.408 110.425 6.656C110.425 7.904 109.969 8.984 109.057 9.896C108.145 10.808 107.065 11.264 105.817 11.264H64.6332C63.3372 11.264 62.2332 10.808 61.3212 9.896C60.4572 8.984 60.0252 7.904 60.0252 6.656C60.0252 5.408 60.4572 4.328 61.3212 3.416C62.2332 2.504 63.3372 2.048 64.6332 2.048ZM135.08 1.976C139.928 1.976 144.08 3.704 147.536 7.16C150.992 10.616 152.72 14.768 152.72 19.616V22.28C153.392 21.944 154.112 21.776 154.88 21.776H157.904V6.08C157.904 4.64 158.408 3.416 159.416 2.408C160.424 1.4 161.648 0.895997 163.088 0.895997C164.528 0.895997 165.752 1.4 166.76 2.408C167.816 3.416 168.344 4.64 168.344 6.08V52.016C168.344 53.456 167.816 54.68 166.76 55.688C165.752 56.696 164.528 57.2 163.088 57.2C161.648 57.2 160.424 56.696 159.416 55.688C158.408 54.68 157.904 53.456 157.904 52.016V31.064H154.88C154.112 31.064 153.392 30.872 152.72 30.488V38.624C152.72 43.472 150.992 47.624 147.536 51.08C144.08 54.536 139.928 56.264 135.08 56.264H133.28C128.384 56.264 124.208 54.536 120.752 51.08C117.344 47.624 115.64 43.472 115.64 38.624V19.616C115.64 14.768 117.344 10.616 120.752 7.16C124.208 3.704 128.384 1.976 133.28 1.976H135.08ZM142.28 38.84V19.4C142.28 17.192 141.488 15.296 139.904 13.712C138.32 12.128 136.4 11.336 134.144 11.336C131.936 11.336 130.04 12.128 128.456 13.712C126.872 15.296 126.08 17.192 126.08 19.4V38.84C126.08 41.096 126.872 43.016 128.456 44.6C130.04 46.184 131.936 46.976 134.144 46.976C136.4 46.976 138.32 46.184 139.904 44.6C141.488 43.016 142.28 41.096 142.28 38.84ZM217.776 0.751999C219.216 0.751999 220.44 1.28 221.448 2.336C222.456 3.344 222.96 4.568 222.96 6.008V52.016C222.96 53.456 222.456 54.68 221.448 55.688C220.44 56.696 219.216 57.2 217.776 57.2C216.336 57.2 215.112 56.696 214.104 55.688C213.096 54.68 212.592 53.456 212.592 52.016V6.008C212.592 4.568 213.096 3.344 214.104 2.336C215.112 1.28 216.336 0.751999 217.776 0.751999ZM204.6 46.832C205.896 46.832 207 47.288 207.912 48.2C208.824 49.112 209.28 50.216 209.28 51.512C209.28 52.808 208.824 53.912 207.912 54.824C207 55.736 205.896 56.192 204.6 56.192H176.448C175.104 56.192 173.952 55.712 172.992 54.752C172.08 53.792 171.624 52.664 171.624 51.368V29.192C171.624 27.848 172.08 26.72 172.992 25.808C173.952 24.848 175.104 24.368 176.448 24.368H198.192V16.016C198.192 14.672 197.712 13.544 196.752 12.632C195.84 11.672 194.712 11.192 193.368 11.192H176.304C175.008 11.192 173.904 10.736 172.992 9.824C172.08 8.912 171.624 7.832 171.624 6.584C171.624 5.288 172.08 4.184 172.992 3.272C173.904 2.36 175.008 1.904 176.304 1.904H195.384C199.032 1.904 202.152 3.2 204.744 5.792C207.336 8.384 208.632 11.504 208.632 15.152V28.904C208.632 30.2 208.152 31.328 207.192 32.288C206.232 33.2 205.104 33.656 203.808 33.656H182.064V46.832H204.6Z"/>
</mask>
<path d="M4.64653 41.288C1.86253 39.752 0.974528 37.472 1.98253 34.448L11.9185 11.48C13.4065 8.216 15.5905 5.648 18.4705 3.776C21.3985 1.856 24.6145 0.895997 28.1185 0.895997C31.6705 0.895997 34.8865 1.856 37.7665 3.776C40.6945 5.648 42.8785 8.216 44.3185 11.48L54.3265 34.448C55.3345 37.472 54.4465 39.752 51.6625 41.288C50.9905 41.576 50.2945 41.72 49.5745 41.72C47.5585 41.72 45.9745 40.688 44.8225 38.624L34.8145 15.656C33.2785 12.728 31.0465 11.264 28.1185 11.264C25.2385 11.264 23.0305 12.728 21.4945 15.656L11.4865 38.624C9.95053 41.408 7.67053 42.296 4.64653 41.288ZM51.2305 47.912C52.5265 47.912 53.6305 48.368 54.5425 49.28C55.4545 50.192 55.9105 51.272 55.9105 52.52C55.9105 53.816 55.4545 54.92 54.5425 55.832C53.6305 56.744 52.5265 57.2 51.2305 57.2H5.07853C3.78253 57.2 2.67853 56.744 1.76653 55.832C0.854528 54.92 0.398528 53.816 0.398528 52.52C0.398528 51.272 0.854528 50.192 1.76653 49.28C2.67853 48.368 3.78253 47.912 5.07853 47.912H51.2305ZM62.3292 57.2C61.0332 57.2 59.9292 56.744 59.0172 55.832C58.1052 54.92 57.6492 53.816 57.6492 52.52C57.6492 51.272 58.1052 50.192 59.0172 49.28C59.9292 48.368 61.0332 47.912 62.3292 47.912H80.1852V41.072H65.2092C63.9132 41.072 62.7852 40.616 61.8252 39.704C60.9132 38.744 60.4572 37.592 60.4572 36.248V27.248C60.4572 23.6 61.7292 20.48 64.2732 17.888C66.8652 15.296 69.9852 14 73.6332 14H105.745C107.041 14 108.145 14.456 109.057 15.368C109.969 16.28 110.425 17.384 110.425 18.68C110.425 19.976 109.969 21.08 109.057 21.992C108.145 22.856 107.041 23.288 105.745 23.288H75.6492C74.3052 23.288 73.1532 23.768 72.1932 24.728C71.2812 25.64 70.8252 26.768 70.8252 28.112V31.784H105.745C107.041 31.784 108.145 32.24 109.057 33.152C109.969 34.064 110.425 35.144 110.425 36.392C110.425 37.688 109.969 38.792 109.057 39.704C108.145 40.616 107.041 41.072 105.745 41.072H90.6252V47.912H108.481C109.777 47.912 110.881 48.368 111.793 49.28C112.705 50.192 113.161 51.272 113.161 52.52C113.161 53.816 112.705 54.92 111.793 55.832C110.881 56.744 109.777 57.2 108.481 57.2H62.3292ZM64.6332 2.048H105.817C107.065 2.048 108.145 2.504 109.057 3.416C109.969 4.328 110.425 5.408 110.425 6.656C110.425 7.904 109.969 8.984 109.057 9.896C108.145 10.808 107.065 11.264 105.817 11.264H64.6332C63.3372 11.264 62.2332 10.808 61.3212 9.896C60.4572 8.984 60.0252 7.904 60.0252 6.656C60.0252 5.408 60.4572 4.328 61.3212 3.416C62.2332 2.504 63.3372 2.048 64.6332 2.048ZM135.08 1.976C139.928 1.976 144.08 3.704 147.536 7.16C150.992 10.616 152.72 14.768 152.72 19.616V22.28C153.392 21.944 154.112 21.776 154.88 21.776H157.904V6.08C157.904 4.64 158.408 3.416 159.416 2.408C160.424 1.4 161.648 0.895997 163.088 0.895997C164.528 0.895997 165.752 1.4 166.76 2.408C167.816 3.416 168.344 4.64 168.344 6.08V52.016C168.344 53.456 167.816 54.68 166.76 55.688C165.752 56.696 164.528 57.2 163.088 57.2C161.648 57.2 160.424 56.696 159.416 55.688C158.408 54.68 157.904 53.456 157.904 52.016V31.064H154.88C154.112 31.064 153.392 30.872 152.72 30.488V38.624C152.72 43.472 150.992 47.624 147.536 51.08C144.08 54.536 139.928 56.264 135.08 56.264H133.28C128.384 56.264 124.208 54.536 120.752 51.08C117.344 47.624 115.64 43.472 115.64 38.624V19.616C115.64 14.768 117.344 10.616 120.752 7.16C124.208 3.704 128.384 1.976 133.28 1.976H135.08ZM142.28 38.84V19.4C142.28 17.192 141.488 15.296 139.904 13.712C138.32 12.128 136.4 11.336 134.144 11.336C131.936 11.336 130.04 12.128 128.456 13.712C126.872 15.296 126.08 17.192 126.08 19.4V38.84C126.08 41.096 126.872 43.016 128.456 44.6C130.04 46.184 131.936 46.976 134.144 46.976C136.4 46.976 138.32 46.184 139.904 44.6C141.488 43.016 142.28 41.096 142.28 38.84ZM217.776 0.751999C219.216 0.751999 220.44 1.28 221.448 2.336C222.456 3.344 222.96 4.568 222.96 6.008V52.016C222.96 53.456 222.456 54.68 221.448 55.688C220.44 56.696 219.216 57.2 217.776 57.2C216.336 57.2 215.112 56.696 214.104 55.688C213.096 54.68 212.592 53.456 212.592 52.016V6.008C212.592 4.568 213.096 3.344 214.104 2.336C215.112 1.28 216.336 0.751999 217.776 0.751999ZM204.6 46.832C205.896 46.832 207 47.288 207.912 48.2C208.824 49.112 209.28 50.216 209.28 51.512C209.28 52.808 208.824 53.912 207.912 54.824C207 55.736 205.896 56.192 204.6 56.192H176.448C175.104 56.192 173.952 55.712 172.992 54.752C172.08 53.792 171.624 52.664 171.624 51.368V29.192C171.624 27.848 172.08 26.72 172.992 25.808C173.952 24.848 175.104 24.368 176.448 24.368H198.192V16.016C198.192 14.672 197.712 13.544 196.752 12.632C195.84 11.672 194.712 11.192 193.368 11.192H176.304C175.008 11.192 173.904 10.736 172.992 9.824C172.08 8.912 171.624 7.832 171.624 6.584C171.624 5.288 172.08 4.184 172.992 3.272C173.904 2.36 175.008 1.904 176.304 1.904H195.384C199.032 1.904 202.152 3.2 204.744 5.792C207.336 8.384 208.632 11.504 208.632 15.152V28.904C208.632 30.2 208.152 31.328 207.192 32.288C206.232 33.2 205.104 33.656 203.808 33.656H182.064V46.832H204.6Z" fill="#664BBF"/>
<path d="M4.64653 41.288L4.54991 41.4631L4.56593 41.472L4.58328 41.4777L4.64653 41.288ZM1.98253 34.448L1.79897 34.3686L1.79553 34.3765L1.79279 34.3848L1.98253 34.448ZM11.9185 11.48L11.7365 11.397L11.735 11.4006L11.9185 11.48ZM18.4705 3.776L18.5795 3.94369L18.5802 3.94325L18.4705 3.776ZM37.7665 3.776L37.6556 3.94244L37.6588 3.9445L37.7665 3.776ZM44.3185 11.48L44.5019 11.4001L44.5015 11.3993L44.3185 11.48ZM54.3265 34.448L54.5163 34.3848L54.5134 34.3763L54.5099 34.3681L54.3265 34.448ZM51.6625 41.288L51.7413 41.4718L51.7504 41.4679L51.7591 41.4631L51.6625 41.288ZM44.8225 38.624L44.6392 38.7039L44.6431 38.7129L44.6479 38.7215L44.8225 38.624ZM34.8145 15.656L34.9979 15.5761L34.995 15.5695L34.9916 15.5631L34.8145 15.656ZM21.4945 15.656L21.3174 15.5631L21.3141 15.5695L21.3112 15.5761L21.4945 15.656ZM11.4865 38.624L11.6616 38.7206L11.6662 38.7124L11.6699 38.7039L11.4865 38.624ZM54.5425 49.28L54.684 49.1386L54.5425 49.28ZM54.5425 55.832L54.4011 55.6906L54.5425 55.832ZM1.76653 55.832L1.90795 55.6906L1.76653 55.832ZM1.76653 49.28L1.90795 49.4214L1.76653 49.28ZM4.64653 41.288L4.74314 41.1129C3.37967 40.3606 2.50136 39.4381 2.07889 38.3534C1.65639 37.2686 1.67849 35.9926 2.17227 34.5112L1.98253 34.448L1.79279 34.3848C1.27856 35.9274 1.24066 37.3034 1.70616 38.4986C2.17169 39.6939 3.12939 40.6794 4.54991 41.4631L4.64653 41.288ZM1.98253 34.448L2.16609 34.5274L12.1021 11.5594L11.9185 11.48L11.735 11.4006L1.79897 34.3686L1.98253 34.448ZM11.9185 11.48L12.1005 11.563C13.5735 8.33195 15.7329 5.79401 18.5795 3.94369L18.4705 3.776L18.3615 3.60831C15.4482 5.50198 13.2396 8.10004 11.7365 11.397L11.9185 11.48ZM18.4705 3.776L18.5802 3.94325C21.4756 2.04463 24.6535 1.096 28.1185 1.096V0.895997V0.695997C24.5756 0.695997 21.3215 1.66736 18.3609 3.60875L18.4705 3.776ZM28.1185 0.895997V1.096C31.6321 1.096 34.8093 2.04491 37.6556 3.94241L37.7665 3.776L37.8775 3.60959C34.9637 1.66708 31.7089 0.695997 28.1185 0.695997V0.895997ZM37.7665 3.776L37.6588 3.9445C40.5527 5.7947 42.711 8.33174 44.1355 11.5607L44.3185 11.48L44.5015 11.3993C43.0461 8.10026 40.8364 5.5013 37.8743 3.60749L37.7665 3.776ZM44.3185 11.48L44.1352 11.5599L54.1432 34.5279L54.3265 34.448L54.5099 34.3681L44.5019 11.4001L44.3185 11.48ZM54.3265 34.448L54.1368 34.5112C54.6306 35.9926 54.6527 37.2686 54.2302 38.3534C53.8077 39.4381 52.9294 40.3606 51.5659 41.1129L51.6625 41.288L51.7591 41.4631C53.1797 40.6794 54.1374 39.6939 54.6029 38.4986C55.0684 37.3034 55.0305 35.9274 54.5163 34.3848L54.3265 34.448ZM51.6625 41.288L51.5837 41.1042C50.9362 41.3817 50.267 41.52 49.5745 41.52V41.72V41.92C50.322 41.92 51.0448 41.7703 51.7413 41.4718L51.6625 41.288ZM49.5745 41.72V41.52C47.6448 41.52 46.1211 40.5403 44.9972 38.5265L44.8225 38.624L44.6479 38.7215C45.8279 40.8357 47.4722 41.92 49.5745 41.92V41.72ZM44.8225 38.624L45.0059 38.5441L34.9979 15.5761L34.8145 15.656L34.6312 15.7359L44.6392 38.7039L44.8225 38.624ZM34.8145 15.656L34.9916 15.5631C34.2116 14.0761 33.2487 12.9494 32.0982 12.1948C30.9465 11.4393 29.6176 11.064 28.1185 11.064V11.264V11.464C29.5475 11.464 30.7986 11.8207 31.8788 12.5292C32.9604 13.2386 33.8815 14.3079 34.6374 15.7489L34.8145 15.656ZM28.1185 11.264V11.064C26.6428 11.064 25.3316 11.4397 24.192 12.1953C23.0538 12.95 22.0972 14.0766 21.3174 15.5631L21.4945 15.656L21.6716 15.7489C22.4278 14.3074 23.3432 13.238 24.4131 12.5287C25.4814 11.8203 26.7143 11.464 28.1185 11.464V11.264ZM21.4945 15.656L21.3112 15.5761L11.3032 38.5441L11.4865 38.624L11.6699 38.7039L21.6779 15.7359L21.4945 15.656ZM11.4865 38.624L11.3114 38.5274C10.5592 39.8909 9.63667 40.7692 8.55194 41.1916C7.46715 41.6141 6.19109 41.592 4.70977 41.0983L4.64653 41.288L4.58328 41.4777C6.12597 41.992 7.50191 42.0299 8.69711 41.5644C9.89239 41.0988 10.8779 40.1411 11.6616 38.7206L11.4865 38.624ZM51.2305 47.912V48.112C52.4738 48.112 53.5268 48.5471 54.4011 49.4214L54.5425 49.28L54.684 49.1386C53.7342 48.1889 52.5793 47.712 51.2305 47.712V47.912ZM54.5425 49.28L54.4011 49.4214C55.277 50.2973 55.7105 51.327 55.7105 52.52H55.9105H56.1105C56.1105 51.217 55.6321 50.0867 54.684 49.1386L54.5425 49.28ZM55.9105 52.52H55.7105C55.7105 53.7632 55.2754 54.8163 54.4011 55.6906L54.5425 55.832L54.684 55.9734C55.6337 55.0237 56.1105 53.8688 56.1105 52.52H55.9105ZM54.5425 55.832L54.4011 55.6906C53.5268 56.5649 52.4738 57 51.2305 57V57.2V57.4C52.5793 57.4 53.7342 56.9231 54.684 55.9734L54.5425 55.832ZM51.2305 57.2V57H5.07853V57.2V57.4H51.2305V57.2ZM5.07853 57.2V57C3.83528 57 2.78224 56.5649 1.90795 55.6906L1.76653 55.832L1.62511 55.9734C2.57482 56.9231 3.72977 57.4 5.07853 57.4V57.2ZM1.76653 55.832L1.90795 55.6906C1.03366 54.8163 0.598528 53.7632 0.598528 52.52H0.398528H0.198528C0.198528 53.8688 0.675396 55.0237 1.62511 55.9734L1.76653 55.832ZM0.398528 52.52H0.598528C0.598528 51.327 1.03205 50.2973 1.90795 49.4214L1.76653 49.28L1.62511 49.1386C0.677002 50.0867 0.198528 51.217 0.198528 52.52H0.398528ZM1.76653 49.28L1.90795 49.4214C2.78224 48.5471 3.83528 48.112 5.07853 48.112V47.912V47.712C3.72977 47.712 2.57482 48.1889 1.62511 49.1386L1.76653 49.28ZM5.07853 47.912V48.112H51.2305V47.912V47.712H5.07853V47.912ZM59.0172 55.832L59.1586 55.6906L59.0172 55.832ZM59.0172 49.28L59.1586 49.4214L59.0172 49.28ZM80.1852 47.912V48.112H80.3852V47.912H80.1852ZM80.1852 41.072H80.3852V40.872H80.1852V41.072ZM61.8252 39.704L61.68 39.8419L61.6875 39.849L61.8252 39.704ZM64.2732 17.888L64.1318 17.7466L64.1305 17.7479L64.2732 17.888ZM109.057 15.368L109.199 15.2266L109.057 15.368ZM109.057 21.992L109.195 22.1372L109.199 22.1334L109.057 21.992ZM72.1932 24.728L72.3346 24.8694L72.1932 24.728ZM70.8252 31.784H70.6252V31.984H70.8252V31.784ZM109.057 39.704L108.916 39.5626L109.057 39.704ZM90.6252 41.072V40.872H90.4252V41.072H90.6252ZM90.6252 47.912H90.4252V48.112H90.6252V47.912ZM111.793 49.28L111.652 49.4214L111.793 49.28ZM111.793 55.832L111.652 55.6906L111.793 55.832ZM61.3212 9.896L61.176 10.0336L61.1798 10.0374L61.3212 9.896ZM61.3212 3.416L61.1797 3.27453L61.176 3.27845L61.3212 3.416ZM62.3292 57.2V57C61.086 57 60.0329 56.5649 59.1586 55.6906L59.0172 55.832L58.8758 55.9734C59.8255 56.9231 60.9805 57.4 62.3292 57.4V57.2ZM59.0172 55.832L59.1586 55.6906C58.2843 54.8163 57.8492 53.7632 57.8492 52.52H57.6492H57.4492C57.4492 53.8688 57.9261 55.0237 58.8758 55.9734L59.0172 55.832ZM57.6492 52.52H57.8492C57.8492 51.327 58.2827 50.2973 59.1586 49.4214L59.0172 49.28L58.8758 49.1386C57.9277 50.0867 57.4492 51.217 57.4492 52.52H57.6492ZM59.0172 49.28L59.1586 49.4214C60.0329 48.5471 61.086 48.112 62.3292 48.112V47.912V47.712C60.9805 47.712 59.8255 48.1889 58.8758 49.1386L59.0172 49.28ZM62.3292 47.912V48.112H80.1852V47.912V47.712H62.3292V47.912ZM80.1852 47.912H80.3852V41.072H80.1852H79.9852V47.912H80.1852ZM80.1852 41.072V40.872H65.2092V41.072V41.272H80.1852V41.072ZM65.2092 41.072V40.872C63.9657 40.872 62.8867 40.4365 61.963 39.559L61.8252 39.704L61.6875 39.849C62.6837 40.7955 63.8607 41.272 65.2092 41.272V41.072ZM61.8252 39.704L61.9702 39.5662C61.0941 38.644 60.6572 37.5416 60.6572 36.248H60.4572H60.2572C60.2572 37.6424 60.7323 38.844 61.6802 39.8418L61.8252 39.704ZM60.4572 36.248H60.6572V27.248H60.4572H60.2572V36.248H60.4572ZM60.4572 27.248H60.6572C60.6572 23.6521 61.9088 20.5825 64.416 18.0281L64.2732 17.888L64.1305 17.7479C61.5496 20.3775 60.2572 23.5479 60.2572 27.248H60.4572ZM64.2732 17.888L64.4146 18.0294C66.9693 15.4747 70.0386 14.2 73.6332 14.2V14V13.8C69.9319 13.8 66.7611 15.1173 64.1318 17.7466L64.2732 17.888ZM73.6332 14V14.2H105.745V14V13.8H73.6332V14ZM105.745 14V14.2C106.988 14.2 108.042 14.6351 108.916 15.5094L109.057 15.368L109.199 15.2266C108.249 14.2769 107.094 13.8 105.745 13.8V14ZM109.057 15.368L108.916 15.5094C109.79 16.3837 110.225 17.4368 110.225 18.68H110.425H110.625C110.625 17.3312 110.148 16.1763 109.199 15.2266L109.057 15.368ZM110.425 18.68H110.225C110.225 19.9232 109.79 20.9763 108.916 21.8506L109.057 21.992L109.199 22.1334C110.148 21.1837 110.625 20.0288 110.625 18.68H110.425ZM109.057 21.992L108.92 21.8468C108.046 22.6744 106.992 23.088 105.745 23.088V23.288V23.488C107.091 23.488 108.244 23.0376 109.195 22.1372L109.057 21.992ZM105.745 23.288V23.088H75.6492V23.288V23.488H105.745V23.288ZM75.6492 23.288V23.088C74.2516 23.088 73.0489 23.5895 72.0518 24.5866L72.1932 24.728L72.3346 24.8694C73.2576 23.9465 74.3589 23.488 75.6492 23.488V23.288ZM72.1932 24.728L72.0518 24.5866C71.1006 25.5378 70.6252 26.7174 70.6252 28.112H70.8252H71.0252C71.0252 26.8186 71.4619 25.7422 72.3346 24.8694L72.1932 24.728ZM70.8252 28.112H70.6252V31.784H70.8252H71.0252V28.112H70.8252ZM70.8252 31.784V31.984H105.745V31.784V31.584H70.8252V31.784ZM105.745 31.784V31.984C106.988 31.984 108.042 32.4191 108.916 33.2934L109.057 33.152L109.199 33.0106C108.249 32.0609 107.094 31.584 105.745 31.584V31.784ZM109.057 33.152L108.916 33.2934C109.792 34.1693 110.225 35.199 110.225 36.392H110.425H110.625C110.625 35.089 110.147 33.9587 109.199 33.0106L109.057 33.152ZM110.425 36.392H110.225C110.225 37.6352 109.79 38.6883 108.916 39.5626L109.057 39.704L109.199 39.8454C110.148 38.8957 110.625 37.7408 110.625 36.392H110.425ZM109.057 39.704L108.916 39.5626C108.042 40.4369 106.988 40.872 105.745 40.872V41.072V41.272C107.094 41.272 108.249 40.7951 109.199 39.8454L109.057 39.704ZM105.745 41.072V40.872H90.6252V41.072V41.272H105.745V41.072ZM90.6252 41.072H90.4252V47.912H90.6252H90.8252V41.072H90.6252ZM90.6252 47.912V48.112H108.481V47.912V47.712H90.6252V47.912ZM108.481 47.912V48.112C109.724 48.112 110.778 48.5471 111.652 49.4214L111.793 49.28L111.935 49.1386C110.985 48.1889 109.83 47.712 108.481 47.712V47.912ZM111.793 49.28L111.652 49.4214C112.528 50.2973 112.961 51.327 112.961 52.52H113.161H113.361C113.361 51.217 112.883 50.0867 111.935 49.1386L111.793 49.28ZM113.161 52.52H112.961C112.961 53.7632 112.526 54.8163 111.652 55.6906L111.793 55.832L111.935 55.9734C112.884 55.0237 113.361 53.8688 113.361 52.52H113.161ZM111.793 55.832L111.652 55.6906C110.778 56.5649 109.724 57 108.481 57V57.2V57.4C109.83 57.4 110.985 56.9231 111.935 55.9734L111.793 55.832ZM108.481 57.2V57H62.3292V57.2V57.4H108.481V57.2ZM64.6332 2.048V2.248H105.817V2.048V1.848H64.6332V2.048ZM105.817 2.048V2.248C107.01 2.248 108.04 2.68153 108.916 3.55742L109.057 3.416L109.199 3.27458C108.251 2.32647 107.12 1.848 105.817 1.848V2.048ZM109.057 3.416L108.916 3.55742C109.792 4.43332 110.225 5.46299 110.225 6.656H110.425H110.625C110.625 5.353 110.147 4.22268 109.199 3.27458L109.057 3.416ZM110.425 6.656H110.225C110.225 7.849 109.792 8.87868 108.916 9.75458L109.057 9.896L109.199 10.0374C110.147 9.08931 110.625 7.95899 110.625 6.656H110.425ZM109.057 9.896L108.916 9.75458C108.04 10.6305 107.01 11.064 105.817 11.064V11.264V11.464C107.12 11.464 108.251 10.9855 109.199 10.0374L109.057 9.896ZM105.817 11.264V11.064H64.6332V11.264V11.464H105.817V11.264ZM64.6332 11.264V11.064C63.39 11.064 62.3369 10.6289 61.4626 9.75458L61.3212 9.896L61.1798 10.0374C62.1295 10.9871 63.2845 11.464 64.6332 11.464V11.264ZM61.3212 9.896L61.4664 9.75845C60.6373 8.88332 60.2252 7.85245 60.2252 6.656H60.0252H59.8252C59.8252 7.95555 60.2771 9.08467 61.176 10.0335L61.3212 9.896ZM60.0252 6.656H60.2252C60.2252 5.45955 60.6373 4.42867 61.4664 3.55355L61.3212 3.416L61.176 3.27845C60.2771 4.22732 59.8252 5.35645 59.8252 6.656H60.0252ZM61.3212 3.416L61.4626 3.55742C62.3369 2.68313 63.39 2.248 64.6332 2.248V2.048V1.848C63.2845 1.848 62.1295 2.32487 61.1798 3.27458L61.3212 3.416ZM152.72 22.28H152.52V22.6036L152.81 22.4589L152.72 22.28ZM157.904 21.776V21.976H158.104V21.776H157.904ZM166.76 2.408L166.619 2.54946L166.622 2.55267L166.76 2.408ZM166.76 55.688L166.622 55.5433L166.619 55.5466L166.76 55.688ZM159.416 55.688L159.275 55.8294L159.416 55.688ZM157.904 31.064H158.104V30.864H157.904V31.064ZM152.72 30.488L152.819 30.3144L152.52 30.1434V30.488H152.72ZM120.752 51.08L120.61 51.2204L120.611 51.2214L120.752 51.08ZM120.752 7.16L120.611 7.01857L120.61 7.01957L120.752 7.16ZM139.904 13.712L139.763 13.8534L139.904 13.712ZM139.904 44.6L139.763 44.4586L139.904 44.6ZM135.08 1.976V2.176C139.875 2.176 143.976 3.88258 147.395 7.30142L147.536 7.16L147.678 7.01858C144.184 3.52541 139.982 1.776 135.08 1.776V1.976ZM147.536 7.16L147.395 7.30142C150.814 10.7203 152.52 14.8215 152.52 19.616H152.72H152.92C152.92 14.7145 151.171 10.5117 147.678 7.01858L147.536 7.16ZM152.72 19.616H152.52V22.28H152.72H152.92V19.616H152.72ZM152.72 22.28L152.81 22.4589C153.453 22.1371 154.142 21.976 154.88 21.976V21.776V21.576C154.082 21.576 153.331 21.7509 152.631 22.1011L152.72 22.28ZM154.88 21.776V21.976H157.904V21.776V21.576H154.88V21.776ZM157.904 21.776H158.104V6.08H157.904H157.704V21.776H157.904ZM157.904 6.08H158.104C158.104 4.69244 158.588 3.51949 159.558 2.54942L159.416 2.408L159.275 2.26658C158.229 3.31251 157.704 4.58756 157.704 6.08H157.904ZM159.416 2.408L159.558 2.54942C160.528 1.57935 161.701 1.096 163.088 1.096V0.895997V0.695997C161.596 0.695997 160.321 1.22064 159.275 2.26658L159.416 2.408ZM163.088 0.895997V1.096C164.476 1.096 165.649 1.57935 166.619 2.54942L166.76 2.408L166.902 2.26658C165.856 1.22064 164.581 0.695997 163.088 0.695997V0.895997ZM166.76 2.408L166.622 2.55267C167.639 3.52352 168.144 4.6955 168.144 6.08H168.344H168.544C168.544 4.58449 167.993 3.30848 166.898 2.26333L166.76 2.408ZM168.344 6.08H168.144V52.016H168.344H168.544V6.08H168.344ZM168.344 52.016H168.144C168.144 53.4005 167.639 54.5725 166.622 55.5433L166.76 55.688L166.898 55.8327C167.993 54.7875 168.544 53.5115 168.544 52.016H168.344ZM166.76 55.688L166.619 55.5466C165.649 56.5166 164.476 57 163.088 57V57.2V57.4C164.581 57.4 165.856 56.8754 166.902 55.8294L166.76 55.688ZM163.088 57.2V57C161.701 57 160.528 56.5166 159.558 55.5466L159.416 55.688L159.275 55.8294C160.321 56.8754 161.596 57.4 163.088 57.4V57.2ZM159.416 55.688L159.558 55.5466C158.588 54.5765 158.104 53.4036 158.104 52.016H157.904H157.704C157.704 53.5084 158.229 54.7835 159.275 55.8294L159.416 55.688ZM157.904 52.016H158.104V31.064H157.904H157.704V52.016H157.904ZM157.904 31.064V30.864H154.88V31.064V31.264H157.904V31.064ZM154.88 31.064V30.864C154.147 30.864 153.461 30.6812 152.819 30.3144L152.72 30.488L152.621 30.6616C153.323 31.0628 154.077 31.264 154.88 31.264V31.064ZM152.72 30.488H152.52V38.624H152.72H152.92V30.488H152.72ZM152.72 38.624H152.52C152.52 43.4185 150.814 47.5197 147.395 50.9386L147.536 51.08L147.678 51.2214C151.171 47.7283 152.92 43.5255 152.92 38.624H152.72ZM147.536 51.08L147.395 50.9386C143.976 54.3574 139.875 56.064 135.08 56.064V56.264V56.464C139.982 56.464 144.184 54.7146 147.678 51.2214L147.536 51.08ZM135.08 56.264V56.064H133.28V56.264V56.464H135.08V56.264ZM133.28 56.264V56.064C128.437 56.064 124.312 54.357 120.894 50.9386L120.752 51.08L120.611 51.2214C124.104 54.715 128.331 56.464 133.28 56.464V56.264ZM120.752 51.08L120.895 50.9396C117.523 47.5209 115.84 43.4194 115.84 38.624H115.64H115.44C115.44 43.5246 117.165 47.7271 120.61 51.2204L120.752 51.08ZM115.64 38.624H115.84V19.616H115.64H115.44V38.624H115.64ZM115.64 19.616H115.84C115.84 14.8206 117.523 10.7191 120.895 7.30043L120.752 7.16L120.61 7.01957C117.165 10.5129 115.44 14.7154 115.44 19.616H115.64ZM120.752 7.16L120.894 7.30142C124.312 3.883 128.437 2.176 133.28 2.176V1.976V1.776C128.331 1.776 124.104 3.52499 120.611 7.01858L120.752 7.16ZM133.28 1.976V2.176H135.08V1.976V1.776H133.28V1.976ZM142.28 38.84H142.48V19.4H142.28H142.08V38.84H142.28ZM142.28 19.4H142.48C142.48 17.1381 141.666 15.1915 140.046 13.5706L139.904 13.712L139.763 13.8534C141.31 15.4005 142.08 17.2459 142.08 19.4H142.28ZM139.904 13.712L140.046 13.5706C138.424 11.9488 136.453 11.136 134.144 11.136V11.336V11.536C136.348 11.536 138.217 12.3072 139.763 13.8534L139.904 13.712ZM134.144 11.336V11.136C131.882 11.136 129.936 11.9497 128.315 13.5706L128.456 13.712L128.598 13.8534C130.145 12.3063 131.99 11.536 134.144 11.536V11.336ZM128.456 13.712L128.315 13.5706C126.694 15.1915 125.88 17.1381 125.88 19.4H126.08H126.28C126.28 17.2459 127.05 15.4005 128.598 13.8534L128.456 13.712ZM126.08 19.4H125.88V38.84H126.08H126.28V19.4H126.08ZM126.08 38.84H125.88C125.88 41.1486 126.693 43.1196 128.315 44.7414L128.456 44.6L128.598 44.4586C127.051 42.9124 126.28 41.0434 126.28 38.84H126.08ZM128.456 44.6L128.315 44.7414C129.936 46.3623 131.882 47.176 134.144 47.176V46.976V46.776C131.99 46.776 130.145 46.0057 128.598 44.4586L128.456 44.6ZM134.144 46.976V47.176C136.453 47.176 138.424 46.3632 140.046 44.7414L139.904 44.6L139.763 44.4586C138.217 46.0048 136.348 46.776 134.144 46.776V46.976ZM139.904 44.6L140.046 44.7414C141.667 43.1196 142.48 41.1486 142.48 38.84H142.28H142.08C142.08 41.0434 141.309 42.9124 139.763 44.4586L139.904 44.6ZM221.448 2.336L221.303 2.47413L221.306 2.47742L221.448 2.336ZM221.448 55.688L221.589 55.8294L221.448 55.688ZM214.104 55.688L214.245 55.5466L214.104 55.688ZM214.104 2.336L214.245 2.47746L214.248 2.47409L214.104 2.336ZM207.912 48.2L207.77 48.3414L207.912 48.2ZM172.992 54.752L172.846 54.8898L172.85 54.8934L172.992 54.752ZM172.992 25.808L172.85 25.6666L172.992 25.808ZM198.192 24.368V24.568H198.392V24.368H198.192ZM196.752 12.632L196.606 12.7699L196.614 12.777L196.752 12.632ZM172.992 9.824L173.133 9.68258L172.992 9.824ZM172.992 3.272L173.133 3.41342L172.992 3.272ZM207.192 32.288L207.329 32.433L207.333 32.4294L207.192 32.288ZM182.064 33.656V33.456H181.864V33.656H182.064ZM182.064 46.832H181.864V47.032H182.064V46.832ZM217.776 0.751999V0.951999C219.16 0.951999 220.332 1.45701 221.303 2.47409L221.448 2.336L221.592 2.1979C220.547 1.10298 219.271 0.551999 217.776 0.551999V0.751999ZM221.448 2.336L221.306 2.47742C222.276 3.44748 222.76 4.62044 222.76 6.008H222.96H223.16C223.16 4.51556 222.635 3.24051 221.589 2.19457L221.448 2.336ZM222.96 6.008H222.76V52.016H222.96H223.16V6.008H222.96ZM222.96 52.016H222.76C222.76 53.4036 222.276 54.5765 221.306 55.5466L221.448 55.688L221.589 55.8294C222.635 54.7835 223.16 53.5084 223.16 52.016H222.96ZM221.448 55.688L221.306 55.5466C220.336 56.5166 219.163 57 217.776 57V57.2V57.4C219.268 57.4 220.543 56.8754 221.589 55.8294L221.448 55.688ZM217.776 57.2V57C216.388 57 215.215 56.5166 214.245 55.5466L214.104 55.688L213.962 55.8294C215.008 56.8754 216.283 57.4 217.776 57.4V57.2ZM214.104 55.688L214.245 55.5466C213.275 54.5765 212.792 53.4036 212.792 52.016H212.592H212.392C212.392 53.5084 212.916 54.7835 213.962 55.8294L214.104 55.688ZM212.592 52.016H212.792V6.008H212.592H212.392V52.016H212.592ZM212.592 6.008H212.792C212.792 4.62044 213.275 3.44748 214.245 2.47742L214.104 2.336L213.962 2.19457C212.916 3.24051 212.392 4.51556 212.392 6.008H212.592ZM214.104 2.336L214.248 2.47409C215.219 1.45701 216.391 0.951999 217.776 0.951999V0.751999V0.551999C216.28 0.551999 215.004 1.10298 213.959 2.1979L214.104 2.336ZM204.6 46.832V47.032C205.843 47.032 206.896 47.4671 207.77 48.3414L207.912 48.2L208.053 48.0586C207.103 47.1089 205.948 46.632 204.6 46.632V46.832ZM207.912 48.2L207.77 48.3414C208.644 49.2157 209.08 50.2688 209.08 51.512H209.28H209.48C209.48 50.1632 209.003 49.0083 208.053 48.0586L207.912 48.2ZM209.28 51.512H209.08C209.08 52.7552 208.644 53.8083 207.77 54.6826L207.912 54.824L208.053 54.9654C209.003 54.0157 209.48 52.8608 209.48 51.512H209.28ZM207.912 54.824L207.77 54.6826C206.896 55.5569 205.843 55.992 204.6 55.992V56.192V56.392C205.948 56.392 207.103 55.9151 208.053 54.9654L207.912 54.824ZM204.6 56.192V55.992H176.448V56.192V56.392H204.6V56.192ZM176.448 56.192V55.992C175.157 55.992 174.056 55.5335 173.133 54.6106L172.992 54.752L172.85 54.8934C173.847 55.8905 175.05 56.392 176.448 56.392V56.192ZM172.992 54.752L173.137 54.6143C172.259 53.6905 171.824 52.6115 171.824 51.368H171.624H171.424C171.424 52.7165 171.9 53.8935 172.847 54.8898L172.992 54.752ZM171.624 51.368H171.824V29.192H171.624H171.424V51.368H171.624ZM171.624 29.192H171.824C171.824 27.8986 172.26 26.8222 173.133 25.9494L172.992 25.808L172.85 25.6666C171.899 26.6178 171.424 27.7974 171.424 29.192H171.624ZM172.992 25.808L173.133 25.9494C174.056 25.0265 175.157 24.568 176.448 24.568V24.368V24.168C175.05 24.168 173.847 24.6695 172.85 25.6666L172.992 25.808ZM176.448 24.368V24.568H198.192V24.368V24.168H176.448V24.368ZM198.192 24.368H198.392V16.016H198.192H197.992V24.368H198.192ZM198.192 16.016H198.392C198.392 14.6181 197.89 13.4374 196.889 12.487L196.752 12.632L196.614 12.777C197.533 13.6506 197.992 14.7259 197.992 16.016H198.192ZM196.752 12.632L196.897 12.4942C195.946 11.4938 194.765 10.992 193.368 10.992V11.192V11.392C194.658 11.392 195.733 11.8502 196.607 12.7697L196.752 12.632ZM193.368 11.192V10.992H176.304V11.192V11.392H193.368V11.192ZM176.304 11.192V10.992C175.06 10.992 174.007 10.5569 173.133 9.68258L172.992 9.824L172.85 9.96542C173.8 10.9151 174.955 11.392 176.304 11.392V11.192ZM172.992 9.824L173.133 9.68258C172.257 8.80668 171.824 7.777 171.824 6.584H171.624H171.424C171.424 7.88699 171.902 9.01731 172.85 9.96542L172.992 9.824ZM171.624 6.584H171.824C171.824 5.34075 172.259 4.28771 173.133 3.41342L172.992 3.272L172.85 3.13058C171.9 4.08029 171.424 5.23524 171.424 6.584H171.624ZM172.992 3.272L173.133 3.41342C174.007 2.53913 175.06 2.104 176.304 2.104V1.904V1.704C174.955 1.704 173.8 2.18086 172.85 3.13058L172.992 3.272ZM176.304 1.904V2.104H195.384V1.904V1.704H176.304V1.904ZM195.384 1.904V2.104C198.978 2.104 202.047 3.37872 204.602 5.93342L204.744 5.792L204.885 5.65058C202.256 3.02127 199.085 1.704 195.384 1.704V1.904ZM204.744 5.792L204.602 5.93342C207.157 8.48812 208.432 11.5573 208.432 15.152H208.632H208.832C208.832 11.4507 207.514 8.27988 204.885 5.65058L204.744 5.792ZM208.632 15.152H208.432V28.904H208.632H208.832V15.152H208.632ZM208.632 28.904H208.432C208.432 30.1442 207.975 31.2221 207.05 32.1466L207.192 32.288L207.333 32.4294C208.328 31.4339 208.832 30.2558 208.832 28.904H208.632ZM207.192 32.288L207.054 32.143C206.13 33.0205 205.051 33.456 203.808 33.456V33.656V33.856C205.156 33.856 206.333 33.3795 207.329 32.433L207.192 32.288ZM203.808 33.656V33.456H182.064V33.656V33.856H203.808V33.656ZM182.064 33.656H181.864V46.832H182.064H182.264V33.656H182.064ZM182.064 46.832V47.032H204.6V46.832V46.632H182.064V46.832Z" fill="#664BBF" mask="url(#path-1-outside-1_386_921)"/>
</svg>
