<svg width="230" height="230" viewBox="0 0 230 230" fill="none" xmlns="http://www.w3.org/2000/svg">
<g filter="url(#filter0_f_270_5265)">
<ellipse cx="91.4249" cy="204.25" rx="73.025" ry="17.25" fill="url(#paint0_radial_270_5265)"/>
</g>
<path d="M140.065 57.851C137.368 64.6487 129.048 68.581 129.048 68.581L103.163 40.6835C103.163 40.6835 109.2 33.5721 115.473 31.4496C120.593 29.7175 129.082 28.3118 136.916 36.8967C144.75 45.4817 141.588 54.014 140.065 57.851Z" fill="#D4C5EC" stroke="url(#paint1_linear_270_5265)" stroke-width="4.5" stroke-linecap="round"/>
<path d="M117.352 36.7187C111.689 38.0126 105.371 44.4927 105.371 44.4927L130.157 63.7943C130.157 63.7943 135.256 58.9521 135.89 53.8024L135.892 53.7886C136.272 50.7062 136.963 45.0995 131.655 40.5071C126.34 35.9078 122.606 35.5182 117.352 36.7187Z" fill="#4B3F70"/>
<ellipse cx="121.094" cy="60.6069" rx="28.499" ry="12.2567" transform="rotate(45.3747 121.094 60.6069)" fill="#FEFEFE"/>
<path d="M30.7174 61.9372C33.8188 68.5605 42.3592 71.9856 42.3592 71.9856L66.5208 42.5827C66.5208 42.5827 60.0676 35.847 53.6778 34.1054C48.4636 32.6843 39.9052 31.7913 32.6014 40.8316C25.2975 49.8719 28.9668 58.1987 30.7174 61.9372Z" fill="#D4C5EC" stroke="url(#paint2_linear_270_5265)" stroke-width="4.5" stroke-linecap="round"/>
<path d="M52.1194 39.4779C57.8498 40.4291 64.5453 46.5177 64.5453 46.5177L40.9651 67.2742C40.9651 67.2742 35.5841 62.7473 34.641 57.645L34.6385 57.6314C34.0739 54.5773 33.0471 49.0224 38.0692 44.1192C43.0987 39.2087 46.8029 38.5954 52.1194 39.4779Z" fill="#4B3F70"/>
<ellipse cx="28.499" cy="12.2567" rx="28.499" ry="12.2567" transform="matrix(-0.658418 0.752652 0.752652 0.658418 59.3589 34.0273)" fill="#FEFEFE"/>
<path d="M189.005 87.4591C193.394 88.708 199.258 93.6377 201.276 97.4666C204.131 102.883 208.438 126.408 202.402 136.702C197.315 145.378 189.589 148.231 185.1 149.266C179.464 150.566 175.419 150.876 171.097 151.548C167.287 152.141 163.261 153.013 157.739 155.091C156.809 155.441 155.837 155.825 154.817 156.248C153.117 156.951 151.53 157.363 150.248 157.951C147.649 158.972 145.211 160.697 143.407 162.094C141.603 163.49 138.409 168.041 138.409 168.041L118.714 134.914C118.714 134.914 126.399 127.465 131.635 118.715C134.866 113.317 138.599 108.449 142.805 104.144C147.307 99.5357 152.351 95.5724 157.904 92.2932C160.309 90.8729 161.989 90.0915 164.707 89.262C167.273 88.4787 172.153 87.0387 176.414 86.6457C179.538 86.3576 185.709 86.5211 189.005 87.4591Z" fill="url(#paint3_linear_270_5265)"/>
<path d="M143.407 162.094C141.603 163.49 138.409 168.041 138.409 168.041L118.714 134.914C118.714 134.914 126.399 127.465 131.635 118.715C134.866 113.317 138.599 108.449 142.805 104.144M143.407 162.094C145.211 160.697 147.649 158.972 150.248 157.951M143.407 162.094L140.551 157.392L139.576 130.105C139.576 130.105 144.192 136.038 146.195 140.37C149.151 146.763 150.248 157.951 150.248 157.951M187.815 147.211C187.815 147.211 189.047 137.912 189.132 128.328C189.216 118.832 188.635 118.533 186.849 109.202C186.287 106.264 182.832 97.9002 181.5 95.223C180.083 92.374 176.414 86.6457 176.414 86.6457M176.414 86.6457C172.153 87.0387 167.273 88.4787 164.707 89.262C161.989 90.0915 160.309 90.8729 157.904 92.2932M176.414 86.6457C179.538 86.3576 185.709 86.5211 189.005 87.4591C193.394 88.708 199.258 93.6377 201.276 97.4666C204.131 102.883 208.438 126.408 202.402 136.702C197.315 145.378 189.589 148.231 185.1 149.266C179.464 150.566 175.419 150.876 171.097 151.548M171.097 151.548C171.097 151.548 173.199 139.147 172.668 130.694C172.35 125.636 170.204 112.35 167.115 106.606C164.562 101.857 157.904 92.2932 157.904 92.2932M171.097 151.548C167.287 152.141 163.261 153.013 157.739 155.091M157.904 92.2932C152.351 95.5724 147.307 99.5357 142.805 104.144M142.805 104.144C142.805 104.144 147.106 110.504 149.469 114.604C151.831 118.704 152.763 124.206 154.1 128.543C155.436 132.88 156.799 139.496 158.01 145.507C158.887 149.859 157.739 155.091 157.739 155.091M157.739 155.091C156.809 155.441 155.837 155.825 154.817 156.248C153.117 156.951 151.53 157.363 150.248 157.951" stroke="url(#paint4_linear_270_5265)" stroke-width="4.5" stroke-linecap="round"/>
<path d="M40.2662 174.444C41.7968 179 45.037 188.76 46.9759 193.513L46.9911 193.55C49.8771 200.625 50.7182 202.686 59.133 202.433C67.1909 202.191 68.7556 190.845 68.7556 190.845C68.7556 190.845 81.5145 192.474 90.6562 192.199C107.515 191.692 110.648 189.647 110.648 189.647C110.648 189.647 113.198 201.752 120.636 201.528C127.794 201.313 130.12 202.041 133.015 196.407C135.91 190.773 134.122 192.061 136.321 180.376C139.297 164.562 143.471 149.48 144.69 139.856C145.909 130.231 148.195 109.648 147.476 93.9707C146.545 73.6621 131.941 34.7748 85.9622 36.1578C36.1045 37.6575 28.3874 79.0794 26.9774 88.0704C24.6895 102.66 26.6077 118.638 29.0465 133.195C31.0649 145.241 37.3326 165.712 40.2662 174.444Z" fill="url(#paint5_linear_270_5265)" stroke="url(#paint6_linear_270_5265)" stroke-width="4.5" stroke-linecap="round" stroke-linejoin="round"/>
<g filter="url(#filter1_f_270_5265)">
<path d="M58.6821 202.458C67.2458 202.207 68.8789 189.503 68.8789 189.503C68.8789 189.503 64.3773 189.326 61.4948 188.859C58.2848 188.34 55.6248 187.792 52.4698 186.975C48.5049 185.949 43.3919 183.374 43.3919 183.374L45.7376 192.434L45.7538 192.476C48.8398 200.407 49.7392 202.719 58.6821 202.458Z" fill="#7C6CB3"/>
</g>
<path d="M68.5569 190.852C68.5569 190.852 66.9922 202.197 58.9343 202.44C50.5048 202.693 49.898 200.604 46.9998 193.5C44.1015 186.396 40.4998 174.5 40.4998 174.5" stroke="#5A4D83" stroke-width="4.5" stroke-linecap="round"/>
<g filter="url(#filter2_f_270_5265)">
<path d="M132.342 197.525C135.215 191.409 134.115 188.646 136.268 175.946C136.268 175.946 130.165 181.227 125.536 183.345C122.617 184.681 120.894 185.521 118.347 186.472C115.651 187.477 111.333 188.028 111.333 188.028C111.333 188.028 112.543 203.259 119.981 203.045C127.139 202.84 129.469 203.641 132.342 197.525Z" fill="#7C6CB3"/>
</g>
<path d="M137 176.5C134.8 188.185 135.395 190.866 132.5 196.5C129.605 202.134 127.45 201.022 121 201.5C114.45 201.985 111 190 111 190" stroke="#5A4D83" stroke-width="4.5" stroke-linecap="round"/>
<path d="M48.5077 60.6784C44.8922 63.9625 39.982 71.4953 37.9521 77.1034C35.9221 82.7115 35.5317 92.1146 38.5328 96.4067C42.6264 102.261 48.688 103.841 55.1554 104.733C60.7301 105.501 66.5488 102.448 70.4388 99.0837C74.9864 95.1505 70.0042 91.4399 74.8687 87.8777C83.216 81.7651 91.1062 83.9794 96.5388 87.6956C101.971 91.4118 98.4511 94.7766 101.852 98.8198C105.253 102.863 112.05 103.163 117.115 102.869C125.31 102.393 130.374 99.1924 133.856 93.1926C136 89.4997 136.209 82.2014 133.286 74.2357C130.363 66.2699 120 56.4995 116.5 54.4996C113 52.4998 103.973 46.6685 87.4998 46.4996C71.0271 46.3308 60.927 49.3976 48.5077 60.6784Z" fill="url(#paint7_linear_270_5265)"/>
<path d="M122.07 150.641C119.669 168.221 109.05 178.895 90.0005 179.468C70.9508 180.041 58.143 172.961 52.5037 155.284C50.3113 146.146 53.347 129.631 60.5025 122.276C67.572 115.01 78.5512 112.315 87.9719 112.032C98.7118 112.886 104.73 115.06 112.439 120.714C119.882 126.173 123.403 140.88 122.07 150.641Z" fill="url(#paint8_linear_270_5265)"/>
<g filter="url(#filter3_f_270_5265)">
<path d="M135.321 118.973C135.901 122.262 134.273 129.379 134.273 129.379C134.273 129.379 129.294 131.574 124.38 131.426C121.084 131.327 117.405 130.759 114.688 128.775C111.976 126.796 109 121 109 121C109 121 111.614 118.392 113 117C116.585 113.396 119.198 110.956 123.5 110.5C126.601 110.171 129.406 110.703 131.857 112.723C133.95 114.447 134.827 116.166 135.321 118.973Z" fill="#7C6CB3"/>
</g>
<path d="M134.458 128.061C134.458 128.061 135.986 121.658 135.363 118.682C134.83 116.14 133.932 114.577 131.82 112.991C129.346 111.134 126.709 110.417 123.618 110.671C119.331 111.024 116.869 113.453 113.341 116.657C111.977 117.896 109.317 120.986 109.317 120.986" stroke="#4B3F70" stroke-width="4" stroke-linecap="round"/>
<path d="M169.5 149.499L170 143.999L170.5 135.999L170.5 128.499L169 119.499L166.5 110.499L164.5 105.999L161.5 101.499L157.5 94.999L149 100.618L149.5 110.499L154 120.999L159 140.499L160.5 151.999L169.5 149.499Z" fill="#4B3F70"/>
<g filter="url(#filter4_f_270_5265)">
<path d="M38.9926 116.951C37.7661 120 37.9398 127.296 37.9398 127.296C37.9398 127.296 43.9895 131.582 48.7466 132.028C52.3401 132.364 55.3845 132.38 58.632 130.757C61.0733 129.538 64.9997 125.5 64.9997 125.5C64.9997 125.5 62.5808 121.686 61.4997 120C58.7029 115.637 56.2921 112.822 52.162 111.338C49.1851 110.269 46.4513 110.363 43.6421 111.729C41.2438 112.894 40.0397 114.349 38.9926 116.951Z" fill="#7C6CB3"/>
</g>
<path d="M37.8858 125.876C37.8858 125.876 37.8037 119.293 39.0665 116.527C40.1445 114.165 41.3648 112.837 43.7739 111.755C46.5957 110.488 49.3263 110.368 52.285 111.296C56.3898 112.583 58.2567 115.494 60.9944 119.396C62.0526 120.904 63.9676 124.503 63.9676 124.503" stroke="#4B3F70" stroke-width="4" stroke-linecap="round"/>
<path d="M102.569 75.4958C99.6987 76.9603 93.4074 83.0495 95.6902 87.6775C96.428 89.1733 97.9857 90.7247 99.6353 90.9711C101.848 91.3016 104.697 89.6211 106.927 89.4365C110.366 89.152 112.689 89.3444 114.249 89.6C115.809 89.8555 118 90.9711 120.579 91.1633C123.511 91.382 126.154 89.5749 126.5 87.0003C127.5 82.5003 123 78.0003 119.5 76.0003C117.354 74.7744 114.199 73.4189 110.198 73.5454C106.198 73.6719 105.5 74.0005 102.569 75.4958Z" fill="#4B3F70"/>
<path d="M102.569 75.4958C99.6987 76.9603 93.4074 83.0495 95.6902 87.6775C96.428 89.1733 97.9857 90.7247 99.6353 90.9711C101.848 91.3016 104.697 89.6211 106.927 89.4365C110.366 89.152 112.689 89.3444 114.249 89.6C115.809 89.8555 118 90.9711 120.579 91.1633C123.511 91.382 126.154 89.5749 126.5 87.0003C127.5 82.5003 123 78.0003 119.5 76.0003C117.354 74.7744 114.199 73.4189 110.198 73.5454C106.198 73.6719 105.5 74.0005 102.569 75.4958Z" fill="url(#paint9_linear_270_5265)"/>
<path d="M66.341 75.6132C69.1902 77.1179 75.3951 83.2953 73.0472 87.8906C72.2884 89.3759 70.7089 90.9052 69.056 91.1282C66.8385 91.4275 64.0136 89.707 61.7864 89.491C58.3525 89.158 56.0262 89.3176 54.4631 89.5512C52.8999 89.7847 50.6934 90.8692 48.1121 91.0251C45.1769 91.2024 42.5597 89.3582 42.2502 86.7789C41.3138 82.2653 45.8768 77.8292 49.4047 75.8787C51.567 74.6832 54.7411 73.3724 58.7397 73.5553C62.7383 73.7382 63.4316 74.0766 66.341 75.6132Z" fill="#4B3F70"/>
<path d="M66.341 75.6132C69.1902 77.1179 75.3951 83.2953 73.0472 87.8906C72.2884 89.3759 70.7089 90.9052 69.056 91.1282C66.8385 91.4275 64.0136 89.707 61.7864 89.491C58.3525 89.158 56.0262 89.3176 54.4631 89.5512C52.8999 89.7847 50.6934 90.8692 48.1121 91.0251C45.1769 91.2024 42.5597 89.3582 42.2502 86.7789C41.3138 82.2653 45.8768 77.8292 49.4047 75.8787C51.567 74.6832 54.7411 73.3724 58.7397 73.5553C62.7383 73.7382 63.4316 74.0766 66.341 75.6132Z" fill="url(#paint10_linear_270_5265)"/>
<ellipse cx="81.9427" cy="93.3369" rx="19.4197" ry="17.1848" transform="rotate(9.20256 81.9427 93.3369)" fill="url(#paint11_linear_270_5265)"/>
<path d="M66.4717 104.417C64.9236 101.589 63.7251 99.7028 63.3372 96.2874C62.9494 92.8724 63.5317 89.4199 65.0239 86.3043C66.5163 83.1882 68.8642 80.5236 71.8197 78.6072C74.7758 76.6904 78.2237 75.5975 81.7881 75.454C85.3525 75.3104 88.8886 76.1223 92.0096 77.797C95.1301 79.4715 97.7116 81.9418 99.4793 84.9313C101.247 87.9201 102.135 91.316 102.053 94.7493C101.971 98.1825 101.527 101.615 100.002 104.689" stroke="#4B3F70" stroke-width="4.5" stroke-linecap="round" stroke-linejoin="round"/>
<path d="M90.3617 87.7276C90.3475 91.6277 86.8587 94.7767 82.6859 94.7615C79.2085 94.7488 75.0472 91.5721 75.0614 87.672C75.0756 83.772 78.5122 80.6228 82.7372 80.6382C86.9623 80.6535 90.3759 83.8276 90.3617 87.7276Z" fill="#4B3F70"/>
<path d="M166.913 30.92C166.998 30.5101 167.453 30.5624 167.443 30.9809L167.356 34.4915C167.243 39.0248 169.516 42.8701 172.852 43.7928L175.435 44.5073C175.743 44.5925 175.674 45.1935 175.355 45.2067L172.677 45.3168C169.218 45.4589 166.133 48.6888 165.215 53.1294L164.503 56.5684C164.419 56.9784 163.964 56.9261 163.974 56.5076L164.061 52.9969C164.173 48.4637 161.901 44.6184 158.565 43.6957L155.981 42.9812C155.673 42.896 155.742 42.2949 156.062 42.2818L158.74 42.1717C162.198 42.0296 165.283 38.7996 166.202 34.359L166.913 30.92Z" fill="url(#paint12_linear_270_5265)"/>
<path d="M13.1838 157.962C13.0416 157.44 12.459 157.544 12.5058 158.083L12.8986 162.603C13.4058 168.439 10.7835 173.578 6.55584 175.035L3.28175 176.162C2.89143 176.297 3.02849 177.066 3.44125 177.058L6.90339 176.986C11.3739 176.893 15.6096 180.811 17.1489 186.463L18.3409 190.84C18.4831 191.362 19.0657 191.258 19.0189 190.719L18.6261 186.2C18.1189 180.364 20.7412 175.224 24.9689 173.768L28.243 172.64C28.6333 172.505 28.4962 171.736 28.0835 171.744L24.6214 171.817C20.1508 171.91 15.9151 167.992 14.3758 162.34L13.1838 157.962Z" fill="url(#paint13_linear_270_5265)"/>
<path d="M175.089 62.8098C175.178 62.6156 175.398 62.6936 175.345 62.9005L174.901 64.6365C174.327 66.8781 175.017 69.0501 176.571 69.8903L177.774 70.5409C177.917 70.6185 177.814 70.9095 177.654 70.8796L176.309 70.6282C174.573 70.3036 172.67 71.5573 171.706 73.6607L170.959 75.2897C170.87 75.4839 170.649 75.4059 170.702 75.1989L171.147 73.4629C171.721 71.2213 171.03 69.0493 169.477 68.2092L168.274 67.5586C168.13 67.481 168.233 67.19 168.394 67.2199L169.738 67.4713C171.474 67.7958 173.378 66.5421 174.342 64.4387L175.089 62.8098Z" fill="url(#paint14_linear_270_5265)"/>
<path d="M187.5 104C185.407 97.5884 180 88.4996 180 88.4996C180 88.4996 184.873 87.9643 189 89.4998C191.214 90.3237 196 93.9995 198 95.9996C200.264 98.2635 202.614 108.196 203 110.5C204.732 120.841 203.5 131 200.5 136C197.049 141.752 190.275 145.5 190.275 145.5C190.275 145.5 191.438 133.056 191 124C190.621 116.167 189.933 111.454 187.5 104Z" fill="#4B3F70"/>
<path d="M150 157L147 140.5L141.5 162L150 157Z" fill="#4B3F70"/>
<defs>
<filter id="filter0_f_270_5265" x="13.7999" y="182.4" width="155.25" height="43.7" filterUnits="userSpaceOnUse" color-interpolation-filters="sRGB">
<feFlood flood-opacity="0" result="BackgroundImageFix"/>
<feBlend mode="normal" in="SourceGraphic" in2="BackgroundImageFix" result="shape"/>
<feGaussianBlur stdDeviation="2.3" result="effect1_foregroundBlur_270_5265"/>
</filter>
<filter id="filter1_f_270_5265" x="40.3252" y="180.307" width="31.6204" height="25.2368" filterUnits="userSpaceOnUse" color-interpolation-filters="sRGB">
<feFlood flood-opacity="0" result="BackgroundImageFix"/>
<feBlend mode="normal" in="SourceGraphic" in2="BackgroundImageFix" result="shape"/>
<feGaussianBlur stdDeviation="1.53333" result="effect1_foregroundBlur_270_5265"/>
</filter>
<filter id="filter2_f_270_5265" x="108.267" y="172.88" width="31.0674" height="33.2349" filterUnits="userSpaceOnUse" color-interpolation-filters="sRGB">
<feFlood flood-opacity="0" result="BackgroundImageFix"/>
<feBlend mode="normal" in="SourceGraphic" in2="BackgroundImageFix" result="shape"/>
<feGaussianBlur stdDeviation="1.53333" result="effect1_foregroundBlur_270_5265"/>
</filter>
<filter id="filter3_f_270_5265" x="107" y="108.409" width="30.4463" height="25.0244" filterUnits="userSpaceOnUse" color-interpolation-filters="sRGB">
<feFlood flood-opacity="0" result="BackgroundImageFix"/>
<feBlend mode="normal" in="SourceGraphic" in2="BackgroundImageFix" result="shape"/>
<feGaussianBlur stdDeviation="1" result="effect1_foregroundBlur_270_5265"/>
</filter>
<filter id="filter4_f_270_5265" x="35.9313" y="108.611" width="31.0684" height="25.5977" filterUnits="userSpaceOnUse" color-interpolation-filters="sRGB">
<feFlood flood-opacity="0" result="BackgroundImageFix"/>
<feBlend mode="normal" in="SourceGraphic" in2="BackgroundImageFix" result="shape"/>
<feGaussianBlur stdDeviation="1" result="effect1_foregroundBlur_270_5265"/>
</filter>
<radialGradient id="paint0_radial_270_5265" cx="0" cy="0" r="1" gradientUnits="userSpaceOnUse" gradientTransform="translate(91.4249 204.25) scale(73.025 17.25)">
<stop offset="0.594942" stop-color="#E1DEDE"/>
<stop offset="1" stop-color="#E9F1F5" stop-opacity="0.8"/>
</radialGradient>
<linearGradient id="paint1_linear_270_5265" x1="141.41" y1="44.7293" x2="106.597" y2="53.8251" gradientUnits="userSpaceOnUse">
<stop offset="0.576067" stop-color="#4B3F70"/>
<stop offset="1" stop-color="#5D4F87"/>
</linearGradient>
<linearGradient id="paint2_linear_270_5265" x1="28.5864" y1="48.9201" x2="63.8833" y2="55.907" gradientUnits="userSpaceOnUse">
<stop offset="0.576067" stop-color="#4B3F70"/>
<stop offset="1" stop-color="#5D4F87"/>
</linearGradient>
<linearGradient id="paint3_linear_270_5265" x1="154.578" y1="91.3393" x2="170.552" y2="160.631" gradientUnits="userSpaceOnUse">
<stop stop-color="#C5B8E8"/>
<stop offset="1" stop-color="#9887C7"/>
</linearGradient>
<linearGradient id="paint4_linear_270_5265" x1="154.578" y1="91.3393" x2="170.552" y2="160.631" gradientUnits="userSpaceOnUse">
<stop offset="0.576067" stop-color="#4B3F70"/>
<stop offset="1" stop-color="#5D4F87"/>
</linearGradient>
<linearGradient id="paint5_linear_270_5265" x1="83.7791" y1="35.4676" x2="129.211" y2="220.337" gradientUnits="userSpaceOnUse">
<stop offset="0.0545617" stop-color="#D5CBEF"/>
<stop offset="0.153725" stop-color="#E0DAF1"/>
<stop offset="0.472745" stop-color="#D4C4EC"/>
<stop offset="0.663723" stop-color="#C0B4E7"/>
<stop offset="0.795744" stop-color="#AFA0E2"/>
</linearGradient>
<linearGradient id="paint6_linear_270_5265" x1="83.8149" y1="36.2452" x2="91.4604" y2="202.977" gradientUnits="userSpaceOnUse">
<stop offset="0.576067" stop-color="#4B3F70"/>
<stop offset="1" stop-color="#5D4F87"/>
</linearGradient>
<linearGradient id="paint7_linear_270_5265" x1="87.3777" y1="46.4708" x2="85.1938" y2="105.9" gradientUnits="userSpaceOnUse">
<stop stop-color="#A293D0"/>
<stop offset="1" stop-color="#B6ABDA"/>
</linearGradient>
<linearGradient id="paint8_linear_270_5265" x1="85.8801" y1="110.752" x2="88.1723" y2="180.865" gradientUnits="userSpaceOnUse">
<stop offset="0.521453" stop-color="#E6E2F2"/>
<stop offset="1" stop-color="#D3CBEF"/>
</linearGradient>
<linearGradient id="paint9_linear_270_5265" x1="110.539" y1="73.5346" x2="111.107" y2="91.4991" gradientUnits="userSpaceOnUse">
<stop offset="0.576067" stop-color="#4B3F70"/>
<stop offset="1" stop-color="#5D4F87"/>
</linearGradient>
<linearGradient id="paint10_linear_270_5265" x1="58.399" y1="73.5397" x2="57.5775" y2="91.4945" gradientUnits="userSpaceOnUse">
<stop offset="0.576067" stop-color="#4B3F70"/>
<stop offset="1" stop-color="#5D4F87"/>
</linearGradient>
<linearGradient id="paint11_linear_270_5265" x1="81.9428" y1="76.1521" x2="86.398" y2="109.266" gradientUnits="userSpaceOnUse">
<stop offset="0.837906" stop-color="#C8BDE7"/>
<stop offset="1" stop-color="#D4C4EC" stop-opacity="0"/>
</linearGradient>
<linearGradient id="paint12_linear_270_5265" x1="167.214" y1="30.6398" x2="165.979" y2="50.4029" gradientUnits="userSpaceOnUse">
<stop stop-color="#F2994A"/>
<stop offset="1" stop-color="#FEC18C"/>
</linearGradient>
<linearGradient id="paint13_linear_270_5265" x1="12.7739" y1="157.625" x2="15.9455" y2="183.008" gradientUnits="userSpaceOnUse">
<stop stop-color="#F2994A"/>
<stop offset="1" stop-color="#FEC18C"/>
</linearGradient>
<linearGradient id="paint14_linear_270_5265" x1="175.27" y1="62.7047" x2="172.397" y2="72.3921" gradientUnits="userSpaceOnUse">
<stop stop-color="#F2994A"/>
<stop offset="1" stop-color="#FEC18C"/>
</linearGradient>
</defs>
</svg>
