<svg width="164" height="164" viewBox="0 0 164 164" fill="none" xmlns="http://www.w3.org/2000/svg">
<g filter="url(#filter0_f_1079_3844)">
<ellipse cx="65.1901" cy="145.639" rx="52.07" ry="12.3" fill="url(#paint0_radial_1079_3844)"/>
</g>
<path d="M106.956 111.948L104.817 100.183L100.896 115.513L106.956 111.948Z" fill="#4B3F70"/>
<path d="M18.9213 72.6103C23.6752 70.5088 22.7844 71.3297 25.2966 70.4505C29.8651 68.8517 32.7763 67.998 32.7763 67.998L36.5832 82.1353C36.5832 82.1353 34.4876 82.6502 33.1753 83.0396C26.2285 85.101 26.0685 85.4436 22.1255 84.1879C18.8812 83.1547 17.0445 82.0519 16.2041 79.0983C15.4808 76.5567 16.2522 73.7903 18.9213 72.6103Z" fill="#AB78C9"/>
<path d="M27.3396 70.0267C24.7901 70.8816 20.5407 71.5902 18.4372 72.966C16.0706 74.5138 15.7186 76.6983 16.4587 79.1927C17.3189 82.0916 19.6696 82.9656 22.9669 83.9881C26.9742 85.2309 29.8266 83.8672 33.9254 82.954" stroke="url(#paint1_linear_1079_3844)" stroke-width="2.29469" stroke-linecap="round"/>
<path d="M106.038 47.963C103.675 52.2195 97.8474 54.1036 97.8474 54.1036L83.1467 33.4733C83.1467 33.4733 87.74 29.2954 92.0629 28.431C95.5905 27.7256 101.315 27.5239 105.752 33.8612C110.189 40.1985 107.371 45.5604 106.038 47.963Z" fill="#D4C5EC" stroke="url(#paint2_linear_1079_3844)" stroke-width="2.55163" stroke-linecap="round"/>
<path d="M92.8512 32.0691C89.0024 32.4388 84.2777 36.1759 84.2777 36.1759L98.9877 51.0377C98.9877 51.0377 102.768 48.2775 103.628 44.9324L103.63 44.9235C104.144 42.9212 105.08 39.2793 101.969 35.7936C98.8539 32.3027 96.4221 31.7261 92.8512 32.0691Z" fill="#AB78C9"/>
<ellipse cx="93.2781" cy="48.1595" rx="18.9701" ry="8.15854" transform="rotate(52.7591 93.2781 48.1595)" fill="#FEFEFE"/>
<path d="M38.1437 38.9585C39.2213 43.7059 44.2898 47.1447 44.2898 47.1447L64.1736 31.4489C64.1736 31.4489 60.932 26.1531 57.0233 24.1142C53.8338 22.4504 48.3944 20.6559 42.3622 25.4995C36.3299 30.343 37.5354 36.2789 38.1437 38.9585Z" fill="#D4C5EC" stroke="url(#paint3_linear_1079_3844)" stroke-width="2.55163" stroke-linecap="round"/>
<path d="M55.2479 27.3872C58.8398 28.8185 62.3308 33.7279 62.3308 33.7279L44.0514 43.8828C44.0514 43.8828 41.1939 40.1755 41.3042 36.7235L41.3045 36.7143C41.3705 34.648 41.4905 30.8896 45.452 28.413C49.4194 25.9328 51.9155 26.0593 55.2479 27.3872Z" fill="#AB78C9"/>
<ellipse cx="18.9701" cy="8.15854" rx="18.9701" ry="8.15854" transform="matrix(-0.803663 0.595085 0.595085 0.803663 60.7285 24.8701)" fill="#FEFEFE"/>
<path d="M140.483 98.7897C142.659 100.909 144.535 105.651 144.507 108.532C144.466 112.607 139.55 127.749 132.76 131.87C127.036 135.343 121.609 134.571 118.652 133.758C114.94 132.737 112.473 131.64 109.728 130.667C107.309 129.809 104.675 129.047 100.784 128.518C100.129 128.429 99.4378 128.346 98.7063 128.271C97.4885 128.146 96.4287 127.885 95.4919 127.824C93.6463 127.6 91.6732 127.84 90.1748 128.088C88.6765 128.335 84.4144 130.83 84.4144 130.83L84.3058 104.359C84.3058 104.359 91.1623 102.426 96.9962 98.9568C100.596 96.8164 104.321 95.1452 108.146 93.9535C112.24 92.678 116.448 91.9516 120.738 91.7868C122.596 91.7154 123.827 91.789 125.681 92.1624C127.432 92.5151 130.745 93.2145 133.366 94.3319C135.287 95.151 138.849 97.1979 140.483 98.7897Z" fill="url(#paint4_linear_1079_3844)"/>
<path d="M90.1748 128.088C88.6765 128.335 84.4144 130.83 84.4144 130.83L84.3058 104.359C84.3058 104.359 91.1623 102.426 96.9962 98.9568C100.596 96.8164 104.321 95.1452 108.146 93.9535M90.1748 128.088C91.6732 127.84 93.6463 127.6 95.4919 127.824M90.1748 128.088L89.9888 124.431L98.0461 108.139C98.0461 108.139 98.8736 113.074 98.6771 116.245C98.3872 120.924 95.4919 127.824 95.4919 127.824M120.892 133.413C120.892 133.413 124.555 128.355 127.635 122.768C130.687 117.233 130.441 116.874 132.345 110.844C132.945 108.945 133.566 102.953 133.633 100.964C133.704 98.8475 133.366 94.3319 133.366 94.3319M133.366 94.3319C130.745 93.2145 127.432 92.5151 125.681 92.1624C123.827 91.789 122.596 91.7154 120.738 91.7868M133.366 94.3319C135.287 95.151 138.849 97.1979 140.483 98.7897C142.659 100.909 144.535 105.651 144.507 108.532C144.466 112.607 139.55 127.749 132.76 131.87C127.036 135.343 121.609 134.571 118.652 133.758C114.94 132.737 112.473 131.64 109.728 130.667M109.728 130.667C109.728 130.667 114.881 124.067 117.243 118.948C118.656 115.885 121.6 107.424 121.607 103.083C121.613 99.494 120.738 91.7868 120.738 91.7868M109.728 130.667C107.309 129.809 104.675 129.047 100.784 128.518M120.738 91.7868C116.448 91.9516 112.24 92.678 108.146 93.9535M108.146 93.9535C108.146 93.9535 108.655 99.0391 108.742 102.188C108.829 105.337 107.635 108.854 107.047 111.817C106.459 114.78 105.165 119.086 103.973 122.99C103.111 125.816 100.784 128.518 100.784 128.518M100.784 128.518C100.129 128.429 99.4378 128.346 98.7063 128.271C97.4885 128.146 96.4287 127.885 95.4919 127.824" stroke="url(#paint5_linear_1079_3844)" stroke-width="2.55163" stroke-linecap="round"/>
<path d="M90.4999 127C91.9982 126.753 93.1543 126.276 94.9999 126.5C94.9999 126.5 97.2099 121.679 97.4999 117C97.6963 113.829 97 109 97 109L89.9884 124.43L90.4999 127Z" fill="#5B3170"/>
<path d="M116.5 117.5C114.295 122.662 109.342 129.97 109.342 129.97C107.36 129.232 105.193 128.599 101.966 128.253C101.966 128.253 104.652 125.33 105.5 122.5C106.927 117.739 107.874 113.953 108.5 111C109.126 108.047 109.737 104.996 109.807 101.891C109.876 98.7851 109.342 95 109.342 95C112.821 93.5552 115.909 93.3569 119.5 93C119.5 93 120.683 98.648 120.515 102.192C120.313 106.48 118 114.5 116.5 117.5Z" fill="#5B3170"/>
<path d="M143.5 108.5C143.45 105.794 141.408 101.365 140 100C138.592 98.6349 136.308 97.1174 134.681 96.5C134.681 96.5 134.686 98.8563 134.681 100.849C134.676 102.721 134.312 108.393 133.859 110.222C132 115.5 132.716 115 130.5 120C128.068 125.486 122.5 133 122.5 133C124.5 133.5 129.203 133 132.999 130C138.572 125.597 143.571 112.328 143.5 108.5Z" fill="#5B3170"/>
<path d="M25.5032 101.844C22.9516 106.947 17.5932 103.63 14.7864 109.243C12.5023 113.811 17.8757 119.661 23.4619 120.215C28.8018 120.745 35.4545 120.215 35.4545 120.215C35.4545 120.215 42.8935 124.279 55.1021 127.419C64.0328 129.715 70.5812 129.146 72.9635 132.463C75.5602 136.079 80.108 139.352 84.7009 141.394C89.0568 143.33 93.1887 141.649 94.3971 135.78C95.6055 129.911 89.2473 126.536 90.0593 124.043C93.3766 113.859 95.9281 107.968 98.4797 101.844C101.031 95.7197 105.013 80.8687 105.879 70.4586C107.002 56.9728 101.988 31.8876 71.5182 28.8669C38.4778 25.5915 31.4992 47.7246 30.096 53.6178C28.8202 58.976 29.0754 60.5075 27.2893 80.1548C25.5032 99.8021 26.5241 99.8021 25.5032 101.844Z" fill="url(#paint6_linear_1079_3844)" stroke="url(#paint7_linear_1079_3844)" stroke-width="3.06195" stroke-linecap="round" stroke-linejoin="round"/>
<path d="M44.728 41.0971C39.5369 44.9419 37.893 48.5409 36.9852 50.3005C36.0775 52.0601 34.5834 58.8882 36.4749 62.293C39.0266 66.8859 41.7229 68.0407 45.9159 69.1824C48.558 69.9018 53.0316 70.0073 55.8872 68.1192C59.2257 65.9118 56.2543 63.0362 59.7702 61.1008C65.8034 57.7799 70.8225 59.9167 74.0907 62.8346C77.3589 65.7525 74.7472 67.6725 76.6462 70.6324C78.5452 73.5924 83.0067 74.3721 86.3756 74.6111C91.8257 74.9978 95.0343 72.9655 98.2546 69.6558C100.125 67.7339 100.748 62.6017 99.4999 57.0932C98.2517 51.5847 93.6314 45.2309 91.3349 43.6662C89.0384 42.1016 85.3532 37.5442 71.3757 35.5868C57.3982 33.6294 49.9191 37.2522 44.728 41.0971Z" fill="url(#paint8_linear_1079_3844)"/>
<path d="M91.1956 61.7624C92.5991 56.9684 90.6037 51.7565 84.9757 50.0882C80.9495 48.8947 74.9459 51.7355 73.5424 56.5295C72.1389 61.3235 75.1061 65.3585 80.0348 66.8014C84.9634 68.2443 89.7921 66.5564 91.1956 61.7624Z" fill="#664BBF"/>
<path d="M91.1956 61.7624C92.5991 56.9684 90.6037 51.7565 84.9757 50.0882C80.9495 48.8947 74.9459 51.7355 73.5424 56.5295C72.1389 61.3235 75.1061 65.3585 80.0348 66.8014C84.9634 68.2443 89.7921 66.5564 91.1956 61.7624Z" fill="url(#paint9_linear_1079_3844)"/>
<path d="M81.762 106.181C78.6733 117.58 68.7463 121.466 56.1222 120.215C47.957 119.406 39.2814 111.795 37.2401 104.65C35.7091 99.2916 37.8648 85.9912 44.1295 80.9198C49.4879 76.5821 56.003 76.9839 62.2461 77.6028C69.2626 79.0855 75.0131 80.4214 78.8317 85.5128C84.1901 92.6574 83.4771 99.8512 81.762 106.181Z" fill="url(#paint10_radial_1079_3844)"/>
<g filter="url(#filter1_f_1079_3844)">
<path d="M96.7337 74.305C96.674 76.7788 91.7203 84.4383 91.7203 84.4383C91.7203 84.4383 90.4027 86.4766 87.7395 86.2776C85.9534 86.1441 81.5047 86.1099 80.6455 86.387C78.3547 87.1261 77.6745 84.8499 77.6745 84.8499C77.6745 84.8499 78.7646 79.0726 81.4634 76.0681C83.8304 73.4329 88.402 69.5522 90.8004 69.2879C92.5291 69.0974 94.1455 68.8509 95.2515 70.4082C96.1957 71.7377 96.7846 72.1931 96.7337 74.305Z" fill="#AB78C9"/>
</g>
<path d="M91.3558 84.5483C91.3558 84.5483 92.434 82.2139 93.9537 80.8077C95.4493 79.4237 96.3597 76.3875 96.3986 74.8176C96.4376 73.2477 96.442 72.5032 95.4402 71.379C94.2668 70.0622 92.5346 69.5247 90.8424 69.6685C86.7061 70.0199 82.2646 74.9715 80.3423 77.382C78.3607 79.8669 77.1768 85.7772 77.1768 85.7772" stroke="url(#paint11_linear_1079_3844)" stroke-width="2.55163" stroke-linecap="round"/>
<path d="M60.4681 57.4047C61.8715 52.6107 59.8761 47.3989 54.2482 45.7306C50.222 44.5371 44.2183 47.3778 42.8149 52.1718C41.4114 56.9658 44.3786 61.0008 49.3072 62.4437C54.2359 63.8866 59.0646 62.1987 60.4681 57.4047Z" fill="#664BBF"/>
<path d="M60.4681 57.4047C61.8715 52.6107 59.8761 47.3989 54.2482 45.7306C50.222 44.5371 44.2183 47.3778 42.8149 52.1718C41.4114 56.9658 44.3786 61.0008 49.3072 62.4437C54.2359 63.8866 59.0646 62.1987 60.4681 57.4047Z" fill="url(#paint12_linear_1079_3844)"/>
<ellipse cx="63.2913" cy="64.5884" rx="12.9265" ry="11.4389" transform="rotate(10.5626 63.2913 64.5884)" fill="url(#paint13_linear_1079_3844)"/>
<path d="M64.0098 56.5422C66.6349 56.614 68.6554 58.6281 68.5913 60.9778C68.527 63.3261 66.3662 65.2281 63.774 65.1571C62.727 65.1283 61.5559 64.6148 60.653 63.7899C59.7515 62.9662 59.1619 61.874 59.1935 60.7205C59.258 58.3709 61.385 56.4705 64.0098 56.5422Z" fill="#664BBF"/>
<path d="M64.0098 56.5422C66.6349 56.614 68.6554 58.6281 68.5913 60.9778C68.527 63.3261 66.3662 65.2281 63.774 65.1571C62.727 65.1283 61.5559 64.6148 60.653 63.7899C59.7515 62.9662 59.1619 61.874 59.1935 60.7205C59.258 58.3709 61.385 56.4705 64.0098 56.5422Z" fill="url(#paint14_linear_1079_3844)"/>
<path d="M64.0098 56.5422C66.6349 56.614 68.6554 58.6281 68.5913 60.9778C68.527 63.3261 66.3662 65.2281 63.774 65.1571C62.727 65.1283 61.5559 64.6148 60.653 63.7899C59.7515 62.9662 59.1619 61.874 59.1935 60.7205C59.258 58.3709 61.385 56.4705 64.0098 56.5422Z" stroke="url(#paint15_linear_1079_3844)" stroke-width="0.783427"/>
<path d="M52.4092 70.2342C51.6962 69.1647 51.0686 68.5363 50.8645 66.2576C50.6604 63.9789 51.1024 61.6907 52.1446 59.641C53.187 57.5909 54.7915 55.8549 56.7885 54.6262C58.7859 53.3974 61.0977 52.7246 63.4718 52.6854C65.846 52.6462 68.1863 53.2423 70.2367 54.4061C72.2869 55.5697 73.9657 57.2543 75.0948 59.2716C76.2237 61.2885 76.761 63.5623 76.6523 65.8457C76.5437 68.1291 76.1942 70.4064 75.1305 72.4277" stroke="url(#paint16_linear_1079_3844)" stroke-width="3.06195" stroke-linecap="round" stroke-linejoin="round"/>
<ellipse cx="87.0538" cy="54.6895" rx="1.84292" ry="1.24364" transform="rotate(41.3824 87.0538 54.6895)" fill="#EDE9E9"/>
<ellipse cx="54.9709" cy="50.4113" rx="1.84292" ry="1.24364" transform="rotate(38.7347 54.9709 50.4113)" fill="#EDE9E9"/>
<g style="mix-blend-mode:screen" opacity="0.78">
<g filter="url(#filter2_f_1079_3844)">
<circle cx="110.628" cy="46.6272" r="21.6884" transform="rotate(41.902 110.628 46.6272)" fill="url(#paint17_radial_1079_3844)"/>
</g>
<g filter="url(#filter3_f_1079_3844)">
<path d="M121.697 33.3048C122.684 34.1358 125.085 35.4955 126.77 40.893C127.459 43.1006 127.515 46.4941 127.72 48.8746C127.756 49.2943 127.652 49.9562 127.488 50.6777C127.495 50.8189 127.493 50.8924 127.493 50.8924L127.163 51.942C126.799 53.2333 126.394 54.3841 126.394 54.3841L127.163 51.942C127.281 51.5238 127.394 51.091 127.488 50.6777C127.459 50.1199 127.286 48.5061 126.291 46.1995C125.044 43.309 123.993 40.9677 122.85 39.1009C120.711 35.6068 115.905 32.3031 115.905 32.3031C115.905 32.3031 118.373 31.995 119.295 32.2119C120.216 32.4287 120.587 32.3702 121.697 33.3048Z" fill="url(#paint18_linear_1079_3844)"/>
</g>
</g>
<g style="mix-blend-mode:screen" opacity="0.78">
<g filter="url(#filter4_f_1079_3844)">
<circle cx="104.191" cy="141.048" r="14.4216" transform="rotate(2.50532 104.191 141.048)" fill="url(#paint19_radial_1079_3844)"/>
</g>
<g filter="url(#filter5_f_1079_3844)">
<path d="M104.255 129.531C105.113 129.541 106.921 129.226 110.064 131.289C111.35 132.132 112.811 133.852 113.921 134.989C114.117 135.19 114.342 135.574 114.563 136.014C114.626 136.083 114.656 136.122 114.656 136.122L114.929 136.8C115.288 137.617 115.565 138.38 115.565 138.38L114.929 136.8C114.813 136.536 114.689 136.266 114.563 136.014C114.312 135.739 113.543 134.983 112.058 134.218C110.197 133.259 108.669 132.499 107.294 132.022C104.72 131.13 100.856 131.46 100.856 131.46C100.856 131.46 101.994 130.26 102.56 129.983C103.125 129.705 103.29 129.519 104.255 129.531Z" fill="url(#paint20_linear_1079_3844)"/>
</g>
</g>
<g style="mix-blend-mode:screen" opacity="0.78">
<g filter="url(#filter6_f_1079_3844)">
<circle cx="104.121" cy="141.045" r="12.187" transform="rotate(2.50532 104.121 141.045)" fill="url(#paint21_radial_1079_3844)"/>
</g>
</g>
<g style="mix-blend-mode:screen" opacity="0.78">
<g filter="url(#filter7_f_1079_3844)">
<circle cx="16.7019" cy="54.5766" r="9.42321" transform="rotate(-9.85689 16.7019 54.5766)" fill="url(#paint22_radial_1079_3844)"/>
</g>
<g filter="url(#filter8_f_1079_3844)">
<path d="M15.1319 47.2165C15.6809 47.1031 16.7906 46.6495 19.0856 47.5261C20.0242 47.8847 21.1974 48.7781 22.0647 49.3485C22.2176 49.4491 22.4154 49.6627 22.6176 49.9126C22.6678 49.948 22.6924 49.9684 22.6924 49.9684L22.9617 50.3634C23.3046 50.8348 23.5883 51.2825 23.5883 51.2825L22.9617 50.3634C22.8506 50.2108 22.7334 50.0557 22.6176 49.9126C22.4194 49.7725 21.8224 49.3973 20.7676 49.1166C19.4458 48.765 18.3642 48.494 17.4198 48.3819C15.6522 48.1721 13.2324 48.9236 13.2324 48.9236C13.2324 48.9236 13.7909 47.9986 14.1128 47.7424C14.4347 47.4862 14.5144 47.344 15.1319 47.2165Z" fill="url(#paint23_linear_1079_3844)"/>
</g>
</g>
<g style="mix-blend-mode:screen" opacity="0.78">
<g filter="url(#filter9_f_1079_3844)">
<circle cx="16.657" cy="54.5846" r="7.96312" transform="rotate(-9.85689 16.657 54.5846)" fill="url(#paint24_radial_1079_3844)"/>
</g>
</g>
<g filter="url(#filter10_f_1079_3844)">
<path d="M121.792 33.305C122.779 34.1359 125.18 35.4956 126.865 40.8932C127.554 43.1007 127.61 46.4942 127.815 48.8747C127.851 49.2945 127.746 49.9563 127.583 50.6778C127.59 50.819 127.588 50.8926 127.588 50.8926L127.258 51.9421C126.894 53.2334 126.489 54.3842 126.489 54.3842L127.258 51.9421C127.375 51.524 127.489 51.0911 127.583 50.6778C127.554 50.12 127.381 48.5062 126.386 46.1996C125.138 43.3091 124.087 40.9679 122.945 39.101C120.806 35.6069 116 32.3032 116 32.3032C116 32.3032 118.468 31.9951 119.389 32.212C120.311 32.4288 120.682 32.3703 121.792 33.305Z" fill="url(#paint25_linear_1079_3844)"/>
</g>
<g style="mix-blend-mode:screen" opacity="0.78">
<g filter="url(#filter11_f_1079_3844)">
<circle cx="110.489" cy="46.5025" r="15.6471" transform="rotate(41.902 110.489 46.5025)" fill="url(#paint26_radial_1079_3844)"/>
</g>
<g filter="url(#filter12_f_1079_3844)">
<circle cx="110.49" cy="46.5026" r="19.3412" transform="rotate(41.902 110.49 46.5026)" fill="url(#paint27_radial_1079_3844)"/>
</g>
</g>
<g style="mix-blend-mode:darken" opacity="0.1" filter="url(#filter13_f_1079_3844)">
<g filter="url(#filter14_f_1079_3844)">
<circle cx="15.9209" cy="55.7398" r="7.36405" transform="rotate(-27.3989 15.9209 55.7398)" fill="url(#paint28_radial_1079_3844)"/>
</g>
</g>
<defs>
<filter id="filter0_f_1079_3844" x="9.84012" y="130.059" width="110.7" height="31.16" filterUnits="userSpaceOnUse" color-interpolation-filters="sRGB">
<feFlood flood-opacity="0" result="BackgroundImageFix"/>
<feBlend mode="normal" in="SourceGraphic" in2="BackgroundImageFix" result="shape"/>
<feGaussianBlur stdDeviation="1.64" result="effect1_foregroundBlur_1079_3844"/>
</filter>
<filter id="filter1_f_1079_3844" x="76.6542" y="68.1263" width="21.1028" height="19.429" filterUnits="userSpaceOnUse" color-interpolation-filters="sRGB">
<feFlood flood-opacity="0" result="BackgroundImageFix"/>
<feBlend mode="normal" in="SourceGraphic" in2="BackgroundImageFix" result="shape"/>
<feGaussianBlur stdDeviation="0.510325" result="effect1_foregroundBlur_1079_3844"/>
</filter>
<filter id="filter2_f_1079_3844" x="87.5977" y="23.5969" width="46.0614" height="46.0607" filterUnits="userSpaceOnUse" color-interpolation-filters="sRGB">
<feFlood flood-opacity="0" result="BackgroundImageFix"/>
<feBlend mode="normal" in="SourceGraphic" in2="BackgroundImageFix" result="shape"/>
<feGaussianBlur stdDeviation="0.670857" result="effect1_foregroundBlur_1079_3844"/>
</filter>
<filter id="filter3_f_1079_3844" x="113.653" y="29.8819" width="16.3266" height="26.7548" filterUnits="userSpaceOnUse" color-interpolation-filters="sRGB">
<feFlood flood-opacity="0" result="BackgroundImageFix"/>
<feBlend mode="normal" in="SourceGraphic" in2="BackgroundImageFix" result="shape"/>
<feGaussianBlur stdDeviation="1.12632" result="effect1_foregroundBlur_1079_3844"/>
</filter>
<filter id="filter4_f_1079_3844" x="88.8774" y="125.734" width="30.6281" height="30.628" filterUnits="userSpaceOnUse" color-interpolation-filters="sRGB">
<feFlood flood-opacity="0" result="BackgroundImageFix"/>
<feBlend mode="normal" in="SourceGraphic" in2="BackgroundImageFix" result="shape"/>
<feGaussianBlur stdDeviation="0.446081" result="effect1_foregroundBlur_1079_3844"/>
</filter>
<filter id="filter5_f_1079_3844" x="99.3586" y="128.021" width="17.7047" height="11.8565" filterUnits="userSpaceOnUse" color-interpolation-filters="sRGB">
<feFlood flood-opacity="0" result="BackgroundImageFix"/>
<feBlend mode="normal" in="SourceGraphic" in2="BackgroundImageFix" result="shape"/>
<feGaussianBlur stdDeviation="0.74894" result="effect1_foregroundBlur_1079_3844"/>
</filter>
<filter id="filter6_f_1079_3844" x="91.1797" y="128.104" width="25.8829" height="25.8822" filterUnits="userSpaceOnUse" color-interpolation-filters="sRGB">
<feFlood flood-opacity="0" result="BackgroundImageFix"/>
<feBlend mode="normal" in="SourceGraphic" in2="BackgroundImageFix" result="shape"/>
<feGaussianBlur stdDeviation="0.376963" result="effect1_foregroundBlur_1079_3844"/>
</filter>
<filter id="filter7_f_1079_3844" x="6.69439" y="44.5689" width="20.0155" height="20.0154" filterUnits="userSpaceOnUse" color-interpolation-filters="sRGB">
<feFlood flood-opacity="0" result="BackgroundImageFix"/>
<feBlend mode="normal" in="SourceGraphic" in2="BackgroundImageFix" result="shape"/>
<feGaussianBlur stdDeviation="0.291475" result="effect1_foregroundBlur_1079_3844"/>
</filter>
<filter id="filter8_f_1079_3844" x="12.2537" y="46.0194" width="12.3129" height="6.24176" filterUnits="userSpaceOnUse" color-interpolation-filters="sRGB">
<feFlood flood-opacity="0" result="BackgroundImageFix"/>
<feBlend mode="normal" in="SourceGraphic" in2="BackgroundImageFix" result="shape"/>
<feGaussianBlur stdDeviation="0.489366" result="effect1_foregroundBlur_1079_3844"/>
</filter>
<filter id="filter9_f_1079_3844" x="8.19976" y="46.1275" width="16.914" height="16.9141" filterUnits="userSpaceOnUse" color-interpolation-filters="sRGB">
<feFlood flood-opacity="0" result="BackgroundImageFix"/>
<feBlend mode="normal" in="SourceGraphic" in2="BackgroundImageFix" result="shape"/>
<feGaussianBlur stdDeviation="0.246312" result="effect1_foregroundBlur_1079_3844"/>
</filter>
<filter id="filter10_f_1079_3844" x="113.747" y="29.882" width="16.3266" height="26.7548" filterUnits="userSpaceOnUse" color-interpolation-filters="sRGB">
<feFlood flood-opacity="0" result="BackgroundImageFix"/>
<feBlend mode="normal" in="SourceGraphic" in2="BackgroundImageFix" result="shape"/>
<feGaussianBlur stdDeviation="1.12632" result="effect1_foregroundBlur_1079_3844"/>
</filter>
<filter id="filter11_f_1079_3844" x="93.8738" y="29.8872" width="33.2299" height="33.2305" filterUnits="userSpaceOnUse" color-interpolation-filters="sRGB">
<feFlood flood-opacity="0" result="BackgroundImageFix"/>
<feBlend mode="normal" in="SourceGraphic" in2="BackgroundImageFix" result="shape"/>
<feGaussianBlur stdDeviation="0.48399" result="effect1_foregroundBlur_1079_3844"/>
</filter>
<filter id="filter12_f_1079_3844" x="90.1805" y="26.1932" width="40.6186" height="40.6188" filterUnits="userSpaceOnUse" color-interpolation-filters="sRGB">
<feFlood flood-opacity="0" result="BackgroundImageFix"/>
<feBlend mode="normal" in="SourceGraphic" in2="BackgroundImageFix" result="shape"/>
<feGaussianBlur stdDeviation="0.48399" result="effect1_foregroundBlur_1079_3844"/>
</filter>
<filter id="filter13_f_1079_3844" x="1.99316" y="42.0227" width="27.4492" height="27.6439" filterUnits="userSpaceOnUse" color-interpolation-filters="sRGB">
<feFlood flood-opacity="0" result="BackgroundImageFix"/>
<feBlend mode="normal" in="SourceGraphic" in2="BackgroundImageFix" result="shape"/>
<feGaussianBlur stdDeviation="2" result="effect1_foregroundBlur_1079_3844"/>
</filter>
<filter id="filter14_f_1079_3844" x="8.1001" y="47.9186" width="15.6416" height="15.6423" filterUnits="userSpaceOnUse" color-interpolation-filters="sRGB">
<feFlood flood-opacity="0" result="BackgroundImageFix"/>
<feBlend mode="normal" in="SourceGraphic" in2="BackgroundImageFix" result="shape"/>
<feGaussianBlur stdDeviation="0.227782" result="effect1_foregroundBlur_1079_3844"/>
</filter>
<radialGradient id="paint0_radial_1079_3844" cx="0" cy="0" r="1" gradientUnits="userSpaceOnUse" gradientTransform="translate(65.1901 145.639) scale(52.07 12.3)">
<stop offset="0.594942" stop-opacity="0.2"/>
<stop offset="1" stop-opacity="0"/>
</radialGradient>
<linearGradient id="paint1_linear_1079_3844" x1="25.6462" y1="69.8873" x2="24.4532" y2="84.3799" gradientUnits="userSpaceOnUse">
<stop offset="0.576067" stop-color="#593873"/>
<stop offset="1" stop-color="#814D9F"/>
</linearGradient>
<linearGradient id="paint2_linear_1079_3844" x1="108.048" y1="39.4161" x2="84.289" y2="42.4421" gradientUnits="userSpaceOnUse">
<stop offset="0.576067" stop-color="#593873"/>
<stop offset="1" stop-color="#814D9F"/>
</linearGradient>
<linearGradient id="paint3_linear_1079_3844" x1="38.6039" y1="30.1905" x2="60.5686" y2="39.7404" gradientUnits="userSpaceOnUse">
<stop offset="0.576067" stop-color="#593873"/>
<stop offset="1" stop-color="#814D9F"/>
</linearGradient>
<linearGradient id="paint4_linear_1079_3844" x1="119.091" y1="90.1763" x2="106.256" y2="136.838" gradientUnits="userSpaceOnUse">
<stop stop-color="#C5B8E8"/>
<stop offset="1" stop-color="#9887C7"/>
</linearGradient>
<linearGradient id="paint5_linear_1079_3844" x1="119.091" y1="90.1763" x2="106.256" y2="136.838" gradientUnits="userSpaceOnUse">
<stop offset="0.576067" stop-color="#593873"/>
<stop offset="1" stop-color="#814D9F"/>
</linearGradient>
<linearGradient id="paint6_linear_1079_3844" x1="65.3137" y1="27.8194" x2="77.8112" y2="154.794" gradientUnits="userSpaceOnUse">
<stop offset="0.0545617" stop-color="#D5CBEF"/>
<stop offset="0.153725" stop-color="#E0DAF1"/>
<stop offset="0.472745" stop-color="#D4C4EC"/>
<stop offset="0.663723" stop-color="#CFB4E7"/>
<stop offset="0.795744" stop-color="#C6A0E2"/>
</linearGradient>
<linearGradient id="paint7_linear_1079_3844" x1="65.2707" y1="28.3379" x2="56.0149" y2="139.518" gradientUnits="userSpaceOnUse">
<stop offset="0.576067" stop-color="#593873"/>
<stop offset="1" stop-color="#814D9F"/>
</linearGradient>
<linearGradient id="paint8_linear_1079_3844" x1="71.9593" y1="35.6588" x2="65.7907" y2="72.5647" gradientUnits="userSpaceOnUse">
<stop stop-color="#C1A1F2"/>
<stop offset="1" stop-color="#C5A3CB"/>
</linearGradient>
<linearGradient id="paint9_linear_1079_3844" x1="80.1205" y1="66.8265" x2="85.0172" y2="50.1003" gradientUnits="userSpaceOnUse">
<stop offset="0.576067" stop-color="#673A7B"/>
<stop offset="1" stop-color="#47235F"/>
</linearGradient>
<radialGradient id="paint10_radial_1079_3844" cx="0" cy="0" r="1" gradientUnits="userSpaceOnUse" gradientTransform="translate(62.8394 100.383) rotate(106.558) scale(38.7919 40.6011)">
<stop offset="0.965597" stop-color="#E6E2F2"/>
<stop offset="1" stop-color="#BFB3E7" stop-opacity="0"/>
</radialGradient>
<linearGradient id="paint11_linear_1079_3844" x1="84.3567" y1="88.2696" x2="90.9896" y2="69.1614" gradientUnits="userSpaceOnUse">
<stop offset="0.576067" stop-color="#593873"/>
<stop offset="1" stop-color="#814D9F"/>
</linearGradient>
<linearGradient id="paint12_linear_1079_3844" x1="49.3929" y1="62.4688" x2="54.2896" y2="45.7427" gradientUnits="userSpaceOnUse">
<stop offset="0.576067" stop-color="#673A7B"/>
<stop offset="1" stop-color="#47235F"/>
</linearGradient>
<linearGradient id="paint13_linear_1079_3844" x1="63.2913" y1="53.1495" x2="66.2569" y2="75.1918" gradientUnits="userSpaceOnUse">
<stop offset="0.837906" stop-color="#C8BDE7"/>
<stop offset="1" stop-color="#D4C4EC" stop-opacity="0"/>
</linearGradient>
<linearGradient id="paint14_linear_1079_3844" x1="64.021" y1="56.1507" x2="63.7637" y2="65.5483" gradientUnits="userSpaceOnUse">
<stop offset="0.576067" stop-color="#613F70"/>
<stop offset="1" stop-color="#874F7A"/>
</linearGradient>
<linearGradient id="paint15_linear_1079_3844" x1="64.021" y1="56.1507" x2="63.7637" y2="65.5483" gradientUnits="userSpaceOnUse">
<stop offset="0.576067" stop-color="#633F70"/>
<stop offset="1" stop-color="#5D4F87"/>
</linearGradient>
<linearGradient id="paint16_linear_1079_3844" x1="64.5217" y1="52.7095" x2="63.3387" y2="71.6929" gradientUnits="userSpaceOnUse">
<stop offset="0.576067" stop-color="#593873"/>
<stop offset="1" stop-color="#814D9F"/>
</linearGradient>
<radialGradient id="paint17_radial_1079_3844" cx="0" cy="0" r="1" gradientUnits="userSpaceOnUse" gradientTransform="translate(113.397 43.6278) rotate(151.314) scale(27.879 33.1661)">
<stop offset="0.137105" stop-color="#EAC473"/>
<stop offset="0.527405" stop-color="#E8984E"/>
<stop offset="0.814714" stop-color="#FA8C67"/>
<stop offset="1" stop-color="#D19DCC"/>
</radialGradient>
<linearGradient id="paint18_linear_1079_3844" x1="120.259" y1="32.6379" x2="126.297" y2="54.9242" gradientUnits="userSpaceOnUse">
<stop stop-color="#E5F5F3"/>
<stop offset="1" stop-color="#A4DEDA"/>
</linearGradient>
<radialGradient id="paint19_radial_1079_3844" cx="0" cy="0" r="1" gradientUnits="userSpaceOnUse" gradientTransform="translate(106.032 139.053) rotate(151.314) scale(18.5379 22.0536)">
<stop offset="0.137105" stop-color="#EAC473"/>
<stop offset="0.527405" stop-color="#E8984E"/>
<stop offset="0.814714" stop-color="#FA8C67"/>
<stop offset="1" stop-color="#D19DCC"/>
</radialGradient>
<linearGradient id="paint20_linear_1079_3844" x1="103.235" y1="129.795" x2="115.743" y2="138.698" gradientUnits="userSpaceOnUse">
<stop stop-color="#E5F5F3"/>
<stop offset="1" stop-color="#A4DEDA"/>
</linearGradient>
<radialGradient id="paint21_radial_1079_3844" cx="0" cy="0" r="1" gradientUnits="userSpaceOnUse" gradientTransform="translate(105.677 139.36) rotate(151.314) scale(15.6655 18.6364)">
<stop offset="0.137105" stop-color="#EAC473"/>
<stop offset="0.527405" stop-color="#E8984E"/>
<stop offset="0.814714" stop-color="#FA8C67"/>
<stop offset="1" stop-color="#D19DCC"/>
</radialGradient>
<radialGradient id="paint22_radial_1079_3844" cx="0" cy="0" r="1" gradientUnits="userSpaceOnUse" gradientTransform="translate(17.9049 53.2734) rotate(151.314) scale(12.1129 14.41)">
<stop offset="0.137105" stop-color="#EAC473"/>
<stop offset="0.527405" stop-color="#E8984E"/>
<stop offset="0.814714" stop-color="#FA8C67"/>
<stop offset="1" stop-color="#D19DCC"/>
</radialGradient>
<linearGradient id="paint23_linear_1079_3844" x1="14.5176" y1="47.5278" x2="23.7464" y2="51.461" gradientUnits="userSpaceOnUse">
<stop stop-color="#E5F5F3"/>
<stop offset="1" stop-color="#A4DEDA"/>
</linearGradient>
<radialGradient id="paint24_radial_1079_3844" cx="0" cy="0" r="1" gradientUnits="userSpaceOnUse" gradientTransform="translate(17.6736 53.4833) rotate(151.314) scale(10.236 12.1773)">
<stop offset="0.137105" stop-color="#EAC473"/>
<stop offset="0.527405" stop-color="#E8984E"/>
<stop offset="0.814714" stop-color="#FA8C67"/>
<stop offset="1" stop-color="#D19DCC"/>
</radialGradient>
<linearGradient id="paint25_linear_1079_3844" x1="120.354" y1="32.638" x2="126.392" y2="54.9244" gradientUnits="userSpaceOnUse">
<stop stop-color="#E5F5F3"/>
<stop offset="1" stop-color="#A4DEDA"/>
</linearGradient>
<radialGradient id="paint26_radial_1079_3844" cx="0" cy="0" r="1" gradientUnits="userSpaceOnUse" gradientTransform="translate(112.486 44.3386) rotate(151.314) scale(20.1133 23.9277)">
<stop offset="0.137105" stop-color="#EAC473"/>
<stop offset="0.527405" stop-color="#E8984E"/>
<stop offset="0.814714" stop-color="#FA8C67"/>
<stop offset="1" stop-color="#D19DCC"/>
</radialGradient>
<radialGradient id="paint27_radial_1079_3844" cx="0" cy="0" r="1" gradientUnits="userSpaceOnUse" gradientTransform="translate(112.959 43.8277) rotate(151.314) scale(24.8618 29.5767)">
<stop offset="0.137105" stop-color="#EAC473"/>
<stop offset="0.527405" stop-color="#E8984E"/>
<stop offset="0.814714" stop-color="#FA8C67"/>
<stop offset="1" stop-color="#D19DCC"/>
</radialGradient>
<radialGradient id="paint28_radial_1079_3844" cx="0" cy="0" r="1" gradientUnits="userSpaceOnUse" gradientTransform="translate(16.861 54.7213) rotate(151.314) scale(9.46597 11.2612)">
<stop offset="0.137105" stop-color="#EAC473"/>
<stop offset="0.527405" stop-color="#E8984E"/>
<stop offset="0.814714" stop-color="#FA8C67"/>
<stop offset="1" stop-color="#D19DCC"/>
</radialGradient>
</defs>
</svg>
