<svg width="230" height="230" viewBox="0 0 230 230" fill="none" xmlns="http://www.w3.org/2000/svg">
<g filter="url(#filter0_f_1004_4294)">
<ellipse cx="91.4254" cy="204.25" rx="73.025" ry="17.25" fill="url(#paint0_radial_1004_4294)"/>
</g>
<path d="M150 157L147 140.5L141.5 162L150 157Z" fill="#4B3F70"/>
<g filter="url(#filter1_f_1004_4294)">
<path d="M26.5369 101.832C33.2039 98.8848 31.9546 100.036 35.4779 98.803C41.885 96.5609 45.9677 95.3636 45.9677 95.3636L51.3067 115.19C51.3067 115.19 48.3677 115.912 46.5273 116.459C36.7848 119.349 36.5604 119.83 31.0306 118.069C26.4806 116.62 23.9049 115.073 22.7261 110.931C21.7118 107.367 22.7937 103.487 26.5369 101.832Z" fill="#7C6CB3"/>
</g>
<path d="M38.3431 98.2087C34.7675 99.4076 28.808 100.401 25.8579 102.331C22.539 104.502 22.0453 107.565 23.0833 111.063C24.2896 115.129 27.5864 116.355 32.2106 117.789C37.8307 119.532 41.831 117.619 47.5793 116.338" stroke="#664BBF" stroke-width="3.21816" stroke-linecap="round"/>
<path d="M38.3431 98.2087C34.7675 99.4076 28.808 100.401 25.8579 102.331C22.539 104.502 22.0453 107.565 23.0833 111.063C24.2896 115.129 27.5864 116.355 32.2106 117.789C37.8307 119.532 41.831 117.619 47.5793 116.338" stroke="url(#paint1_linear_1004_4294)" stroke-width="3.21816" stroke-linecap="round"/>
<path d="M148.71 67.2657C145.397 73.2352 137.224 75.8775 137.224 75.8775L116.607 46.9448C116.607 46.9448 123.049 41.0855 129.112 39.8733C134.059 38.884 142.087 38.6011 148.309 47.4888C154.532 56.3765 150.581 63.8962 148.71 67.2657Z" fill="#D4C5EC"/>
<path d="M148.71 67.2657C145.397 73.2352 137.224 75.8775 137.224 75.8775L116.607 46.9448C116.607 46.9448 123.049 41.0855 129.112 39.8733C134.059 38.884 142.087 38.6011 148.309 47.4888C154.532 56.3765 150.581 63.8962 148.71 67.2657Z" stroke="#664BBF" stroke-width="3.5785" stroke-linecap="round"/>
<path d="M148.71 67.2657C145.397 73.2352 137.224 75.8775 137.224 75.8775L116.607 46.9448C116.607 46.9448 123.049 41.0855 129.112 39.8733C134.059 38.884 142.087 38.6011 148.309 47.4888C154.532 56.3765 150.581 63.8962 148.71 67.2657Z" stroke="url(#paint2_linear_1004_4294)" stroke-width="3.5785" stroke-linecap="round"/>
<path d="M130.219 44.9756C124.822 45.494 118.195 50.7351 118.195 50.7351L138.825 71.5779C138.825 71.5779 144.127 67.7069 145.332 63.0156L145.336 63.0031C146.057 60.1949 147.37 55.0874 143.007 50.1989C138.638 45.3032 135.227 44.4945 130.219 44.9756Z" fill="#4B3F70"/>
<ellipse cx="130.817" cy="67.541" rx="26.6044" ry="11.4419" transform="rotate(52.7591 130.817 67.541)" fill="#FEFEFE"/>
<path d="M53.4952 54.6375C55.0065 61.2954 62.1148 66.1181 62.1148 66.1181L90.0006 44.1058C90.0006 44.1058 85.4544 36.6787 79.9728 33.8193C75.4996 31.4859 67.8713 28.9692 59.4114 35.762C50.9515 42.5548 52.6421 50.8795 53.4952 54.6375Z" fill="#D4C5EC"/>
<path d="M53.4952 54.6375C55.0065 61.2954 62.1148 66.1181 62.1148 66.1181L90.0006 44.1058C90.0006 44.1058 85.4544 36.6787 79.9728 33.8193C75.4996 31.4859 67.8713 28.9692 59.4114 35.762C50.9515 42.5548 52.6421 50.8795 53.4952 54.6375Z" stroke="#664BBF" stroke-width="3.5785" stroke-linecap="round"/>
<path d="M53.4952 54.6375C55.0065 61.2954 62.1148 66.1181 62.1148 66.1181L90.0006 44.1058C90.0006 44.1058 85.4544 36.6787 79.9728 33.8193C75.4996 31.4859 67.8713 28.9692 59.4114 35.762C50.9515 42.5548 52.6421 50.8795 53.4952 54.6375Z" stroke="url(#paint3_linear_1004_4294)" stroke-width="3.5785" stroke-linecap="round"/>
<path d="M77.4824 38.4095C82.5198 40.4169 87.4157 47.3019 87.4157 47.3019L61.78 61.5435C61.78 61.5435 57.7725 56.3443 57.9271 51.503L57.9276 51.4901C58.0201 48.5923 58.1884 43.3214 63.7442 39.8482C69.3083 36.3697 72.8088 36.5471 77.4824 38.4095Z" fill="#4B3F70"/>
<ellipse cx="26.6044" cy="11.4419" rx="26.6044" ry="11.4419" transform="matrix(-0.803663 0.595085 0.595085 0.803663 85.1699 34.8796)" fill="#FEFEFE"/>
<path d="M197.019 138.547C200.071 141.519 202.702 148.169 202.662 152.21C202.605 157.925 195.711 179.16 186.187 184.94C178.16 189.811 170.549 188.728 166.402 187.588C161.196 186.156 157.736 184.617 153.887 183.252C150.494 182.049 146.8 180.981 141.343 180.239C140.424 180.114 139.455 179.998 138.429 179.893C136.721 179.717 135.235 179.351 133.921 179.266C131.333 178.952 128.566 179.289 126.464 179.636C124.363 179.982 118.386 183.481 118.386 183.481L118.233 146.358C118.233 146.358 127.849 143.647 136.031 138.781C141.079 135.78 146.304 133.436 151.668 131.765C157.41 129.976 163.311 128.957 169.327 128.726C171.933 128.626 173.66 128.729 176.259 129.253C178.715 129.747 183.362 130.728 187.037 132.295C189.731 133.444 194.727 136.315 197.019 138.547Z" fill="url(#paint4_linear_1004_4294)"/>
<path d="M126.464 179.636C124.363 179.982 118.386 183.481 118.386 183.481L118.233 146.358C118.233 146.358 127.849 143.647 136.031 138.781C141.079 135.78 146.304 133.436 151.668 131.765M126.464 179.636C128.566 179.289 131.333 178.952 133.921 179.266M126.464 179.636L126.203 174.507L137.503 151.659C137.503 151.659 138.664 158.58 138.388 163.027C137.982 169.589 133.921 179.266 133.921 179.266M169.544 187.104C169.544 187.104 174.68 180.011 179 172.175C183.28 164.412 182.935 163.909 185.606 155.452C186.447 152.789 187.318 144.386 187.411 141.597C187.511 138.628 187.037 132.295 187.037 132.295M187.037 132.295C183.362 130.728 178.715 129.747 176.259 129.253C173.66 128.729 171.933 128.626 169.327 128.726M187.037 132.295C189.731 133.444 194.727 136.315 197.019 138.547C200.071 141.519 202.702 148.169 202.662 152.21C202.605 157.925 195.711 179.16 186.187 184.94C178.16 189.811 170.549 188.728 166.402 187.588C161.196 186.156 157.736 184.617 153.887 183.252M153.887 183.252C153.887 183.252 161.114 173.997 164.426 166.818C166.408 162.522 170.536 150.657 170.546 144.568C170.555 139.535 169.327 128.726 169.327 128.726M153.887 183.252C150.494 182.049 146.8 180.981 141.343 180.239M169.327 128.726C163.311 128.957 157.41 129.976 151.668 131.765M151.668 131.765C151.668 131.765 152.381 138.897 152.504 143.313C152.626 147.729 150.951 152.661 150.126 156.817C149.301 160.972 147.487 167.011 145.816 172.486C144.607 176.45 141.343 180.239 141.343 180.239M141.343 180.239C140.424 180.114 139.455 179.998 138.429 179.893C136.721 179.717 135.235 179.351 133.921 179.266" stroke="#664BBF" stroke-width="3.5785" stroke-linecap="round"/>
<path d="M126.464 179.636C124.363 179.982 118.386 183.481 118.386 183.481L118.233 146.358C118.233 146.358 127.849 143.647 136.031 138.781C141.079 135.78 146.304 133.436 151.668 131.765M126.464 179.636C128.566 179.289 131.333 178.952 133.921 179.266M126.464 179.636L126.203 174.507L137.503 151.659C137.503 151.659 138.664 158.58 138.388 163.027C137.982 169.589 133.921 179.266 133.921 179.266M169.544 187.104C169.544 187.104 174.68 180.011 179 172.175C183.28 164.412 182.935 163.909 185.606 155.452C186.447 152.789 187.318 144.386 187.411 141.597C187.511 138.628 187.037 132.295 187.037 132.295M187.037 132.295C183.362 130.728 178.715 129.747 176.259 129.253C173.66 128.729 171.933 128.626 169.327 128.726M187.037 132.295C189.731 133.444 194.727 136.315 197.019 138.547C200.071 141.519 202.702 148.169 202.662 152.21C202.605 157.925 195.711 179.16 186.187 184.94C178.16 189.811 170.549 188.728 166.402 187.588C161.196 186.156 157.736 184.617 153.887 183.252M153.887 183.252C153.887 183.252 161.114 173.997 164.426 166.818C166.408 162.522 170.536 150.657 170.546 144.568C170.555 139.535 169.327 128.726 169.327 128.726M153.887 183.252C150.494 182.049 146.8 180.981 141.343 180.239M169.327 128.726C163.311 128.957 157.41 129.976 151.668 131.765M151.668 131.765C151.668 131.765 152.381 138.897 152.504 143.313C152.626 147.729 150.951 152.661 150.126 156.817C149.301 160.972 147.487 167.011 145.816 172.486C144.607 176.45 141.343 180.239 141.343 180.239M141.343 180.239C140.424 180.114 139.455 179.998 138.429 179.893C136.721 179.717 135.235 179.351 133.921 179.266" stroke="url(#paint5_linear_1004_4294)" stroke-width="3.5785" stroke-linecap="round"/>
<path d="M126.465 179.635C128.566 179.288 131.333 178.952 133.922 179.266C133.922 179.266 137.982 169.589 138.389 163.026C138.664 158.579 137.504 151.659 137.504 151.659L126.204 174.507L126.465 179.635Z" fill="#4B3F70"/>
<path d="M164.585 166.034C161.272 173.213 154.046 182.468 154.046 182.468C150.653 181.265 146.959 180.197 141.502 179.455C141.502 179.455 144.765 175.666 145.975 171.702C147.646 166.227 149.46 160.188 150.285 156.033C151.11 151.877 152.785 146.945 152.663 142.529C152.54 138.113 151.827 130.981 151.827 130.981C157.569 129.192 163.47 128.173 169.486 127.942C169.486 127.942 170.714 138.751 170.705 143.784C170.695 149.873 166.567 161.738 164.585 166.034Z" fill="#4B3F70"/>
<path d="M203.673 153.008C203.713 148.968 201.082 142.318 198.031 139.346C195.739 137.113 190.743 134.243 188.048 133.094C188.048 133.094 188.522 139.427 188.423 142.395C188.329 145.185 187.458 153.588 186.617 156.251C183.946 164.708 184.291 165.211 180.011 172.974C175.691 180.809 167.413 188.386 167.413 188.386C171.56 189.527 179.172 190.609 187.198 185.738C196.722 179.959 203.616 158.723 203.673 153.008Z" fill="#4B3F70"/>
<path d="M35.7675 142.83C32.189 149.987 24.6741 145.335 20.7378 153.208C17.5345 159.614 25.0704 167.818 32.9047 168.595C40.3936 169.337 49.7236 168.595 49.7236 168.595C49.7236 168.595 60.1563 174.295 77.2781 178.697C89.8028 181.918 98.9867 181.12 102.328 185.772C105.969 190.843 112.347 195.434 118.789 198.297C124.898 201.012 130.692 198.655 132.387 190.424C134.082 182.193 125.165 177.459 126.304 173.963C130.956 159.68 134.534 151.419 138.113 142.83C141.691 134.242 147.275 113.414 148.49 98.8145C150.065 79.9015 143.033 44.7209 100.301 40.4847C53.9636 35.891 44.1765 66.9313 42.2086 75.1963C40.4194 82.7109 40.7773 84.8587 38.2724 112.413C35.7675 139.967 37.1992 139.967 35.7675 142.83Z" fill="url(#paint6_linear_1004_4294)" stroke="url(#paint7_linear_1004_4294)" stroke-width="4.2942" stroke-linecap="round" stroke-linejoin="round"/>
<path d="M62.7285 57.6367C55.4483 63.0289 53.1428 68.0762 51.8697 70.544C50.5967 73.0117 48.5013 82.5878 51.1541 87.3627C54.7326 93.8041 58.514 95.4235 64.3945 97.0246C68.0999 98.0336 74.3737 98.1815 78.3786 95.5336C83.0607 92.438 78.8934 88.405 83.8243 85.6908C92.2855 81.0335 99.3244 84.0301 103.908 88.1223C108.491 92.2145 104.829 94.9072 107.492 99.0582C110.155 103.21 116.412 104.303 121.137 104.638C128.78 105.18 133.28 102.33 137.796 97.6887C140.419 94.9932 141.293 87.7956 139.543 80.0703C137.792 72.3451 131.312 63.4342 128.092 61.2399C124.871 59.0455 119.703 52.6541 100.1 49.909C80.4977 47.1639 70.0087 52.2446 62.7285 57.6367Z" fill="url(#paint8_linear_1004_4294)"/>
<path d="M127.897 86.6184C129.865 79.8951 127.067 72.5858 119.174 70.2461C113.527 68.5723 105.108 72.5563 103.139 79.2796C101.171 86.0028 105.332 91.6617 112.244 93.6852C119.157 95.7088 125.929 93.3416 127.897 86.6184Z" fill="#664BBF"/>
<path d="M127.897 86.6184C129.865 79.8951 127.067 72.5858 119.174 70.2461C113.527 68.5723 105.108 72.5563 103.139 79.2796C101.171 86.0028 105.332 91.6617 112.244 93.6852C119.157 95.7088 125.929 93.3416 127.897 86.6184Z" fill="url(#paint9_linear_1004_4294)"/>
<path d="M114.668 148.913C110.336 164.9 96.4137 170.35 78.7092 168.594C67.258 167.459 55.091 156.785 52.2282 146.766C50.0811 139.251 53.1044 120.598 61.8902 113.485C69.4051 107.402 78.5421 107.966 87.2976 108.833C97.1379 110.913 105.203 112.787 110.558 119.927C118.073 129.947 117.073 140.036 114.668 148.913Z" fill="url(#paint10_radial_1004_4294)"/>
<g filter="url(#filter2_f_1004_4294)">
<path d="M135.664 104.209C135.58 107.679 128.633 118.421 128.633 118.421C128.633 118.421 126.785 121.279 123.05 121C120.545 120.813 114.306 120.765 113.101 121.154C109.888 122.19 108.935 118.998 108.935 118.998C108.935 118.998 110.463 110.896 114.248 106.682C117.568 102.986 123.979 97.5438 127.343 97.1732C129.767 96.906 132.034 96.5602 133.585 98.7442C134.909 100.609 135.735 101.247 135.664 104.209Z" fill="#7C6CB3"/>
</g>
<path d="M128.123 118.575C128.123 118.575 129.636 115.301 131.767 113.329C133.864 111.388 135.141 107.13 135.196 104.928C135.25 102.726 135.257 101.682 133.852 100.106C132.206 98.2589 129.777 97.5051 127.403 97.7067C121.603 98.1995 115.374 105.144 112.678 108.524C109.899 112.009 108.238 120.298 108.238 120.298" stroke="url(#paint11_linear_1004_4294)" stroke-width="3.5785" stroke-linecap="round"/>
<path d="M84.8031 80.5069C86.7713 73.7837 83.9729 66.4743 76.0801 64.1347C70.4336 62.4609 62.0138 66.4448 60.0456 73.1681C58.0773 79.8914 62.2385 85.5502 69.1507 87.5738C76.0628 89.5974 82.8348 87.2302 84.8031 80.5069Z" fill="#664BBF"/>
<path d="M84.8031 80.5069C86.7713 73.7837 83.9729 66.4743 76.0801 64.1347C70.4336 62.4609 62.0138 66.4448 60.0456 73.1681C58.0773 79.8914 62.2385 85.5502 69.1507 87.5738C76.0628 89.5974 82.8348 87.2302 84.8031 80.5069Z" fill="url(#paint12_linear_1004_4294)"/>
<ellipse cx="88.7636" cy="90.5824" rx="18.1287" ry="16.0424" transform="rotate(10.5626 88.7636 90.5824)" fill="url(#paint13_linear_1004_4294)"/>
<path d="M89.7713 79.2984C93.4528 79.3992 96.2853 82.2232 96.1953 85.5186C96.1051 88.8118 93.076 91.4784 89.4406 91.3788C87.9719 91.3386 86.3292 90.6187 85.0627 89.4614C83.7985 88.3063 82.9723 86.7754 83.0166 85.1577C83.1071 81.8623 86.0899 79.1976 89.7713 79.2984Z" fill="#664BBF"/>
<path d="M89.7713 79.2984C93.4528 79.3992 96.2853 82.2232 96.1953 85.5186C96.1051 88.8118 93.076 91.4784 89.4406 91.3788C87.9719 91.3386 86.3292 90.6187 85.0627 89.4614C83.7985 88.3063 82.9723 86.7754 83.0166 85.1577C83.1071 81.8623 86.0899 79.1976 89.7713 79.2984Z" fill="url(#paint14_linear_1004_4294)"/>
<path d="M89.7713 79.2984C93.4528 79.3992 96.2853 82.2232 96.1953 85.5186C96.1051 88.8118 93.076 91.4784 89.4406 91.3788C87.9719 91.3386 86.3292 90.6187 85.0627 89.4614C83.7985 88.3063 82.9723 86.7754 83.0166 85.1577C83.1071 81.8623 86.0899 79.1976 89.7713 79.2984Z" stroke="url(#paint15_linear_1004_4294)" stroke-width="1.09871"/>
<path d="M73.5006 98.5C72.5006 97 71.6205 96.1188 71.3343 92.9231C71.048 89.7273 71.6679 86.5182 73.1295 83.6436C74.5913 80.7685 76.8416 78.3338 79.6423 76.6108C82.4435 74.8874 85.6856 73.9438 89.0152 73.8889C92.3449 73.8339 95.627 74.6699 98.5026 76.302C101.378 77.9339 103.732 80.2965 105.316 83.1256C106.899 85.9542 107.652 89.1431 107.5 92.3454C107.348 95.5477 106.858 98.7415 105.366 101.576" stroke="url(#paint16_linear_1004_4294)" stroke-width="4.2942" stroke-linecap="round" stroke-linejoin="round"/>
<circle cx="154.616" cy="77.6155" r="23.0964" transform="rotate(41.902 154.616 77.6155)" fill="url(#paint17_radial_1004_4294)"/>
<g filter="url(#filter3_f_1004_4294)">
<path d="M166.4 63.4275C167.452 64.3124 170.008 65.7604 171.802 71.5083C172.536 73.8591 172.596 77.4729 172.814 80.008C172.852 80.455 172.741 81.1598 172.567 81.9282C172.575 82.0785 172.573 82.1568 172.573 82.1568L172.221 83.2745C171.834 84.6496 171.402 85.8752 171.402 85.8752L172.221 83.2745C172.346 82.8292 172.467 82.3683 172.567 81.9282C172.536 81.3341 172.352 79.6156 171.292 77.1592C169.964 74.0811 168.845 71.5878 167.628 69.5998C165.35 65.8789 160.232 62.3607 160.232 62.3607C160.232 62.3607 162.86 62.0326 163.842 62.2635C164.823 62.4945 165.218 62.4322 166.4 63.4275Z" fill="url(#paint18_linear_1004_4294)"/>
</g>
<ellipse cx="122.087" cy="76.6989" rx="2.58458" ry="1.74412" transform="rotate(41.3824 122.087 76.6989)" fill="#EDE9E9"/>
<ellipse cx="77.0927" cy="70.6988" rx="2.58458" ry="1.74412" transform="rotate(38.7347 77.0927 70.6988)" fill="#EDE9E9"/>
<circle cx="165.216" cy="192.216" r="14.6106" transform="rotate(23.8489 165.216 192.216)" fill="url(#paint19_radial_1004_4294)"/>
<g filter="url(#filter4_f_1004_4294)">
<path d="M169.523 181.373C170.329 181.699 172.151 182.068 174.357 185.174C175.259 186.444 176.003 188.606 176.631 190.088C176.742 190.349 176.813 190.795 176.859 191.291C176.893 191.38 176.907 191.427 176.907 191.427L176.915 192.169C176.952 193.072 176.932 193.893 176.932 193.893L176.915 192.169C176.903 191.876 176.885 191.575 176.859 191.291C176.724 190.94 176.277 189.942 175.158 188.673C173.755 187.082 172.593 185.801 171.472 184.844C169.372 183.053 165.604 181.94 165.604 181.94C165.604 181.94 167.121 181.228 167.756 181.174C168.392 181.121 168.617 181.006 169.523 181.373Z" fill="url(#paint20_linear_1004_4294)"/>
</g>
<circle cx="18.737" cy="80.7369" r="10.8022" transform="rotate(-19.0549 18.737 80.7369)" fill="url(#paint21_radial_1004_4294)"/>
<g filter="url(#filter5_f_1004_4294)">
<path d="M15.6111 72.6969C16.2115 72.468 17.3841 71.7513 20.1418 72.3228C21.2696 72.5565 22.7609 73.3525 23.8469 73.8391C24.0384 73.9249 24.3014 74.1303 24.5759 74.3761C24.6392 74.407 24.6708 74.4256 24.6708 74.4256L25.0479 74.8232C25.5223 75.2938 25.9254 75.7484 25.9254 75.7484L25.0479 74.8232C24.8943 74.6709 24.7332 74.5169 24.5759 74.3761C24.326 74.2538 23.5817 73.9387 22.3366 73.8144C20.7764 73.6586 19.5028 73.5502 18.4135 73.5964C16.3749 73.6829 13.7744 74.9767 13.7744 74.9767C13.7744 74.9767 14.2369 73.8276 14.5542 73.4787C14.8715 73.1298 14.9356 72.9543 15.6111 72.6969Z" fill="url(#paint22_linear_1004_4294)"/>
</g>
<defs>
<filter id="filter0_f_1004_4294" x="13.8004" y="182.4" width="155.25" height="43.7" filterUnits="userSpaceOnUse" color-interpolation-filters="sRGB">
<feFlood flood-opacity="0" result="BackgroundImageFix"/>
<feBlend mode="normal" in="SourceGraphic" in2="BackgroundImageFix" result="shape"/>
<feGaussianBlur stdDeviation="2.3" result="effect1_foregroundBlur_1004_4294"/>
</filter>
<filter id="filter1_f_1004_4294" x="20.9338" y="93.9322" width="31.8042" height="26.5957" filterUnits="userSpaceOnUse" color-interpolation-filters="sRGB">
<feFlood flood-opacity="0" result="BackgroundImageFix"/>
<feBlend mode="normal" in="SourceGraphic" in2="BackgroundImageFix" result="shape"/>
<feGaussianBlur stdDeviation="0.7157" result="effect1_foregroundBlur_1004_4294"/>
</filter>
<filter id="filter2_f_1004_4294" x="107.503" y="95.5442" width="29.5962" height="27.2479" filterUnits="userSpaceOnUse" color-interpolation-filters="sRGB">
<feFlood flood-opacity="0" result="BackgroundImageFix"/>
<feBlend mode="normal" in="SourceGraphic" in2="BackgroundImageFix" result="shape"/>
<feGaussianBlur stdDeviation="0.7157" result="effect1_foregroundBlur_1004_4294"/>
</filter>
<filter id="filter3_f_1004_4294" x="159.11" y="61.0592" width="14.8328" height="25.9379" filterUnits="userSpaceOnUse" color-interpolation-filters="sRGB">
<feFlood flood-opacity="0" result="BackgroundImageFix"/>
<feBlend mode="normal" in="SourceGraphic" in2="BackgroundImageFix" result="shape"/>
<feGaussianBlur stdDeviation="0.56098" result="effect1_foregroundBlur_1004_4294"/>
</filter>
<filter id="filter4_f_1004_4294" x="164.483" y="179.992" width="13.5769" height="15.023" filterUnits="userSpaceOnUse" color-interpolation-filters="sRGB">
<feFlood flood-opacity="0" result="BackgroundImageFix"/>
<feBlend mode="normal" in="SourceGraphic" in2="BackgroundImageFix" result="shape"/>
<feGaussianBlur stdDeviation="0.56098" result="effect1_foregroundBlur_1004_4294"/>
</filter>
<filter id="filter5_f_1004_4294" x="12.6525" y="70.9847" width="14.3953" height="5.88564" filterUnits="userSpaceOnUse" color-interpolation-filters="sRGB">
<feFlood flood-opacity="0" result="BackgroundImageFix"/>
<feBlend mode="normal" in="SourceGraphic" in2="BackgroundImageFix" result="shape"/>
<feGaussianBlur stdDeviation="0.56098" result="effect1_foregroundBlur_1004_4294"/>
</filter>
<radialGradient id="paint0_radial_1004_4294" cx="0" cy="0" r="1" gradientUnits="userSpaceOnUse" gradientTransform="translate(91.4254 204.25) scale(73.025 17.25)">
<stop offset="0.594942" stop-opacity="0.2"/>
<stop offset="1" stop-opacity="0"/>
</radialGradient>
<linearGradient id="paint1_linear_1004_4294" x1="35.9682" y1="98.0132" x2="34.2951" y2="118.338" gradientUnits="userSpaceOnUse">
<stop offset="0.576067" stop-color="#4B3F70"/>
<stop offset="1" stop-color="#5D4F87"/>
</linearGradient>
<linearGradient id="paint2_linear_1004_4294" x1="151.53" y1="55.2792" x2="118.209" y2="59.5231" gradientUnits="userSpaceOnUse">
<stop offset="0.576067" stop-color="#4B3F70"/>
<stop offset="1" stop-color="#5D4F87"/>
</linearGradient>
<linearGradient id="paint3_linear_1004_4294" x1="54.1406" y1="42.3409" x2="84.9447" y2="55.7341" gradientUnits="userSpaceOnUse">
<stop offset="0.576067" stop-color="#4B3F70"/>
<stop offset="1" stop-color="#5D4F87"/>
</linearGradient>
<linearGradient id="paint4_linear_1004_4294" x1="167.018" y1="126.467" x2="149.017" y2="191.907" gradientUnits="userSpaceOnUse">
<stop stop-color="#C5B8E8"/>
<stop offset="1" stop-color="#9887C7"/>
</linearGradient>
<linearGradient id="paint5_linear_1004_4294" x1="167.018" y1="126.467" x2="149.017" y2="191.907" gradientUnits="userSpaceOnUse">
<stop offset="0.576067" stop-color="#4B3F70"/>
<stop offset="1" stop-color="#5D4F87"/>
</linearGradient>
<linearGradient id="paint6_linear_1004_4294" x1="91.5993" y1="39.0156" x2="109.126" y2="217.089" gradientUnits="userSpaceOnUse">
<stop offset="0.0545617" stop-color="#D5CBEF"/>
<stop offset="0.153725" stop-color="#E0DAF1"/>
<stop offset="0.472745" stop-color="#D4C4EC"/>
<stop offset="0.663723" stop-color="#C0B4E7"/>
<stop offset="0.795744" stop-color="#AFA0E2"/>
</linearGradient>
<linearGradient id="paint7_linear_1004_4294" x1="91.5389" y1="39.7427" x2="78.5582" y2="195.666" gradientUnits="userSpaceOnUse">
<stop offset="0.576067" stop-color="#4B3F70"/>
<stop offset="1" stop-color="#5D4F87"/>
</linearGradient>
<linearGradient id="paint8_linear_1004_4294" x1="100.919" y1="50.0099" x2="92.2676" y2="101.768" gradientUnits="userSpaceOnUse">
<stop stop-color="#A293D0"/>
<stop offset="1" stop-color="#B6ABDA"/>
</linearGradient>
<linearGradient id="paint9_linear_1004_4294" x1="112.365" y1="93.7204" x2="119.232" y2="70.2631" gradientUnits="userSpaceOnUse">
<stop offset="0.576067" stop-color="#4B3F70"/>
<stop offset="1" stop-color="#5D4F87"/>
</linearGradient>
<radialGradient id="paint10_radial_1004_4294" cx="0" cy="0" r="1" gradientUnits="userSpaceOnUse" gradientTransform="translate(88.1297 140.781) rotate(106.558) scale(54.4033 56.9406)">
<stop offset="0.965597" stop-color="#E6E2F2"/>
<stop offset="1" stop-color="#BFB3E7" stop-opacity="0"/>
</radialGradient>
<linearGradient id="paint11_linear_1004_4294" x1="118.308" y1="123.794" x2="127.61" y2="96.9956" gradientUnits="userSpaceOnUse">
<stop offset="0.576067" stop-color="#4B3F70"/>
<stop offset="1" stop-color="#5D4F87"/>
</linearGradient>
<linearGradient id="paint12_linear_1004_4294" x1="69.2709" y1="87.609" x2="76.1382" y2="64.1516" gradientUnits="userSpaceOnUse">
<stop offset="0.576067" stop-color="#4B3F70"/>
<stop offset="1" stop-color="#5D4F87"/>
</linearGradient>
<linearGradient id="paint13_linear_1004_4294" x1="88.7636" y1="74.54" x2="92.9226" y2="105.453" gradientUnits="userSpaceOnUse">
<stop offset="0.837906" stop-color="#C8BDE7"/>
<stop offset="1" stop-color="#D4C4EC" stop-opacity="0"/>
</linearGradient>
<linearGradient id="paint14_linear_1004_4294" x1="89.7864" y1="78.7488" x2="89.4255" y2="91.9284" gradientUnits="userSpaceOnUse">
<stop offset="0.576067" stop-color="#4B3F70"/>
<stop offset="1" stop-color="#5D4F87"/>
</linearGradient>
<linearGradient id="paint15_linear_1004_4294" x1="89.7864" y1="78.7488" x2="89.4255" y2="91.9284" gradientUnits="userSpaceOnUse">
<stop offset="0.576067" stop-color="#4B3F70"/>
<stop offset="1" stop-color="#5D4F87"/>
</linearGradient>
<linearGradient id="paint16_linear_1004_4294" x1="90.4876" y1="73.9226" x2="88.7693" y2="101.495" gradientUnits="userSpaceOnUse">
<stop offset="0.576067" stop-color="#4B3F70"/>
<stop offset="1" stop-color="#5D4F87"/>
</linearGradient>
<radialGradient id="paint17_radial_1004_4294" cx="0" cy="0" r="1" gradientUnits="userSpaceOnUse" gradientTransform="translate(157.564 74.4213) rotate(151.314) scale(29.6888)">
<stop offset="0.38606" stop-color="#F2E2E4"/>
<stop offset="0.575732" stop-color="#F2D0DB"/>
<stop offset="0.774464" stop-color="#EAAFC7"/>
<stop offset="1" stop-color="#F7C9F7"/>
</radialGradient>
<linearGradient id="paint18_linear_1004_4294" x1="164.869" y1="62.7172" x2="171.299" y2="86.4504" gradientUnits="userSpaceOnUse">
<stop stop-color="white"/>
<stop offset="1" stop-color="#C4FDF9"/>
</linearGradient>
<radialGradient id="paint19_radial_1004_4294" cx="0" cy="0" r="1" gradientUnits="userSpaceOnUse" gradientTransform="translate(167.082 190.196) rotate(151.314) scale(18.781)">
<stop offset="0.38606" stop-color="#F2E2E4"/>
<stop offset="0.575732" stop-color="#F2D0DB"/>
<stop offset="0.774464" stop-color="#EAAFC7"/>
<stop offset="1" stop-color="#F7C9F7"/>
</radialGradient>
<linearGradient id="paint20_linear_1004_4294" x1="168.463" y1="181.246" x2="176.983" y2="194.26" gradientUnits="userSpaceOnUse">
<stop stop-color="white"/>
<stop offset="1" stop-color="#C4FDF9"/>
</linearGradient>
<radialGradient id="paint21_radial_1004_4294" cx="0" cy="0" r="1" gradientUnits="userSpaceOnUse" gradientTransform="translate(20.116 79.243) rotate(151.314) scale(13.8855)">
<stop offset="0.38606" stop-color="#F2E2E4"/>
<stop offset="0.575732" stop-color="#F2D0DB"/>
<stop offset="0.774464" stop-color="#EAAFC7"/>
<stop offset="1" stop-color="#F7C9F7"/>
</radialGradient>
<linearGradient id="paint22_linear_1004_4294" x1="14.973" y1="73.1617" x2="26.137" y2="75.9215" gradientUnits="userSpaceOnUse">
<stop stop-color="white"/>
<stop offset="1" stop-color="#C4FDF9"/>
</linearGradient>
</defs>
</svg>
