<svg width="160" height="160" viewBox="0 0 160 160" fill="none" xmlns="http://www.w3.org/2000/svg">
<g filter="url(#filter0_f_74_10329)">
<ellipse cx="63.6008" cy="142.087" rx="50.8" ry="12" fill="url(#paint0_radial_74_10329)"/>
</g>
<path d="M97.4392 40.2441C95.5626 44.973 89.7754 47.7085 89.7754 47.7085L71.7683 28.3015C71.7683 28.3015 75.9677 23.3545 80.3319 21.8779C83.8932 20.673 89.7987 19.6951 95.2485 25.6673C100.698 31.6394 98.4985 37.5749 97.4392 40.2441Z" fill="#D4C5EC" stroke="url(#paint1_linear_74_10329)" stroke-width="3.13043" stroke-linecap="round"/>
<path d="M81.6385 25.5434C77.6992 26.4435 73.3044 30.9514 73.3044 30.9514L90.5463 44.3786C90.5463 44.3786 94.0935 41.0101 94.535 37.4277L94.5362 37.4181C94.8005 35.2738 95.2813 31.3735 91.589 28.1788C87.8912 24.9793 85.2933 24.7083 81.6385 25.5434Z" fill="#4B3F70"/>
<ellipse cx="84.2412" cy="42.1615" rx="19.8254" ry="8.52637" transform="rotate(45.3747 84.2412 42.1615)" fill="#FEFEFE"/>
<path d="M21.3659 43.0871C23.5234 47.6946 29.4645 50.0773 29.4645 50.0773L46.2726 29.6231C46.2726 29.6231 41.7834 24.9374 37.3384 23.7258C33.7111 22.7372 27.7575 22.116 22.6765 28.4049C17.5955 34.6938 20.1481 40.4864 21.3659 43.0871Z" fill="#D4C5EC" stroke="url(#paint2_linear_74_10329)" stroke-width="3.13043" stroke-linecap="round"/>
<path d="M36.2585 27.4631C40.2449 28.1248 44.9026 32.3604 44.9026 32.3604L28.499 46.7996C28.499 46.7996 24.7557 43.6505 24.0997 40.1011L24.0979 40.0916C23.7052 37.9671 22.9909 34.1027 26.4845 30.6918C29.9833 27.2758 32.5601 26.8492 36.2585 27.4631Z" fill="#4B3F70"/>
<ellipse cx="19.8254" cy="8.52637" rx="19.8254" ry="8.52637" transform="matrix(-0.658418 0.752652 0.752652 0.658418 41.293 23.672)" fill="#FEFEFE"/>
<path d="M131.481 60.8415C134.534 61.7103 138.614 65.1396 140.018 67.8033C142.004 71.5708 145 87.9362 140.801 95.0976C137.262 101.133 131.888 103.118 128.765 103.838C124.844 104.742 122.03 104.958 119.024 105.425C116.373 105.837 113.572 106.444 109.731 107.89C109.084 108.133 108.408 108.4 107.698 108.694C106.516 109.184 105.412 109.47 104.52 109.879C102.712 110.59 101.016 111.79 99.761 112.761C98.5059 113.732 96.2844 116.899 96.2844 116.899L82.5835 93.8537C82.5835 93.8537 87.9291 88.6715 91.5719 82.5849C93.8194 78.8296 96.416 75.4431 99.3421 72.4481C102.474 69.2426 105.983 66.4855 109.846 64.2043C111.519 63.2163 112.688 62.6727 114.578 62.0957C116.363 61.5508 119.758 60.549 122.722 60.2756C124.896 60.0752 129.188 60.189 131.481 60.8415Z" fill="url(#paint3_linear_74_10329)"/>
<path d="M99.761 112.761C98.5059 113.733 96.2844 116.899 96.2844 116.899L82.5835 93.8537C82.5835 93.8537 87.9291 88.6715 91.5719 82.5849C93.8194 78.8296 96.416 75.4431 99.3421 72.4481M99.761 112.761C101.016 111.79 102.712 110.59 104.52 109.879M99.761 112.761L97.7745 109.491L97.0961 90.5081C97.0961 90.5081 100.307 94.6355 101.701 97.649C103.757 102.096 104.52 109.879 104.52 109.879M130.654 102.408C130.654 102.408 131.511 95.9389 131.57 89.2719C131.628 82.6662 131.224 82.4583 129.982 75.9672C129.59 73.9234 127.187 68.1049 126.261 66.2425C125.275 64.2606 122.722 60.2756 122.722 60.2756M122.722 60.2756C119.758 60.549 116.363 61.5508 114.578 62.0957C112.688 62.6727 111.519 63.2163 109.846 64.2043M122.722 60.2756C124.896 60.0752 129.188 60.189 131.481 60.8415C134.534 61.7103 138.614 65.1396 140.018 67.8033C142.004 71.5708 145 87.9362 140.801 95.0976C137.262 101.133 131.888 103.118 128.765 103.838C124.844 104.742 122.03 104.958 119.024 105.425M119.024 105.425C119.024 105.425 120.486 96.7982 120.116 90.918C119.895 87.3991 118.402 78.1572 116.253 74.1608C114.477 70.8576 109.846 64.2043 109.846 64.2043M119.024 105.425C116.373 105.837 113.572 106.444 109.731 107.89M109.846 64.2043C105.983 66.4855 102.474 69.2426 99.3421 72.4481M99.3421 72.4481C99.3421 72.4481 102.334 76.8727 103.978 79.725C105.621 82.5772 106.269 86.4048 107.199 89.4217C108.129 92.4386 109.077 97.0407 109.92 101.223C110.53 104.25 109.731 107.89 109.731 107.89M109.731 107.89C109.084 108.133 108.408 108.4 107.698 108.694C106.516 109.184 105.412 109.47 104.52 109.879" stroke="url(#paint4_linear_74_10329)" stroke-width="3.13043" stroke-linecap="round"/>
<path d="M28.0139 121.353C29.0787 124.523 31.3327 131.312 32.6815 134.618L32.6921 134.644C34.6998 139.565 35.2849 141 41.1386 140.824C46.7441 140.655 47.8326 132.762 47.8326 132.762C47.8326 132.762 56.7084 133.895 63.0678 133.704C74.7958 133.351 76.9753 131.929 76.9753 131.929C76.9753 131.929 78.7493 140.35 83.9233 140.194C88.9027 140.044 90.5211 140.551 92.535 136.631C94.549 132.712 93.305 133.608 94.8349 125.479C96.905 114.479 99.8084 103.987 100.657 97.2914C101.505 90.5962 103.095 76.277 102.595 65.3714C101.947 51.2437 91.7879 24.1917 59.8025 25.1538C25.1188 26.197 19.7504 55.0122 18.7695 61.2669C17.178 71.4162 18.5124 82.5314 20.2089 92.6576C21.613 101.038 25.9731 115.278 28.0139 121.353Z" fill="url(#paint5_linear_74_10329)" stroke="url(#paint6_linear_74_10329)" stroke-width="3.13043" stroke-linecap="round" stroke-linejoin="round"/>
<g filter="url(#filter1_f_74_10329)">
<path d="M40.8203 140.84C46.7776 140.666 47.9137 131.828 47.9137 131.828C47.9137 131.828 44.7821 131.705 42.7769 131.38C40.5439 131.019 38.6935 130.638 36.4987 130.07C33.7405 129.355 30.1836 127.564 30.1836 127.564L31.8154 133.867L31.8267 133.896C33.9734 139.414 34.5991 141.022 40.8203 140.84Z" fill="#7C6CB3"/>
</g>
<path d="M47.6938 132.767C47.6938 132.767 46.6053 140.659 40.9998 140.828C35.1358 141.004 34.7137 139.551 32.6975 134.609C30.6813 129.667 28.1758 121.391 28.1758 121.391" stroke="#5A4D83" stroke-width="3.13043" stroke-linecap="round"/>
<g filter="url(#filter2_f_74_10329)">
<path d="M92.0642 137.409C94.0628 133.154 93.2978 131.232 94.7952 122.397C94.7952 122.397 90.5503 126.071 87.3296 127.545C85.2993 128.473 84.1005 129.058 82.3286 129.719C80.4532 130.419 77.4498 130.802 77.4498 130.802C77.4498 130.802 78.2909 141.397 83.4652 141.249C88.4449 141.106 90.0657 141.663 92.0642 137.409Z" fill="#7C6CB3"/>
</g>
<path d="M95.3069 122.783C93.7771 130.912 94.1905 132.776 92.1765 136.696C90.1626 140.615 88.6633 139.842 84.1765 140.174C79.6202 140.511 77.2199 132.174 77.2199 132.174" stroke="#5A4D83" stroke-width="3.13043" stroke-linecap="round"/>
<path d="M33.7446 42.2114C31.2294 44.496 27.8136 49.7362 26.4015 53.6375C24.9893 57.5388 24.7177 64.0801 26.8055 67.0659C29.6532 71.1387 33.8699 72.2378 38.369 72.8578C42.2471 73.3923 46.2949 71.2686 49.0009 68.9281C52.1645 66.192 48.6986 63.6107 52.0826 61.1327C57.8895 56.8804 63.3783 58.4208 67.1575 61.006C70.9366 63.5912 68.4878 65.9319 70.8535 68.7446C73.2193 71.5573 77.9479 71.766 81.4716 71.5613C87.1721 71.23 90.6949 69.0037 93.1176 64.83C94.6087 62.261 94.7544 57.184 92.7209 51.6426C90.6873 46.1012 83.4783 39.3044 81.0435 37.9132C78.6087 36.522 72.3288 32.4654 60.8695 32.3479C49.4102 32.2305 42.3841 34.3639 33.7446 42.2114Z" fill="url(#paint7_linear_74_10329)"/>
<path d="M84.9188 104.794C83.2488 117.024 75.8618 124.449 62.6098 124.848C49.3579 125.246 40.4481 120.321 36.5251 108.024C35 101.667 37.1118 90.1784 42.0895 85.0622C47.0074 80.0075 54.6451 78.1327 61.1987 77.9356C68.6699 78.5298 72.8562 80.0418 78.2195 83.9754C83.397 87.7727 85.8462 98.0036 84.9188 104.794Z" fill="url(#paint8_linear_74_10329)"/>
<g filter="url(#filter3_f_74_10329)">
<path d="M94.1401 82.7644C94.5433 85.0519 93.4106 90.0031 93.4106 90.0031C93.4106 90.0031 89.947 91.5302 86.5285 91.4274C84.2359 91.3585 81.6767 90.9633 79.7863 89.5831C77.8999 88.206 75.8295 84.174 75.8295 84.174C75.8295 84.174 77.6481 82.3604 78.6121 81.3913C81.106 78.8844 82.9238 77.1868 85.9164 76.8696C88.0735 76.6409 90.0254 77.011 91.7304 78.4163C93.1861 79.616 93.796 80.8114 94.1401 82.7644Z" fill="#7C6CB3"/>
</g>
<path d="M93.5358 89.0868C93.5358 89.0868 94.5986 84.6323 94.165 82.5617C93.7948 80.7938 93.1698 79.7062 91.7005 78.6032C89.9796 77.3112 88.1449 76.8124 85.9951 76.9893C83.0125 77.2348 81.3003 78.9243 78.8454 81.1535C77.8965 82.0152 76.0463 84.1645 76.0463 84.1645" stroke="#4B3F70" stroke-width="2.78261" stroke-linecap="round"/>
<path d="M117.913 104L118.261 100.174L118.609 94.6089L118.609 89.3914L117.565 83.1306L115.826 76.8696L114.435 73.7393L112.348 70.6089L109.565 66.0872L103.652 69.9963L104 76.8696L107.131 84.1741L110.609 97.7393L111.652 105.739L117.913 104Z" fill="#4B3F70"/>
<g filter="url(#filter4_f_74_10329)">
<path d="M27.1236 81.3579C26.2704 83.4786 26.3913 88.5542 26.3913 88.5542C26.3913 88.5542 30.5997 91.5359 33.909 91.8456C36.4088 92.0796 38.5267 92.0906 40.7858 90.962C42.4841 90.1136 45.2155 87.3044 45.2155 87.3044C45.2155 87.3044 43.5328 84.6514 42.7807 83.4783C40.8351 80.4435 39.158 78.4851 36.2849 77.4529C34.2141 76.709 32.3123 76.7747 30.3581 77.7246C28.6897 78.5357 27.8521 79.5473 27.1236 81.3579Z" fill="#7C6CB3"/>
</g>
<path d="M26.3549 87.5659C26.3549 87.5659 26.2978 82.9868 27.1762 81.0622C27.9262 79.419 28.7751 78.4955 30.451 77.7427C32.414 76.8609 34.3135 76.7778 36.3717 77.4232C39.2273 78.3187 40.526 80.3434 42.4305 83.0579C43.1666 84.1072 44.4988 86.6109 44.4988 86.6109" stroke="#4B3F70" stroke-width="2.78261" stroke-linecap="round"/>
<path d="M71.353 52.5187C69.3564 53.5374 64.9798 57.7734 66.5678 60.9929C67.0811 62.0335 68.1647 63.1127 69.3123 63.2841C70.8518 63.514 72.8336 62.345 74.385 62.2166C76.7768 62.0187 78.3933 62.1525 79.4783 62.3303C80.5634 62.5081 82.0876 63.2841 83.8815 63.4179C85.9214 63.57 87.76 62.3129 88.0006 60.5218C88.6962 57.3914 85.5658 54.2609 83.131 52.8696C81.6386 52.0168 79.4437 51.0739 76.6605 51.1619C73.8774 51.2499 73.3918 51.4785 71.353 52.5187Z" fill="#4B3F70"/>
<path d="M71.353 52.5187C69.3564 53.5374 64.9798 57.7734 66.5678 60.9929C67.0811 62.0335 68.1647 63.1127 69.3123 63.2841C70.8518 63.514 72.8336 62.345 74.385 62.2166C76.7768 62.0187 78.3933 62.1525 79.4783 62.3303C80.5634 62.5081 82.0876 63.2841 83.8815 63.4179C85.9214 63.57 87.76 62.3129 88.0006 60.5218C88.6962 57.3914 85.5658 54.2609 83.131 52.8696C81.6386 52.0168 79.4437 51.0739 76.6605 51.1619C73.8774 51.2499 73.3918 51.4785 71.353 52.5187Z" fill="url(#paint9_linear_74_10329)"/>
<path d="M46.1488 52.6004C48.1308 53.6472 52.4472 57.9445 50.814 61.1413C50.2861 62.1745 49.1873 63.2384 48.0375 63.3935C46.4949 63.6017 44.5297 62.4048 42.9804 62.2546C40.5916 62.023 38.9733 62.134 37.8859 62.2964C36.7984 62.4589 35.2635 63.2134 33.4678 63.3218C31.4259 63.4451 29.6053 62.1622 29.39 60.3679C28.7385 57.228 31.9128 54.142 34.367 52.7852C35.8712 51.9535 38.0792 51.0416 40.8609 51.1689C43.6426 51.2962 44.1249 51.5316 46.1488 52.6004Z" fill="#4B3F70"/>
<path d="M46.1488 52.6004C48.1308 53.6472 52.4472 57.9445 50.814 61.1413C50.2861 62.1745 49.1873 63.2384 48.0375 63.3935C46.4949 63.6017 44.5297 62.4048 42.9804 62.2546C40.5916 62.023 38.9733 62.134 37.8859 62.2964C36.7984 62.4589 35.2635 63.2134 33.4678 63.3218C31.4259 63.4451 29.6053 62.1622 29.39 60.3679C28.7385 57.228 31.9128 54.142 34.367 52.7852C35.8712 51.9535 38.0792 51.0416 40.8609 51.1689C43.6426 51.2962 44.1249 51.5316 46.1488 52.6004Z" fill="url(#paint10_linear_74_10329)"/>
<ellipse cx="57.0017" cy="64.9306" rx="13.5093" ry="11.9547" transform="rotate(9.20256 57.0017 64.9306)" fill="url(#paint11_linear_74_10329)"/>
<path d="M46.2364 72.6384C45.1594 70.6711 44.3257 69.3587 44.0559 66.9828C43.786 64.6071 44.1912 62.2054 45.2292 60.038C46.2673 57.8703 47.9007 56.0167 49.9567 54.6835C52.0131 53.3501 54.4117 52.5898 56.8912 52.49C59.3708 52.3901 61.8307 52.9549 64.0018 54.1199C66.1726 55.2848 67.9684 57.0032 69.1981 59.0829C70.4276 61.1621 71.0454 63.5244 70.9885 65.9128C70.9316 68.3011 70.623 70.6891 69.5618 72.8274" stroke="#4B3F70" stroke-width="3.13043" stroke-linecap="round" stroke-linejoin="round"/>
<path d="M62.8563 61.0283C62.8464 63.7414 60.4194 65.932 57.5166 65.9214C55.0976 65.9126 52.2027 63.7027 52.2126 60.9896C52.2225 58.2765 54.6131 56.0858 57.5523 56.0965C60.4915 56.1072 62.8661 58.3152 62.8563 61.0283Z" fill="#4B3F70"/>
<path d="M116.115 21.5096C116.174 21.2244 116.491 21.2608 116.483 21.5519L116.423 23.9941C116.345 27.1477 117.925 29.8227 120.246 30.4645L122.043 30.9616C122.258 31.0209 122.21 31.439 121.988 31.4481L120.124 31.5247C117.719 31.6236 115.573 33.8705 114.934 36.9596L114.439 39.3519C114.38 39.6371 114.063 39.6008 114.07 39.3096L114.131 36.8674C114.209 33.7139 112.628 31.0389 110.308 30.397L108.51 29.8999C108.296 29.8407 108.344 29.4225 108.566 29.4134L110.429 29.3368C112.835 29.2379 114.981 26.991 115.62 23.9019L116.115 21.5096Z" fill="url(#paint12_linear_74_10329)"/>
<path d="M9.17157 109.887C9.07269 109.524 8.66741 109.596 8.69995 109.971L8.97319 113.115C9.32601 117.175 7.50185 120.75 4.56084 121.764L2.28321 122.548C2.01169 122.642 2.10704 123.177 2.39417 123.171L4.80261 123.121C7.91254 123.056 10.8591 125.782 11.9299 129.713L12.7592 132.759C12.8581 133.122 13.2633 133.049 13.2308 132.675L12.9575 129.53C12.6047 125.471 14.4289 121.895 17.3699 120.882L19.6476 120.098C19.919 120.004 19.8237 119.469 19.5366 119.475L17.1282 119.525C14.0182 119.59 11.0716 116.864 10.0008 112.932L9.17157 109.887Z" fill="url(#paint13_linear_74_10329)"/>
<path d="M121.802 43.6934C121.864 43.5583 122.017 43.6126 121.98 43.7565L121.671 44.9642C121.272 46.5236 121.752 48.0345 122.833 48.619L123.67 49.0716C123.769 49.1255 123.698 49.328 123.586 49.3071L122.651 49.1323C121.443 48.9065 120.119 49.7786 119.448 51.2419L118.929 52.3751C118.867 52.5102 118.714 52.4559 118.75 52.3119L119.06 51.1043C119.459 49.5449 118.979 48.0339 117.898 47.4495L117.061 46.9969C116.961 46.9429 117.033 46.7405 117.144 46.7613L118.08 46.9362C119.287 47.162 120.611 46.2898 121.282 44.8266L121.802 43.6934Z" fill="url(#paint14_linear_74_10329)"/>
<path d="M130.436 72.3478C128.98 67.8879 125.219 61.5652 125.219 61.5652C125.219 61.5652 128.609 61.1928 131.48 62.261C133.02 62.8342 136.349 65.3912 137.74 66.7826C139.315 68.3575 140.95 75.2671 141.219 76.8696C142.424 84.0633 141.567 91.1304 139.48 94.6087C137.079 98.6103 132.366 101.217 132.366 101.217C132.366 101.217 133.175 92.5611 132.871 86.2608C132.608 80.8121 132.129 77.5336 130.436 72.3478Z" fill="#4B3F70"/>
<path d="M104.347 109.217L102.26 97.7391L98.4336 112.696L104.347 109.217Z" fill="#4B3F70"/>
<defs>
<filter id="filter0_f_74_10329" x="9.60078" y="126.887" width="108.002" height="30.4" filterUnits="userSpaceOnUse" color-interpolation-filters="sRGB">
<feFlood flood-opacity="0" result="BackgroundImageFix"/>
<feBlend mode="normal" in="SourceGraphic" in2="BackgroundImageFix" result="shape"/>
<feGaussianBlur stdDeviation="1.6" result="effect1_foregroundBlur_74_10329"/>
</filter>
<filter id="filter1_f_74_10329" x="28.0503" y="125.431" width="21.9971" height="17.5557" filterUnits="userSpaceOnUse" color-interpolation-filters="sRGB">
<feFlood flood-opacity="0" result="BackgroundImageFix"/>
<feBlend mode="normal" in="SourceGraphic" in2="BackgroundImageFix" result="shape"/>
<feGaussianBlur stdDeviation="1.06667" result="effect1_foregroundBlur_74_10329"/>
</filter>
<filter id="filter2_f_74_10329" x="75.3159" y="120.264" width="21.6143" height="23.1197" filterUnits="userSpaceOnUse" color-interpolation-filters="sRGB">
<feFlood flood-opacity="0" result="BackgroundImageFix"/>
<feBlend mode="normal" in="SourceGraphic" in2="BackgroundImageFix" result="shape"/>
<feGaussianBlur stdDeviation="1.06667" result="effect1_foregroundBlur_74_10329"/>
</filter>
<filter id="filter3_f_74_10329" x="74.4368" y="75.4156" width="21.181" height="17.4081" filterUnits="userSpaceOnUse" color-interpolation-filters="sRGB">
<feFlood flood-opacity="0" result="BackgroundImageFix"/>
<feBlend mode="normal" in="SourceGraphic" in2="BackgroundImageFix" result="shape"/>
<feGaussianBlur stdDeviation="0.695652" result="effect1_foregroundBlur_74_10329"/>
</filter>
<filter id="filter4_f_74_10329" x="24.9954" y="75.556" width="21.6107" height="17.807" filterUnits="userSpaceOnUse" color-interpolation-filters="sRGB">
<feFlood flood-opacity="0" result="BackgroundImageFix"/>
<feBlend mode="normal" in="SourceGraphic" in2="BackgroundImageFix" result="shape"/>
<feGaussianBlur stdDeviation="0.695652" result="effect1_foregroundBlur_74_10329"/>
</filter>
<radialGradient id="paint0_radial_74_10329" cx="0" cy="0" r="1" gradientUnits="userSpaceOnUse" gradientTransform="translate(63.6008 142.087) scale(50.8 12)">
<stop offset="0.594942" stop-color="#E1DEDE"/>
<stop offset="1" stop-color="#E9F1F5" stop-opacity="0.8"/>
</radialGradient>
<linearGradient id="paint1_linear_74_10329" x1="98.3747" y1="31.116" x2="74.1569" y2="37.4435" gradientUnits="userSpaceOnUse">
<stop offset="0.576067" stop-color="#4B3F70"/>
<stop offset="1" stop-color="#5D4F87"/>
</linearGradient>
<linearGradient id="paint2_linear_74_10329" x1="19.8835" y1="34.0317" x2="44.4378" y2="38.8921" gradientUnits="userSpaceOnUse">
<stop offset="0.576067" stop-color="#4B3F70"/>
<stop offset="1" stop-color="#5D4F87"/>
</linearGradient>
<linearGradient id="paint3_linear_74_10329" x1="107.532" y1="63.5407" x2="118.644" y2="111.744" gradientUnits="userSpaceOnUse">
<stop stop-color="#C5B8E8"/>
<stop offset="1" stop-color="#9887C7"/>
</linearGradient>
<linearGradient id="paint4_linear_74_10329" x1="107.532" y1="63.5407" x2="118.644" y2="111.744" gradientUnits="userSpaceOnUse">
<stop offset="0.576067" stop-color="#4B3F70"/>
<stop offset="1" stop-color="#5D4F87"/>
</linearGradient>
<linearGradient id="paint5_linear_74_10329" x1="58.2837" y1="24.6736" x2="89.8883" y2="153.279" gradientUnits="userSpaceOnUse">
<stop offset="0.0545617" stop-color="#D5CBEF"/>
<stop offset="0.153725" stop-color="#E0DAF1"/>
<stop offset="0.472745" stop-color="#D4C4EC"/>
<stop offset="0.663723" stop-color="#C0B4E7"/>
<stop offset="0.795744" stop-color="#AFA0E2"/>
</linearGradient>
<linearGradient id="paint6_linear_74_10329" x1="58.3086" y1="25.2145" x2="63.6272" y2="141.202" gradientUnits="userSpaceOnUse">
<stop offset="0.576067" stop-color="#4B3F70"/>
<stop offset="1" stop-color="#5D4F87"/>
</linearGradient>
<linearGradient id="paint7_linear_74_10329" x1="60.7845" y1="32.3279" x2="59.2653" y2="73.67" gradientUnits="userSpaceOnUse">
<stop stop-color="#A293D0"/>
<stop offset="1" stop-color="#B6ABDA"/>
</linearGradient>
<linearGradient id="paint8_linear_74_10329" x1="59.7435" y1="77.0455" x2="61.3381" y2="125.82" gradientUnits="userSpaceOnUse">
<stop offset="0.521453" stop-color="#E6E2F2"/>
<stop offset="1" stop-color="#D3CBEF"/>
</linearGradient>
<linearGradient id="paint9_linear_74_10329" x1="76.8977" y1="51.1544" x2="77.2929" y2="63.6515" gradientUnits="userSpaceOnUse">
<stop offset="0.576067" stop-color="#4B3F70"/>
<stop offset="1" stop-color="#5D4F87"/>
</linearGradient>
<linearGradient id="paint10_linear_74_10329" x1="40.6239" y1="51.158" x2="40.0525" y2="63.6483" gradientUnits="userSpaceOnUse">
<stop offset="0.576067" stop-color="#4B3F70"/>
<stop offset="1" stop-color="#5D4F87"/>
</linearGradient>
<linearGradient id="paint11_linear_74_10329" x1="57.0017" y1="52.976" x2="60.101" y2="76.0121" gradientUnits="userSpaceOnUse">
<stop offset="0.837906" stop-color="#C8BDE7"/>
<stop offset="1" stop-color="#D4C4EC" stop-opacity="0"/>
</linearGradient>
<linearGradient id="paint12_linear_74_10329" x1="116.324" y1="21.3146" x2="115.465" y2="35.0629" gradientUnits="userSpaceOnUse">
<stop stop-color="#F2994A"/>
<stop offset="1" stop-color="#FEC18C"/>
</linearGradient>
<linearGradient id="paint13_linear_74_10329" x1="8.88648" y1="109.652" x2="11.0928" y2="127.31" gradientUnits="userSpaceOnUse">
<stop stop-color="#F2994A"/>
<stop offset="1" stop-color="#FEC18C"/>
</linearGradient>
<linearGradient id="paint14_linear_74_10329" x1="121.928" y1="43.6203" x2="119.929" y2="50.3594" gradientUnits="userSpaceOnUse">
<stop stop-color="#F2994A"/>
<stop offset="1" stop-color="#FEC18C"/>
</linearGradient>
</defs>
</svg>
