<svg width="230" height="230" viewBox="0 0 230 230" fill="none" xmlns="http://www.w3.org/2000/svg">
<g filter="url(#filter0_f_429_9528)">
<ellipse cx="91.4249" cy="204.25" rx="73.025" ry="17.25" fill="url(#paint0_radial_429_9528)"/>
</g>
<path d="M140.065 57.8509C137.368 64.6486 129.048 68.5808 129.048 68.5808L103.163 40.6833C103.163 40.6833 109.2 33.572 115.473 31.4494C120.593 29.7174 129.082 28.3116 136.916 36.8966C144.75 45.4815 141.588 54.0139 140.065 57.8509Z" fill="#D4C5EC" stroke="url(#paint1_linear_429_9528)" stroke-width="4.5" stroke-linecap="round"/>
<path d="M117.351 36.7186C111.689 38.0125 105.371 44.4925 105.371 44.4925L130.156 63.7941C130.156 63.7941 135.255 58.952 135.89 53.8023L135.892 53.7885C136.272 50.706 136.963 45.0994 131.655 40.5069C126.34 35.9076 122.605 35.5181 117.351 36.7186Z" fill="#4B3F70"/>
<ellipse cx="121.094" cy="60.6072" rx="28.499" ry="12.2567" transform="rotate(45.3747 121.094 60.6072)" fill="#FEFEFE"/>
<path d="M30.7174 61.9379C33.8188 68.5612 42.3592 71.9863 42.3592 71.9863L66.5208 42.5833C66.5208 42.5833 60.0676 35.8476 53.6778 34.106C48.4636 32.6849 39.9052 31.7919 32.6014 40.8322C25.2975 49.8725 28.9668 58.1993 30.7174 61.9379Z" fill="#D4C5EC" stroke="url(#paint2_linear_429_9528)" stroke-width="4.5" stroke-linecap="round"/>
<path d="M52.1194 39.4784C57.8498 40.4296 64.5453 46.5182 64.5453 46.5182L40.9651 67.2747C40.9651 67.2747 35.5842 62.7478 34.6411 57.6455L34.6385 57.6319C34.074 54.5778 33.0472 49.0229 38.0692 44.1197C43.0988 39.2092 46.803 38.5959 52.1194 39.4784Z" fill="#4B3F70"/>
<ellipse cx="28.499" cy="12.2567" rx="28.499" ry="12.2567" transform="matrix(-0.658418 0.752652 0.752652 0.658418 59.3589 34.0287)" fill="#FEFEFE"/>
<path d="M189.005 87.4597C193.394 88.7086 199.258 93.6383 201.276 97.4673C204.131 102.883 208.439 126.408 202.402 136.703C197.315 145.379 189.589 148.232 185.1 149.267C179.464 150.566 175.419 150.877 171.097 151.549C167.287 152.141 163.261 153.014 157.739 155.092C156.81 155.442 155.837 155.826 154.817 156.248C153.117 156.952 151.53 157.363 150.248 157.951C147.649 158.973 145.212 160.698 143.407 162.094C141.603 163.491 138.41 168.042 138.41 168.042L118.715 134.915C118.715 134.915 126.399 127.465 131.635 118.716C134.866 113.318 138.599 108.45 142.805 104.144C147.307 99.5364 152.351 95.573 157.904 92.2938C160.309 90.8735 161.99 90.0921 164.707 89.2627C167.273 88.4793 172.153 87.0393 176.414 86.6463C179.538 86.3582 185.709 86.5217 189.005 87.4597Z" fill="url(#paint3_linear_429_9528)"/>
<path d="M143.407 162.094C141.603 163.491 138.41 168.042 138.41 168.042L118.715 134.915C118.715 134.915 126.399 127.465 131.635 118.716C134.866 113.318 138.599 108.45 142.805 104.144M143.407 162.094C145.212 160.698 147.649 158.973 150.248 157.951M143.407 162.094L140.552 157.393L139.576 130.105C139.576 130.105 144.192 136.039 146.195 140.371C149.151 146.763 150.248 157.951 150.248 157.951M187.815 147.212C187.815 147.212 189.047 137.912 189.132 128.328C189.216 118.833 188.635 118.534 186.849 109.203C186.287 106.265 182.832 97.9008 181.5 95.2236C180.084 92.3746 176.414 86.6463 176.414 86.6463M176.414 86.6463C172.153 87.0393 167.273 88.4793 164.707 89.2627C161.99 90.0921 160.309 90.8735 157.904 92.2938M176.414 86.6463C179.538 86.3582 185.709 86.5217 189.005 87.4597C193.394 88.7086 199.258 93.6383 201.276 97.4673C204.131 102.883 208.439 126.408 202.402 136.703C197.315 145.379 189.589 148.232 185.1 149.267C179.464 150.566 175.419 150.877 171.097 151.549M171.097 151.549C171.097 151.549 173.199 139.148 172.668 130.695C172.35 125.636 170.204 112.351 167.115 106.606C164.562 101.858 157.904 92.2938 157.904 92.2938M171.097 151.549C167.287 152.141 163.261 153.014 157.739 155.092M157.904 92.2938C152.351 95.573 147.307 99.5364 142.805 104.144M142.805 104.144C142.805 104.144 147.106 110.505 149.469 114.605C151.831 118.705 152.763 124.207 154.1 128.544C155.437 132.881 156.799 139.496 158.01 145.507C158.887 149.859 157.739 155.092 157.739 155.092M157.739 155.092C156.81 155.442 155.837 155.826 154.817 156.248C153.117 156.952 151.53 157.363 150.248 157.951" stroke="url(#paint4_linear_429_9528)" stroke-width="4.5" stroke-linecap="round"/>
<path d="M40.2663 174.445C41.797 179.001 45.0371 188.761 46.9761 193.514L46.9913 193.551C49.8772 200.625 50.7183 202.687 59.1331 202.434C67.191 202.192 68.7557 190.846 68.7557 190.846C68.7557 190.846 81.5146 192.475 90.6563 192.2C107.515 191.693 110.648 189.648 110.648 189.648C110.648 189.648 113.198 201.753 120.636 201.529C127.794 201.314 130.12 202.042 133.015 196.408C135.911 190.774 134.122 192.062 136.321 180.376C139.297 164.563 143.471 149.481 144.69 139.857C145.91 130.232 148.195 109.648 147.476 93.9716C146.545 73.663 131.942 34.7757 85.9624 36.1587C36.1046 37.6584 28.3875 79.0802 26.9776 88.0713C24.6897 102.661 26.6078 118.639 29.0467 133.195C31.065 145.242 37.3327 165.713 40.2663 174.445Z" fill="url(#paint5_linear_429_9528)" stroke="url(#paint6_linear_429_9528)" stroke-width="4.5" stroke-linecap="round" stroke-linejoin="round"/>
<g filter="url(#filter1_f_429_9528)">
<path d="M58.682 202.458C67.2457 202.207 68.8789 189.503 68.8789 189.503C68.8789 189.503 64.3773 189.326 61.4947 188.86C58.2847 188.34 55.6248 187.792 52.4698 186.975C48.5049 185.949 43.3918 183.374 43.3918 183.374L45.7375 192.434L45.7538 192.476C48.8397 200.408 49.7391 202.719 58.682 202.458Z" fill="#7C6CB3"/>
</g>
<path d="M68.5569 190.852C68.5569 190.852 66.9922 202.198 58.9343 202.44C50.5048 202.694 49.898 200.605 46.9998 193.5C44.1015 186.396 40.4998 174.5 40.4998 174.5" stroke="#5A4D83" stroke-width="4.5" stroke-linecap="round"/>
<g filter="url(#filter2_f_429_9528)">
<path d="M132.342 197.525C135.215 191.409 134.115 188.646 136.267 175.946C136.267 175.946 130.165 181.227 125.536 183.345C122.617 184.68 120.894 185.521 118.347 186.471C115.651 187.477 111.333 188.027 111.333 188.027C111.333 188.027 112.542 203.258 119.98 203.045C127.139 202.84 129.469 203.641 132.342 197.525Z" fill="#7C6CB3"/>
</g>
<path d="M137 176.5C134.8 188.186 135.395 190.866 132.5 196.5C129.605 202.134 127.449 201.023 121 201.5C114.45 201.985 110.999 190 110.999 190" stroke="#5A4D83" stroke-width="4.5" stroke-linecap="round"/>
<path d="M48.5078 60.679C44.8923 63.9631 39.9821 71.4959 37.9521 77.104C35.9222 82.7121 35.5317 92.1152 38.5329 96.4073C42.6265 102.262 48.688 103.842 55.1555 104.733C60.7302 105.502 66.5489 102.449 70.4388 99.0843C74.9865 95.1511 70.0042 91.4405 74.8688 87.8783C83.2161 81.7657 91.1063 83.98 96.5389 87.6962C101.971 91.4124 98.4512 94.7772 101.852 98.8204C105.253 102.864 112.05 103.164 117.115 102.869C125.31 102.393 130.374 99.193 133.856 93.1932C136 89.5003 136.21 82.202 133.286 74.2363C130.363 66.2705 120 56.5001 116.5 54.5003C113 52.5004 103.973 46.6691 87.4999 46.5003C71.0271 46.3314 60.9271 49.3982 48.5078 60.679Z" fill="url(#paint7_linear_429_9528)"/>
<path d="M122.07 150.642C119.669 168.221 109.05 178.896 90.0004 179.469C70.9508 180.042 58.1429 172.962 52.5037 155.285C50.3113 146.147 53.3469 129.631 60.5024 122.277C67.5719 115.011 78.5511 112.316 87.9719 112.032C98.7118 112.887 104.73 115.06 112.439 120.715C119.882 126.173 123.403 140.88 122.07 150.642Z" fill="url(#paint8_linear_429_9528)"/>
<g filter="url(#filter3_f_429_9528)">
<path d="M135.322 118.974C135.901 122.262 134.273 129.38 134.273 129.38C134.273 129.38 129.294 131.575 124.38 131.427C121.084 131.328 117.405 130.76 114.688 128.776C111.976 126.796 109 121 109 121C109 121 111.614 118.393 113 117C116.585 113.397 119.198 110.956 123.5 110.5C126.601 110.172 129.407 110.703 131.858 112.724C133.95 114.448 134.827 116.167 135.322 118.974Z" fill="#7C6CB3"/>
</g>
<path d="M134.458 128.062C134.458 128.062 135.986 121.659 135.363 118.682C134.831 116.141 133.932 114.578 131.82 112.992C129.346 111.135 126.709 110.418 123.618 110.672C119.331 111.025 116.87 113.454 113.341 116.658C111.977 117.897 109.317 120.987 109.317 120.987" stroke="#4B3F70" stroke-width="4" stroke-linecap="round"/>
<path d="M169.5 149.501L170 144.001L170.5 136L170.5 128.5L169 119.5L166.5 110.5L164.5 106L161.5 101.5L157.5 95.0004L149 100.62L149.5 110.5L154 121L159 140.5L160.5 152L169.5 149.501Z" fill="#4B3F70"/>
<g filter="url(#filter4_f_429_9528)">
<path d="M63.0482 135.815C64.7336 132.994 65.696 125.76 65.696 125.76C65.696 125.76 60.3861 120.585 55.756 119.406C52.2585 118.515 49.2535 118.027 45.7934 119.124C43.1921 119.95 38.6858 123.329 38.6858 123.329C38.6858 123.329 40.4825 127.472 41.2884 129.306C43.3731 134.05 45.3171 137.206 49.1663 139.313C51.9408 140.832 54.6561 141.164 57.6434 140.252C60.1938 139.473 61.6092 138.223 63.0482 135.815Z" fill="#7C6CB3"/>
</g>
<path d="M65.5285 127.172C65.5285 127.172 64.5864 133.687 62.909 136.224C61.4769 138.389 60.0651 139.511 57.517 140.206C54.5325 141.019 51.8166 140.713 49.0381 139.337C45.1832 137.427 43.7914 134.262 41.6935 129.981C40.8826 128.327 39.5502 124.474 39.5502 124.474" stroke="#4B3F70" stroke-width="4" stroke-linecap="round"/>
<path d="M187.5 104C185.407 97.5888 180 88.5 180 88.5C180 88.5 184.873 87.9646 189 89.5002C191.214 90.3241 196 93.9999 198 96C200.264 98.2639 202.614 108.196 203 110.5C204.732 120.841 203.5 131 200.5 136C197.049 141.752 190.275 145.5 190.275 145.5C190.275 145.5 191.438 133.057 191 124C190.621 116.167 189.933 111.454 187.5 104Z" fill="#4B3F70"/>
<path d="M150 157L147 140.5L141.5 162L150 157Z" fill="#4B3F70"/>
<path d="M72.48 80.8205C72.2048 73.7312 66.8286 67.627 57.9139 67.9449C51.5364 68.1723 44.2422 74.7281 44.5174 81.8175C44.7926 88.9069 51.0056 92.9851 58.804 92.6823C66.6023 92.3796 72.7552 87.9099 72.48 80.8205Z" fill="url(#paint9_linear_429_9528)"/>
<path d="M124.195 81.5156C124.62 74.4465 119.512 67.8313 109.983 67.2302C103.165 66.8001 94.7308 72.5609 94.3057 79.63C93.8807 86.6991 100.086 91.3882 108.425 91.8896C116.763 92.391 123.77 88.5847 124.195 81.5156Z" fill="url(#paint10_linear_429_9528)"/>
<ellipse cx="81.9429" cy="93.3375" rx="19.4197" ry="17.1848" transform="rotate(9.20256 81.9429 93.3375)" fill="url(#paint11_linear_429_9528)"/>
<path d="M66.4718 104.417C64.9237 101.589 63.7252 99.7028 63.3374 96.2874C62.9495 92.8724 63.5319 89.4199 65.024 86.3043C66.5164 83.1882 68.8643 80.5236 71.8199 78.6072C74.7759 76.6904 78.2239 75.5975 81.7882 75.454C85.3526 75.3104 88.8887 76.1223 92.0097 77.797C95.1303 79.4715 97.7117 81.9418 99.4794 84.9313C101.247 87.9201 102.135 91.316 102.053 94.7493C101.971 98.1825 101.528 101.615 100.002 104.689" stroke="#4B3F70" stroke-width="4.5" stroke-linecap="round" stroke-linejoin="round"/>
<path d="M90.362 87.728C90.3478 91.6281 86.859 94.777 82.6862 94.7618C79.2088 94.7492 75.0475 91.5724 75.0617 87.6724C75.0759 83.7723 78.5125 80.6232 82.7375 80.6385C86.9626 80.6539 90.3762 83.828 90.362 87.728Z" fill="#4B3F70"/>
<path d="M158.08 9.10099L156.5 8.6019C154.642 8.01524 152.632 8.85099 151.74 10.5829L147.18 19.4352L143.123 27.3102C142.183 29.1351 143.495 31.309 145.547 31.3302C146.318 31.3381 147.053 31.0276 147.581 30.4665L158.763 18.5845C159.123 18.2022 159.473 17.8383 159.813 17.4923C162.222 15.0397 161.358 10.1361 158.08 9.10099Z" fill="url(#paint12_linear_429_9528)"/>
<path d="M162.414 31.7772C162.546 31.7099 162.675 31.6441 162.804 31.5799C165.288 30.336 166.066 26.4117 163.941 24.621C162.658 23.5395 160.77 23.5884 159.545 24.7362L154.641 29.334L149.835 33.8401C148.783 34.8261 149.101 36.5689 150.433 37.1206C150.97 37.3431 151.575 37.3202 152.093 37.0555L162.414 31.7772Z" fill="url(#paint13_linear_429_9528)"/>
<ellipse cx="115.57" cy="73.3192" rx="2.58458" ry="1.74412" transform="rotate(25.9442 115.57 73.3192)" fill="#EDE9E9"/>
<ellipse cx="62.0873" cy="73.3193" rx="2.58458" ry="1.74412" transform="rotate(21.386 62.0873 73.3193)" fill="#EDE9E9"/>
<defs>
<filter id="filter0_f_429_9528" x="13.7999" y="182.4" width="155.25" height="43.7" filterUnits="userSpaceOnUse" color-interpolation-filters="sRGB">
<feFlood flood-opacity="0" result="BackgroundImageFix"/>
<feBlend mode="normal" in="SourceGraphic" in2="BackgroundImageFix" result="shape"/>
<feGaussianBlur stdDeviation="2.3" result="effect1_foregroundBlur_429_9528"/>
</filter>
<filter id="filter1_f_429_9528" x="40.3252" y="180.307" width="31.6204" height="25.2365" filterUnits="userSpaceOnUse" color-interpolation-filters="sRGB">
<feFlood flood-opacity="0" result="BackgroundImageFix"/>
<feBlend mode="normal" in="SourceGraphic" in2="BackgroundImageFix" result="shape"/>
<feGaussianBlur stdDeviation="1.53333" result="effect1_foregroundBlur_429_9528"/>
</filter>
<filter id="filter2_f_429_9528" x="108.267" y="172.879" width="31.0674" height="33.2347" filterUnits="userSpaceOnUse" color-interpolation-filters="sRGB">
<feFlood flood-opacity="0" result="BackgroundImageFix"/>
<feBlend mode="normal" in="SourceGraphic" in2="BackgroundImageFix" result="shape"/>
<feGaussianBlur stdDeviation="1.53333" result="effect1_foregroundBlur_429_9528"/>
</filter>
<filter id="filter3_f_429_9528" x="107" y="108.41" width="30.4463" height="25.0242" filterUnits="userSpaceOnUse" color-interpolation-filters="sRGB">
<feFlood flood-opacity="0" result="BackgroundImageFix"/>
<feBlend mode="normal" in="SourceGraphic" in2="BackgroundImageFix" result="shape"/>
<feGaussianBlur stdDeviation="1" result="effect1_foregroundBlur_429_9528"/>
</filter>
<filter id="filter4_f_429_9528" x="36.6858" y="116.493" width="31.0103" height="26.2638" filterUnits="userSpaceOnUse" color-interpolation-filters="sRGB">
<feFlood flood-opacity="0" result="BackgroundImageFix"/>
<feBlend mode="normal" in="SourceGraphic" in2="BackgroundImageFix" result="shape"/>
<feGaussianBlur stdDeviation="1" result="effect1_foregroundBlur_429_9528"/>
</filter>
<radialGradient id="paint0_radial_429_9528" cx="0" cy="0" r="1" gradientUnits="userSpaceOnUse" gradientTransform="translate(91.4249 204.25) scale(73.025 17.25)">
<stop offset="0.594942" stop-opacity="0.2"/>
<stop offset="1" stop-opacity="0"/>
</radialGradient>
<linearGradient id="paint1_linear_429_9528" x1="141.41" y1="44.7291" x2="106.597" y2="53.825" gradientUnits="userSpaceOnUse">
<stop offset="0.576067" stop-color="#4B3F70"/>
<stop offset="1" stop-color="#5D4F87"/>
</linearGradient>
<linearGradient id="paint2_linear_429_9528" x1="28.5864" y1="48.9207" x2="63.8833" y2="55.9076" gradientUnits="userSpaceOnUse">
<stop offset="0.576067" stop-color="#4B3F70"/>
<stop offset="1" stop-color="#5D4F87"/>
</linearGradient>
<linearGradient id="paint3_linear_429_9528" x1="154.578" y1="91.3399" x2="170.552" y2="160.632" gradientUnits="userSpaceOnUse">
<stop stop-color="#C5B8E8"/>
<stop offset="1" stop-color="#9887C7"/>
</linearGradient>
<linearGradient id="paint4_linear_429_9528" x1="154.578" y1="91.3399" x2="170.552" y2="160.632" gradientUnits="userSpaceOnUse">
<stop offset="0.576067" stop-color="#4B3F70"/>
<stop offset="1" stop-color="#5D4F87"/>
</linearGradient>
<linearGradient id="paint5_linear_429_9528" x1="83.7792" y1="35.4685" x2="129.211" y2="220.338" gradientUnits="userSpaceOnUse">
<stop offset="0.0545617" stop-color="#D5CBEF"/>
<stop offset="0.153725" stop-color="#E0DAF1"/>
<stop offset="0.472745" stop-color="#D4C4EC"/>
<stop offset="0.663723" stop-color="#C0B4E7"/>
<stop offset="0.795744" stop-color="#AFA0E2"/>
</linearGradient>
<linearGradient id="paint6_linear_429_9528" x1="83.815" y1="36.246" x2="91.4605" y2="202.977" gradientUnits="userSpaceOnUse">
<stop offset="0.576067" stop-color="#4B3F70"/>
<stop offset="1" stop-color="#5D4F87"/>
</linearGradient>
<linearGradient id="paint7_linear_429_9528" x1="87.3777" y1="46.4714" x2="85.1939" y2="105.901" gradientUnits="userSpaceOnUse">
<stop stop-color="#A293D0"/>
<stop offset="1" stop-color="#B6ABDA"/>
</linearGradient>
<linearGradient id="paint8_linear_429_9528" x1="85.88" y1="110.753" x2="88.1722" y2="180.866" gradientUnits="userSpaceOnUse">
<stop offset="0.521453" stop-color="#E6E2F2"/>
<stop offset="1" stop-color="#D3CBEF"/>
</linearGradient>
<linearGradient id="paint9_linear_429_9528" x1="58.9396" y1="92.6771" x2="57.9795" y2="67.9423" gradientUnits="userSpaceOnUse">
<stop stop-color="#5D4F87"/>
<stop offset="0.423933" stop-color="#4B3F70"/>
</linearGradient>
<linearGradient id="paint10_linear_429_9528" x1="108.57" y1="91.8983" x2="110.053" y2="67.2343" gradientUnits="userSpaceOnUse">
<stop stop-color="#5D4F87"/>
<stop offset="0.423933" stop-color="#4B3F70"/>
</linearGradient>
<linearGradient id="paint11_linear_429_9528" x1="81.9429" y1="76.1527" x2="86.3981" y2="109.267" gradientUnits="userSpaceOnUse">
<stop offset="0.837906" stop-color="#C8BDE7"/>
<stop offset="1" stop-color="#D4C4EC" stop-opacity="0"/>
</linearGradient>
<linearGradient id="paint12_linear_429_9528" x1="153.492" y1="7.54051" x2="154.49" y2="30.5328" gradientUnits="userSpaceOnUse">
<stop stop-color="#664BBF"/>
<stop offset="1" stop-color="#9179E2"/>
</linearGradient>
<linearGradient id="paint13_linear_429_9528" x1="161.839" y1="22.7471" x2="156.221" y2="38.8265" gradientUnits="userSpaceOnUse">
<stop stop-color="#664BBF"/>
<stop offset="1" stop-color="#9179E2"/>
</linearGradient>
</defs>
</svg>
