<svg width="146" height="146" viewBox="0 0 146 146" fill="none" xmlns="http://www.w3.org/2000/svg">
<g clip-path="url(#clip0_74_10215)">
<rect width="146" height="146" rx="73" fill="#EEEBFA"/>
<path d="M117.797 51.3051C115.451 57.2162 108.217 60.6355 108.217 60.6355L85.7084 36.3768C85.7084 36.3768 90.9577 30.193 96.4129 28.3473C100.865 26.8412 108.246 25.6188 115.059 33.084C121.871 40.5492 119.121 47.9686 117.797 51.3051Z" fill="#D4C5EC" stroke="url(#paint0_linear_74_10215)" stroke-width="3.91304" stroke-linecap="round"/>
<path d="M98.0472 32.9292C93.123 34.0544 87.6295 39.6892 87.6295 39.6892L109.182 56.4732C109.182 56.4732 113.616 52.2626 114.168 47.7846L114.169 47.7726C114.5 45.0922 115.101 40.2169 110.485 36.2234C105.863 32.224 102.616 31.8853 98.0472 32.9292Z" fill="#4B3F70"/>
<ellipse cx="101.299" cy="53.7019" rx="24.7817" ry="10.658" transform="rotate(45.3747 101.299 53.7019)" fill="#FEFEFE"/>
<path d="M22.7133 54.859C25.4101 60.6184 32.8365 63.5968 32.8365 63.5968L53.8466 38.029C53.8466 38.029 48.2352 32.1719 42.6788 30.6574C38.1447 29.4216 30.7027 28.6451 24.3515 36.5063C18.0003 44.3674 21.191 51.6082 22.7133 54.859Z" fill="#D4C5EC" stroke="url(#paint1_linear_74_10215)" stroke-width="3.91304" stroke-linecap="round"/>
<path d="M41.3241 35.3291C46.3071 36.1562 52.1293 41.4507 52.1293 41.4507L31.6247 59.4998C31.6247 59.4998 26.9456 55.5633 26.1255 51.1266L26.1234 51.1147C25.6325 48.459 24.7396 43.6286 29.1066 39.365C33.4801 35.095 36.7011 34.5617 41.3241 35.3291Z" fill="#4B3F70"/>
<ellipse cx="24.7817" cy="10.658" rx="24.7817" ry="10.658" transform="matrix(-0.658418 0.752652 0.752652 0.658418 47.6191 30.5902)" fill="#FEFEFE"/>
<path d="M160.353 77.0518C164.169 78.1378 169.268 82.4244 171.023 85.754C173.506 90.4634 177.251 110.92 172.002 119.872C167.579 127.416 160.861 129.897 156.957 130.797C152.056 131.927 148.539 132.197 144.78 132.781C141.467 133.296 137.966 134.055 133.165 135.862C132.356 136.166 131.511 136.5 130.623 136.868C129.146 137.48 127.766 137.837 126.651 138.349C124.39 139.237 122.271 140.737 120.702 141.951C119.133 143.166 116.356 147.123 116.356 147.123L99.2304 118.317C99.2304 118.317 105.912 111.839 110.466 104.231C113.275 99.5369 116.521 95.3038 120.179 91.56C124.093 87.5532 128.48 84.1068 133.308 81.2553C135.4 80.0202 136.861 79.3408 139.224 78.6195C141.455 77.9384 145.698 76.6862 149.404 76.3444C152.121 76.0939 157.486 76.2361 160.353 77.0518Z" fill="url(#paint2_linear_74_10215)"/>
<path d="M120.702 141.951C119.133 143.166 116.356 147.123 116.356 147.123L99.2304 118.317C99.2304 118.317 105.912 111.839 110.466 104.231C113.275 99.5369 116.521 95.3038 120.179 91.56M120.702 141.951C122.271 140.737 124.39 139.237 126.651 138.349M120.702 141.951L118.219 137.863L117.371 114.135C117.371 114.135 121.385 119.294 123.127 123.061C125.697 128.62 126.651 138.349 126.651 138.349M159.318 129.01C159.318 129.01 160.389 120.924 160.463 112.59C160.536 104.333 160.031 104.073 158.478 95.9589C157.989 93.4041 154.985 86.131 153.827 83.803C152.595 81.3256 149.404 76.3444 149.404 76.3444M149.404 76.3444C145.698 76.6862 141.455 77.9384 139.224 78.6195C136.861 79.3408 135.4 80.0202 133.308 81.2553M149.404 76.3444C152.121 76.0939 157.486 76.2361 160.353 77.0518C164.169 78.1378 169.268 82.4244 171.023 85.754C173.506 90.4634 177.251 110.92 172.002 119.872C167.579 127.416 160.861 129.897 156.957 130.797C152.056 131.927 148.539 132.197 144.78 132.781M144.78 132.781C144.78 132.781 146.608 121.998 146.147 114.647C145.87 110.249 144.004 98.6964 141.318 93.7009C139.097 89.5719 133.308 81.2553 133.308 81.2553M144.78 132.781C141.467 133.296 137.966 134.055 133.165 135.862M133.308 81.2553C128.48 84.1068 124.093 87.5532 120.179 91.56M120.179 91.56C120.179 91.56 123.919 97.0908 125.973 100.656C128.028 104.221 128.838 109.006 130 112.777C131.163 116.548 132.347 122.301 133.401 127.528C134.163 131.312 133.165 135.862 133.165 135.862M133.165 135.862C132.356 136.166 131.511 136.5 130.624 136.868C129.146 137.48 127.766 137.837 126.651 138.349" stroke="url(#paint3_linear_74_10215)" stroke-width="3.91304" stroke-linecap="round"/>
<path d="M31.0154 152.691C32.3464 156.653 35.1639 165.14 36.85 169.273L36.8632 169.305C39.3727 175.457 40.1041 177.25 47.4213 177.03C54.4282 176.819 55.7888 166.953 55.7888 166.953C55.7888 166.953 66.8835 168.369 74.8328 168.13C89.4928 167.689 92.2171 165.911 92.2171 165.911C92.2171 165.911 94.4347 176.437 100.902 176.243C107.126 176.055 109.149 176.688 111.667 171.789C114.184 166.89 112.629 168.011 114.542 157.849C117.129 144.098 120.759 130.983 121.819 122.614C122.879 114.245 124.866 96.3463 124.241 82.7143C123.431 65.0546 110.733 31.2396 70.7511 32.4422C27.3966 33.7463 20.686 69.7653 19.46 77.5836C17.4705 90.2702 19.1385 104.164 21.2592 116.822C23.0143 127.297 28.4644 145.098 31.0154 152.691Z" fill="url(#paint4_linear_74_10215)" stroke="url(#paint5_linear_74_10215)" stroke-width="3.91304" stroke-linecap="round" stroke-linejoin="round"/>
<path d="M38.1826 53.7644C35.0387 56.6201 30.769 63.1704 29.0038 68.047C27.2386 72.9237 26.8991 81.1002 29.5088 84.8325C33.0685 89.9235 38.3394 91.2974 43.9632 92.0725C48.8108 92.7405 53.8705 90.0858 57.2531 87.1603C61.2076 83.7401 56.8752 80.5136 61.1053 77.416C68.3638 72.1007 75.2248 74.0262 79.9488 77.2577C84.6728 80.4892 81.6117 83.4151 84.5688 86.9308C87.526 90.4468 93.4368 90.7077 97.8414 90.4518C104.967 90.0377 109.371 87.2548 112.399 82.0376C114.263 78.8265 114.445 72.4801 111.903 65.5534C109.361 58.6266 100.35 50.1306 97.3063 48.3916C94.2629 46.6526 86.4129 41.5819 72.0888 41.4351C57.7647 41.2882 48.982 43.955 38.1826 53.7644Z" fill="url(#paint6_linear_74_10215)"/>
<path d="M102.148 131.993C100.06 147.28 90.8262 156.561 74.2613 157.06C57.6964 157.558 46.5592 151.402 41.6554 136.031C39.749 128.084 42.3887 113.723 48.6109 107.328C54.7583 101.009 64.3054 98.666 72.4974 98.4195C81.8364 99.1623 87.0692 101.052 93.7734 105.969C100.245 110.716 103.307 123.505 102.148 131.993Z" fill="url(#paint7_linear_74_10215)"/>
<g filter="url(#filter0_f_74_10215)">
<path d="M93.4585 121.045C91.6189 118.799 89.8225 112.709 89.8225 112.709C89.8225 112.709 92.6625 108.925 96.4511 106.944C98.9919 105.616 102.023 104.48 104.928 104.827C107.827 105.173 112.552 108.3 112.552 108.3C112.552 108.3 111.68 111.39 111.222 113.036C110.039 117.295 109.097 120.258 106.03 122.435C103.819 124.005 101.465 124.796 98.7465 124.309C96.4256 123.892 95.0291 122.963 93.4585 121.045Z" fill="#7C6CB3"/>
</g>
<path d="M90.2423 113.787C90.2423 113.787 91.8107 119.292 93.5508 121.284C95.0365 122.984 96.3834 123.786 98.6599 124.089C101.326 124.444 103.631 123.864 105.866 122.355C108.966 120.262 109.798 117.373 111.109 113.441C111.616 111.921 112.316 108.445 112.316 108.445" stroke="#4B3F70" stroke-width="3.47826" stroke-linecap="round"/>
<path d="M143.393 131.001L143.827 126.218L144.262 119.261L144.262 112.739L142.958 104.913L140.784 97.0871L139.045 93.1742L136.436 89.2612L132.958 83.609L125.566 88.4954L126.001 97.0871L129.914 106.218L134.262 123.174L135.566 133.174L143.393 131.001Z" fill="#4B3F70"/>
<g filter="url(#filter1_f_74_10215)">
<path d="M50.8258 119.1C52.2914 116.647 53.1282 110.356 53.1282 110.356C53.1282 110.356 48.5109 105.857 44.4848 104.832C41.4434 104.057 38.8304 103.632 35.8216 104.587C33.5596 105.304 29.6411 108.242 29.6411 108.242C29.6411 108.242 31.2035 111.845 31.9042 113.44C33.717 117.565 35.4074 120.309 38.7546 122.142C41.1672 123.463 43.5283 123.751 46.1259 122.958C48.3437 122.281 49.5745 121.194 50.8258 119.1Z" fill="#7C6CB3"/>
</g>
<path d="M52.9842 111.584C52.9842 111.584 52.165 117.25 50.7064 119.455C49.4611 121.339 48.2334 122.314 46.0177 122.918C43.4225 123.626 41.0608 123.359 38.6447 122.162C35.2926 120.502 34.0823 117.749 32.2581 114.027C31.5529 112.589 30.3944 109.238 30.3944 109.238" stroke="#4B3F70" stroke-width="3.47826" stroke-linecap="round"/>
<path d="M126.434 137.522L123.826 123.174L119.043 141.87L126.434 137.522Z" fill="#4B3F70"/>
<path d="M103.996 71.8831C104.365 65.7361 99.9227 59.9838 91.6367 59.461C85.7088 59.0871 78.3742 64.0964 78.0046 70.2435C77.635 76.3905 83.0312 80.468 90.2819 80.904C97.5326 81.34 103.626 78.0302 103.996 71.8831Z" fill="url(#paint8_linear_74_10215)"/>
<ellipse cx="96.4942" cy="64.7559" rx="2.24746" ry="1.51663" transform="rotate(25.9442 96.4942 64.7559)" fill="#EDE9E9"/>
<path d="M59.0262 71.2788C58.7869 65.1141 54.1119 59.8062 46.36 60.0825C40.8143 60.2803 34.4715 65.981 34.7108 72.1457C34.9501 78.3104 40.3528 81.8566 47.134 81.5934C53.9151 81.3302 59.2655 77.4435 59.0262 71.2788Z" fill="url(#paint9_linear_74_10215)"/>
<ellipse cx="49.9869" cy="64.756" rx="2.24746" ry="1.51663" transform="rotate(21.386 49.9869 64.756)" fill="#EDE9E9"/>
<ellipse cx="67.2541" cy="82.163" rx="16.8867" ry="14.9433" transform="rotate(9.20256 67.2541 82.163)" fill="url(#paint10_linear_74_10215)"/>
<path d="M53.8023 91.7978C52.4561 89.3386 51.4139 87.6982 51.0767 84.7283C50.7394 81.7587 51.2458 78.7565 52.5433 76.0473C53.841 73.3377 55.8827 71.0206 58.4527 69.3542C61.0232 67.6874 64.0214 66.7371 67.1208 66.6123C70.2203 66.4875 73.2952 67.1934 76.0091 68.6497C78.7226 70.1058 80.9674 72.2538 82.5045 74.8534C84.0413 77.4524 84.8136 80.4053 84.7425 83.3908C84.6714 86.3762 84.2855 89.3612 82.9591 92.034" stroke="#4B3F70" stroke-width="3.91304" stroke-linecap="round" stroke-linejoin="round"/>
<path d="M74.5752 77.2853C74.5629 80.6766 71.5291 83.4148 67.9006 83.4016C64.8768 83.3906 61.2583 80.6282 61.2706 77.2369C61.283 73.8455 64.2713 71.1071 67.9453 71.1205C71.6192 71.1339 74.5875 73.8939 74.5752 77.2853Z" fill="#4B3F70"/>
</g>
<defs>
<filter id="filter0_f_74_10215" x="88.0831" y="103.025" width="26.2068" height="23.1662" filterUnits="userSpaceOnUse" color-interpolation-filters="sRGB">
<feFlood flood-opacity="0" result="BackgroundImageFix"/>
<feBlend mode="normal" in="SourceGraphic" in2="BackgroundImageFix" result="shape"/>
<feGaussianBlur stdDeviation="0.869565" result="effect1_foregroundBlur_74_10215"/>
</filter>
<filter id="filter1_f_74_10215" x="27.9015" y="102.298" width="26.9665" height="22.8381" filterUnits="userSpaceOnUse" color-interpolation-filters="sRGB">
<feFlood flood-opacity="0" result="BackgroundImageFix"/>
<feBlend mode="normal" in="SourceGraphic" in2="BackgroundImageFix" result="shape"/>
<feGaussianBlur stdDeviation="0.869565" result="effect1_foregroundBlur_74_10215"/>
</filter>
<linearGradient id="paint0_linear_74_10215" x1="118.966" y1="39.8949" x2="88.6941" y2="47.8044" gradientUnits="userSpaceOnUse">
<stop offset="0.576067" stop-color="#4B3F70"/>
<stop offset="1" stop-color="#5D4F87"/>
</linearGradient>
<linearGradient id="paint1_linear_74_10215" x1="20.8602" y1="43.5398" x2="51.5531" y2="49.6153" gradientUnits="userSpaceOnUse">
<stop offset="0.576067" stop-color="#4B3F70"/>
<stop offset="1" stop-color="#5D4F87"/>
</linearGradient>
<linearGradient id="paint2_linear_74_10215" x1="130.416" y1="80.4258" x2="144.307" y2="140.68" gradientUnits="userSpaceOnUse">
<stop stop-color="#C5B8E8"/>
<stop offset="1" stop-color="#9887C7"/>
</linearGradient>
<linearGradient id="paint3_linear_74_10215" x1="130.416" y1="80.4258" x2="144.307" y2="140.68" gradientUnits="userSpaceOnUse">
<stop offset="0.576067" stop-color="#4B3F70"/>
<stop offset="1" stop-color="#5D4F87"/>
</linearGradient>
<linearGradient id="paint4_linear_74_10215" x1="68.8527" y1="31.842" x2="108.358" y2="192.598" gradientUnits="userSpaceOnUse">
<stop offset="0.0545617" stop-color="#D5CBEF"/>
<stop offset="0.153725" stop-color="#E0DAF1"/>
<stop offset="0.472745" stop-color="#D4C4EC"/>
<stop offset="0.663723" stop-color="#C0B4E7"/>
<stop offset="0.795744" stop-color="#AFA0E2"/>
</linearGradient>
<linearGradient id="paint5_linear_74_10215" x1="68.8838" y1="32.5181" x2="75.5321" y2="177.502" gradientUnits="userSpaceOnUse">
<stop offset="0.576067" stop-color="#4B3F70"/>
<stop offset="1" stop-color="#5D4F87"/>
</linearGradient>
<linearGradient id="paint6_linear_74_10215" x1="71.9826" y1="41.41" x2="70.0836" y2="93.0877" gradientUnits="userSpaceOnUse">
<stop stop-color="#A293D0"/>
<stop offset="1" stop-color="#B6ABDA"/>
</linearGradient>
<linearGradient id="paint7_linear_74_10215" x1="70.6783" y1="97.3069" x2="72.6716" y2="158.275" gradientUnits="userSpaceOnUse">
<stop offset="0.521453" stop-color="#E6E2F2"/>
<stop offset="1" stop-color="#D3CBEF"/>
</linearGradient>
<linearGradient id="paint8_linear_74_10215" x1="90.408" y1="80.9116" x2="91.6976" y2="59.4646" gradientUnits="userSpaceOnUse">
<stop stop-color="#5D4F87"/>
<stop offset="0.423933" stop-color="#4B3F70"/>
</linearGradient>
<linearGradient id="paint9_linear_74_10215" x1="47.2519" y1="81.5888" x2="46.417" y2="60.0803" gradientUnits="userSpaceOnUse">
<stop stop-color="#5D4F87"/>
<stop offset="0.423933" stop-color="#4B3F70"/>
</linearGradient>
<linearGradient id="paint10_linear_74_10215" x1="67.2541" y1="67.2197" x2="71.1282" y2="96.0148" gradientUnits="userSpaceOnUse">
<stop offset="0.837906" stop-color="#C8BDE7"/>
<stop offset="1" stop-color="#D4C4EC" stop-opacity="0"/>
</linearGradient>
<clipPath id="clip0_74_10215">
<rect width="146" height="146" rx="73" fill="white"/>
</clipPath>
</defs>
</svg>
