<svg width="80" height="86" viewBox="0 0 80 86" fill="none" xmlns="http://www.w3.org/2000/svg">
<path d="M54.3533 0.439993C64.2733 0.439993 71.0333 2.63999 74.6333 7.03999C77.9133 11.04 79.5533 18.12 79.5533 28.28C79.5533 34.92 77.2333 39.72 72.5933 42.68C69.6333 44.52 64.3133 46.12 56.6333 47.48C54.1533 47.8 51.9133 48.16 49.9133 48.56C47.9933 48.96 46.3533 49.52 44.9933 50.24C43.0733 51.28 41.7933 52.4 41.1533 53.6C40.5133 54.8 40.1933 56.48 40.1933 58.64L30.5933 58.76L30.4733 56.24C30.4733 48.72 33.8333 43.76 40.5533 41.36C46.8733 40.16 53.1933 38.96 59.5133 37.76C66.3133 36.08 69.7133 32.32 69.7133 26.48C69.7133 20.16 68.7533 15.72 66.8333 13.16C64.5933 10.2 60.3933 8.71999 54.2333 8.71999C50.1533 8.71999 44.6733 8.83999 37.7933 9.08C30.9933 9.23999 26.9133 9.31999 25.5533 9.31999C19.9533 9.31999 15.9533 10.36 13.5533 12.44C11.1533 14.52 9.95328 18.32 9.95328 23.84L10.1933 28.52H0.113282V20.24C0.113282 13.52 1.79328 8.64 5.15328 5.6C8.51328 2.56 13.5533 1.04 20.2733 1.04C25.4733 1.04 29.7133 0.999998 32.9933 0.919994C46.0333 0.599993 53.1533 0.439993 54.3533 0.439993ZM28.9133 70.88H41.9933V85.52H28.9133V70.88Z" fill="url(#paint0_linear_854_9052)"/>
<defs>
<linearGradient id="paint0_linear_854_9052" x1="44.2769" y1="-74.3846" x2="-14.147" y2="128.112" gradientUnits="userSpaceOnUse">
<stop stop-color="#A394D5"/>
<stop offset="1" stop-color="#5E4B9C"/>
</linearGradient>
</defs>
</svg>
